<?xml version="1.0" encoding="utf-8"?>
<!-- Generator: Adobe Illustrator 24.2.1, SVG Export Plug-In . SVG Version: 6.00 Build 0)  -->
<svg version="1.1" id="Layer_1" xmlns="http://www.w3.org/2000/svg" xmlns:xlink="http://www.w3.org/1999/xlink" x="0px" y="0px"
	 viewBox="0 0 109.3 109.3" style="enable-background:new 0 0 109.3 109.3;" xml:space="preserve">
<style type="text/css">
	.st0{fill:#5A5564;}
	.st1{fill:#F09242;}
	.st2{fill:#282138;}
	.st3{fill:#211F1E;}
</style>
<g id="Layer_2_1_">
	<g id="Layer_1-2">
		<g id="Page-1">
			<g id="wbtc_colour">
				<path id="Shape" class="st0" d="M89.1,22.9l-3,3c14.8,16.2,14.8,41.1,0,57.3l3,3C105.6,68.3,105.6,40.8,89.1,22.9L89.1,22.9z"/>
				<path id="Shape-2" class="st0" d="M26,23.2c16.2-14.8,41.1-14.8,57.3,0l3-3c-17.9-16.5-45.5-16.5-63.4,0L26,23.2z"/>
				<path id="Shape-3" class="st0" d="M23.2,83.3C8.4,67.1,8.4,42.2,23.2,26l-3-3c-16.5,17.9-16.5,45.5,0,63.4L23.2,83.3z"/>
				<path id="Shape-4" class="st0" d="M83.3,86.1c-16.2,14.8-41.1,14.8-57.3,0l-3,3c17.9,16.5,45.5,16.5,63.4,0L83.3,86.1z"/>
				<path id="Shape-5" class="st1" d="M73.6,44.6c-0.6-6.3-6-8.4-12.8-9V27h-5.3v8.5c-1.4,0-2.8,0-4.2,0V27H46v8.7H35.3v5.7
					c0,0,3.9-0.1,3.8,0c1.5-0.2,2.8,0.9,3,2.3v23.8c0,0.5-0.3,1-0.6,1.3c-0.4,0.3-0.9,0.5-1.4,0.5c0.1,0.1-3.8,0-3.8,0l-1,6.3h10.6
					v8.8h5.3v-8.7h4.2v8.7h5.3v-8.7c8.9-0.5,15.1-2.7,15.9-11.1c0.6-6.7-2.5-9.7-7.6-10.9C72.1,52,74,49.2,73.6,44.6z M66.2,63.4
					c0,6.6-11.2,5.8-14.8,5.8V57.6C54.9,57.6,66.2,56.5,66.2,63.4z M63.7,47c0,6-9.4,5.3-12.4,5.3V41.7C54.3,41.7,63.7,40.8,63.7,47
					z"/>
				<path id="Shape-6" class="st2" d="M54.6,109.3C24.4,109.3,0,84.8,0,54.6S24.5,0,54.6,0c30.2,0,54.6,24.5,54.6,54.6
					C109.3,84.8,84.8,109.3,54.6,109.3L54.6,109.3z M54.6,4.3C26.8,4.3,4.3,26.8,4.3,54.6s22.6,50.3,50.4,50.3S105,82.4,105,54.6
					S82.5,4.3,54.6,4.3C54.7,4.3,54.6,4.3,54.6,4.3z"/>
			</g>
		</g>
	</g>
</g>
<g>
	<g>
		<path class="st3" d="M80.3,29.1c0.8-1.2,1.2-2.3,1.4-3.6c0.2-1.6-0.5-3.1-1.8-3.9c-1.4-0.9-3.3-0.9-4.9,0.1
			c-0.7,0.5-1.4,1.2-2,2.1c-0.9-0.2-1.9-0.3-2.9-0.3s-2,0.1-2.9,0.3c-0.6-0.9-1.3-1.6-2-2.1c-1.6-1-3.4-1-4.9-0.1
			c-1.3,0.8-2,2.3-1.8,3.9c0.1,1.3,0.6,2.4,1.4,3.6c-1.9,3.2-2,6.6-2,7.6v0.5l0.5,0.2c1.5,0.7,5.8,2.9,7.1,4.2
			c0.5,0.5,0.9,1.1,1.3,1.6c0.9,1.2,1.7,2.3,3.3,2.3c1.6,0,2.4-1.1,3.3-2.3c0.4-0.5,0.8-1.1,1.3-1.6c1.3-1.3,5.6-3.5,7.1-4.2
			l0.5-0.2v-0.5C82.3,35.7,82.1,32.3,80.3,29.1z M59.4,36.2c0.1-1.4,0.4-4.3,2.1-6.9c0.5-0.7,1-1.4,1.7-1.9c1.4,3.3,2.5,8.1,3.1,13
			C64.8,38.9,60.8,36.9,59.4,36.2z M71.8,42.6c-0.7,0.9-1.1,1.3-1.8,1.3c-0.7,0-1.1-0.5-1.8-1.3c0-0.1,0-0.1,0-0.2h3.6
			C71.8,42.5,71.8,42.5,71.8,42.6z M73.7,40.4c0.6-4.9,1.8-9.7,3.1-13c0.6,0.5,1.2,1.2,1.7,1.9c1.7,2.6,2.1,5.5,2.1,6.9
			C79.3,36.9,75.3,38.9,73.7,40.4z"/>
	</g>
</g>
</svg>
