<?xml version="1.0" encoding="utf-8"?>
<!-- Generator: Adobe Illustrator 17.0.0, SVG Export Plug-In . SVG Version: 6.00 Build 0)  -->
<!DOCTYPE svg PUBLIC "-//W3C//DTD SVG 1.1//EN" "http://www.w3.org/Graphics/SVG/1.1/DTD/svg11.dtd">
<svg version="1.1" id="Layer_2" xmlns="http://www.w3.org/2000/svg" xmlns:xlink="http://www.w3.org/1999/xlink" x="0px" y="0px"
	 width="1000px" height="1000px" viewBox="0 0 1000 1000" enable-background="new 0 0 1000 1000" xml:space="preserve">
<g>
	<circle fill="#F1A23F" cx="422.785" cy="419.704" r="418.704"/>
	<g>
		<polygon fill="#FFFFFF" points="629.392,353.53 629.392,336.463 613.243,336.463 613.243,320.269 613.243,319.669 
			613.243,310.879 613.243,271.097 629.392,271.097 629.392,237.88 613.26,237.88 613.26,237.867 629.392,237.867 629.392,221.003 
			613.225,221.003 613.225,188.744 596.375,188.744 547.227,188.744 547.227,199.145 547.227,204.84 513.972,204.84 497.761,204.84 
			480.773,204.84 463.9,204.84 422.785,204.84 381.67,204.84 364.797,204.84 347.809,204.84 331.598,204.84 298.343,204.84 
			298.343,199.145 298.343,188.744 249.194,188.744 232.345,188.744 232.345,221.003 216.178,221.003 216.178,237.867 
			232.31,237.867 232.31,237.88 216.178,237.88 216.178,271.097 232.327,271.097 232.327,310.879 232.327,319.669 232.327,320.269 
			232.327,336.463 216.178,336.463 216.178,353.53 200.011,353.53 200.011,452.792 216.178,452.792 216.178,485.099 
			232.301,485.099 232.301,501.284 244.029,501.284 249.183,501.284 249.183,518.307 249.2,518.307 265.341,518.307 
			265.341,535.172 282.391,535.172 282.391,551.339 282.399,551.339 298.567,551.339 298.567,562.776 298.567,568.212 
			314.716,568.212 314.716,583.646 331.589,583.646 331.589,600.705 347.747,600.705 347.747,617.56 347.747,650.6 364.797,650.6 
			364.797,666.935 381.679,666.935 381.679,683.8 397.811,683.8 422.785,683.8 447.759,683.8 463.891,683.8 463.891,666.935 
			480.773,666.935 480.773,650.6 497.823,650.6 497.823,617.56 497.823,600.705 513.981,600.705 513.981,583.646 530.854,583.646 
			530.854,568.212 547.003,568.212 547.003,562.776 547.003,551.339 563.171,551.339 563.179,551.339 563.179,535.172 
			580.229,535.172 580.229,518.307 596.37,518.307 596.387,518.307 596.387,501.284 601.541,501.284 613.269,501.284 
			613.269,485.099 629.392,485.099 629.392,452.792 645.559,452.792 645.559,353.53 		"/>
		<g>
			<rect x="240.762" y="212.586" fill="none" width="0.004" height="16.838"/>
			<rect x="596.387" y="221.003" fill="none" width="16.838" height="0.004"/>
			<rect x="381.67" y="518.298" fill="#EBEAE6" width="0.009" height="65.339"/>
			<rect x="364.797" y="221.007" fill="#EBEAE6" width="16.873" height="0.009"/>
			<polygon fill="#C1C1C3" points="249.183,402.693 265.367,402.693 265.367,336.436 249.183,336.436 249.183,320.269 
				232.327,320.269 232.327,336.463 249.183,336.463 			"/>
			<rect x="265.367" y="402.693" fill="#C1C1C3" width="17.032" height="33.199"/>
			<polygon fill="#C1C1C3" points="314.698,535.189 314.698,551.339 331.589,551.339 331.589,518.298 314.722,518.298 
				314.722,468.903 298.578,468.903 298.578,435.91 282.399,435.91 282.399,468.932 298.558,468.932 298.558,518.307 
				282.391,518.307 282.391,535.172 282.391,551.339 282.399,551.339 282.399,535.189 			"/>
			<polygon fill="#C1C1C3" points="282.391,501.258 265.341,501.258 265.341,485.099 249.2,485.099 249.2,501.284 265.341,501.284 
				265.341,518.307 282.391,518.307 			"/>
			<path fill="#1F1C22" d="M381.679,271.115v-33.358h-0.009v-16.741h-16.873v-0.009V204.84h-16.988h-16.211v16.176h-16.882v16.873
				h-32.325V204.84h-33.208l0.012,16.163h-0.012v0.004h-16.838v16.86h-0.035v0.013h-16.132v33.217h16.149v39.782v8.79v0.6h16.855
				v16.167h16.185v66.257h17.032v33.199v0.018h16.179v32.993h16.144v49.396h16.867v33.04h-16.891v-16.149h-32.299v16.149h16.167
				v11.437v5.436h16.149v15.435h16.873v17.058h16.158h17.041v-17.067h15.43h1.451v-65.339h0.009h16.158v-82.397h-16.158v-0.026
				h-0.009V303.414h0.009h16.149h0.009v-32.211v-0.088H381.679z M347.809,468.95h-9.743h-6.477v-16.308h6.477h9.743V468.95z"/>
			<rect x="265.341" y="518.307" fill="#1F1C22" width="17.05" height="16.864"/>
			<polygon fill="#EBEAE6" points="232.345,221.007 232.345,221.003 216.178,221.003 216.178,237.867 232.31,237.867 
				232.31,221.007 			"/>
			<rect x="232.31" y="221.007" fill="#EBEAE6" width="0.035" height="16.86"/>
			<polygon fill="#EBEAE6" points="249.183,204.84 282.391,204.84 282.391,237.889 314.716,237.889 314.716,221.016 
				331.598,221.016 331.598,204.84 298.343,204.84 298.343,199.145 298.343,188.744 249.194,188.744 232.345,188.744 
				232.345,221.003 249.183,221.003 			"/>
			<polygon fill="#EBEAE6" points="249.194,221.003 249.183,204.84 249.183,221.003 			"/>
			<rect x="249.183" y="501.284" fill="#1F1C22" width="0.018" height="17.023"/>
			<rect x="249.2" y="501.284" fill="#1F1C22" width="16.141" height="17.023"/>
			<polygon fill="#EBEAE6" points="282.399,468.932 282.399,435.91 282.399,435.892 265.367,435.892 265.367,402.693 
				249.183,402.693 249.183,336.463 232.327,336.463 216.178,336.463 216.178,353.53 200.011,353.53 200.011,452.792 
				216.178,452.792 216.178,485.099 232.301,485.099 232.301,501.284 244.029,501.284 249.183,501.284 249.2,501.284 249.2,485.099 
				265.341,485.099 265.341,501.258 282.391,501.258 282.391,518.307 298.558,518.307 298.558,468.932 			"/>
			<polygon fill="#C1C1C3" points="381.67,583.638 380.219,583.638 364.788,583.638 364.788,600.705 347.747,600.705 
				347.747,617.56 364.797,617.56 381.679,617.56 381.679,600.705 381.679,583.646 381.679,583.638 			"/>
			<polygon fill="#C1C1C3" points="381.679,583.646 397.837,583.646 397.837,518.298 381.679,518.298 381.679,583.638 			"/>
			<rect x="381.679" y="303.414" fill="#C1C1C3" width="16.149" height="132.461"/>
			<rect x="381.67" y="303.414" fill="#C1C1C3" width="0.009" height="132.461"/>
			<rect x="397.837" y="271.203" fill="#C1C1C3" width="16.158" height="32.211"/>
			<polygon fill="#C1C1C3" points="397.828,221.007 381.67,221.007 381.67,221.016 381.679,221.016 381.679,237.757 
				397.828,237.757 			"/>
			<rect x="381.67" y="221.016" fill="#C1C1C3" width="0.009" height="16.741"/>
			<rect x="364.797" y="204.84" fill="#C1C1C3" width="16.873" height="16.167"/>
			<rect x="347.747" y="617.56" fill="#C1C1C3" width="17.05" height="33.04"/>
			<rect x="364.797" y="650.6" fill="#C1C1C3" width="16.882" height="16.335"/>
			<rect x="381.679" y="666.935" fill="#C1C1C3" width="16.132" height="16.864"/>
			<polygon fill="#FFFFFF" points="338.066,452.642 331.589,452.642 331.589,468.95 338.066,468.95 347.809,468.95 347.809,452.642 
							"/>
			<rect x="463.9" y="221.007" fill="#EBEAE6" width="16.873" height="0.009"/>
			<polygon fill="#EBEAE6" points="463.9,221.007 463.9,204.84 422.785,204.84 381.67,204.84 381.67,221.007 397.828,221.007 
				397.828,237.757 381.679,237.757 381.679,271.115 397.837,271.115 397.837,271.203 413.995,271.203 413.995,303.414 
				397.837,303.414 397.828,303.414 397.828,435.874 381.679,435.874 381.679,435.901 397.837,435.901 397.837,518.298 
				397.837,583.646 381.679,583.646 381.679,600.705 422.785,600.705 463.891,600.705 463.891,583.646 447.733,583.646 
				447.733,518.298 447.733,435.901 463.891,435.901 463.891,435.874 447.742,435.874 447.742,303.414 447.733,303.414 
				431.574,303.414 431.574,271.203 447.733,271.203 447.733,271.115 463.891,271.115 463.891,237.757 447.742,237.757 
				447.742,221.007 			"/>
			<rect x="463.891" y="518.298" fill="#EBEAE6" width="0.009" height="65.339"/>
			<polygon fill="#C1C1C3" points="547.012,518.307 547.012,468.932 563.171,468.932 563.171,435.91 546.992,435.91 
				546.992,468.903 530.848,468.903 530.848,518.298 513.981,518.298 513.981,551.339 530.872,551.339 530.872,535.189 
				563.171,535.189 563.171,551.339 563.179,551.339 563.179,535.172 563.179,518.307 			"/>
			<polygon fill="#C1C1C3" points="596.37,501.284 596.37,485.099 580.229,485.099 580.229,501.258 563.179,501.258 
				563.179,518.307 580.229,518.307 580.229,501.284 			"/>
			<polygon fill="#C1C1C3" points="596.387,336.436 580.202,336.436 580.202,402.693 596.387,402.693 596.387,336.463 
				613.243,336.463 613.243,320.269 596.387,320.269 			"/>
			<rect x="563.17" y="402.693" fill="#C1C1C3" width="17.032" height="33.199"/>
			<path fill="#1F1C22" d="M613.26,237.88v-0.013h-0.035v-16.86h-16.838v-0.004h-0.012l0.012-16.163h-33.208v33.049h-32.325v-16.873
				h-16.882V204.84h-16.211h-16.988v16.167v0.009H463.9v16.741h-0.009v33.358h-16.158v0.088v32.211h0.009h16.149h0.009v132.461
				h-0.009v0.026h-16.158v82.397h16.158h0.009v65.339h1.451h15.43v17.067h17.041h16.158v-17.058h16.873v-15.435h16.149v-5.436
				v-11.437h16.167v-16.149h-32.299v16.149h-16.891v-33.04h16.867v-49.396h16.144V435.91h16.179v-0.018v-33.199h17.032v-66.257
				h16.185v-16.167h16.855v-0.6v-8.79v-39.782h16.149V237.88H613.26z M513.981,468.95h-6.477h-9.743v-16.308h9.743h6.477V468.95z"/>
			<rect x="563.179" y="518.307" fill="#1F1C22" width="17.05" height="16.864"/>
			<polygon fill="#EBEAE6" points="613.26,221.007 613.26,237.867 629.392,237.867 629.392,221.003 613.225,221.003 
				613.225,221.007 			"/>
			<rect x="613.225" y="221.007" fill="#EBEAE6" width="0.035" height="16.86"/>
			<polygon fill="#EBEAE6" points="530.854,221.016 530.854,237.889 563.179,237.889 563.179,204.84 596.387,204.84 
				596.387,221.003 613.225,221.003 613.225,188.744 596.375,188.744 547.227,188.744 547.227,199.145 547.227,204.84 
				513.972,204.84 513.972,221.016 			"/>
			<polygon fill="#EBEAE6" points="596.375,221.003 596.387,221.003 596.387,204.84 			"/>
			<rect x="596.37" y="501.284" fill="#1F1C22" width="0.018" height="17.023"/>
			<rect x="580.229" y="501.284" fill="#1F1C22" width="16.141" height="17.023"/>
			<polygon fill="#EBEAE6" points="629.392,353.53 629.392,336.463 613.243,336.463 596.387,336.463 596.387,402.693 
				580.202,402.693 580.202,435.892 563.171,435.892 563.171,435.91 563.171,468.932 547.012,468.932 547.012,518.307 
				563.179,518.307 563.179,501.258 580.229,501.258 580.229,485.099 596.37,485.099 596.37,501.284 596.387,501.284 
				601.541,501.284 613.269,501.284 613.269,485.099 629.392,485.099 629.392,452.792 645.559,452.792 645.559,353.53 			"/>
			<polygon fill="#C1C1C3" points="480.782,600.705 480.782,583.638 465.351,583.638 463.9,583.638 463.891,583.638 
				463.891,583.646 463.891,600.705 463.891,617.56 480.773,617.56 497.823,617.56 497.823,600.705 			"/>
			<polygon fill="#C1C1C3" points="463.891,518.298 447.733,518.298 447.733,583.646 463.891,583.646 463.891,583.638 			"/>
			<rect x="447.742" y="303.414" fill="#C1C1C3" width="16.149" height="132.461"/>
			<rect x="463.891" y="303.414" fill="#C1C1C3" width="0.009" height="132.461"/>
			<rect x="431.575" y="271.203" fill="#C1C1C3" width="16.158" height="32.211"/>
			<polygon fill="#C1C1C3" points="463.9,221.016 463.9,221.007 447.742,221.007 447.742,237.757 463.891,237.757 463.891,221.016 
							"/>
			<rect x="463.891" y="221.016" fill="#C1C1C3" width="0.009" height="16.741"/>
			<rect x="463.9" y="204.84" fill="#C1C1C3" width="16.873" height="16.167"/>
			<rect x="480.773" y="617.56" fill="#C1C1C3" width="17.05" height="33.04"/>
			<rect x="463.891" y="650.6" fill="#C1C1C3" width="16.882" height="16.335"/>
			<rect x="447.759" y="666.935" fill="#C1C1C3" width="16.132" height="16.864"/>
			<polygon fill="#1F1C22" points="463.891,617.56 463.891,600.705 422.785,600.705 381.679,600.705 381.679,617.56 364.797,617.56 
				364.797,650.6 381.679,650.6 381.679,666.935 397.811,666.935 397.811,683.8 422.785,683.8 447.759,683.8 447.759,666.935 
				463.891,666.935 463.891,650.6 480.773,650.6 480.773,617.56 			"/>
			<polygon fill="#FFFFFF" points="507.503,452.642 497.761,452.642 497.761,468.95 507.503,468.95 513.981,468.95 513.981,452.642 
							"/>
		</g>
	</g>
</g>
<g>
	<circle fill="#FFFFFF" cx="755.667" cy="760.371" r="228.829"/>
	<path id="Shape" fill="#5A5563" d="M906.054,622.685l-12.96,12.96c64.101,70.099,64.101,177.531,0,247.63l12.96,12.96
		c71.316-77.355,71.316-196.497,0-273.853V622.685z"/>
	<path id="Shape-2" fill="#5A5563" d="M633.497,623.808c70.099-64.101,177.531-64.101,247.63,0l12.96-12.96
		c-77.355-71.316-196.497-71.316-273.853,0L633.497,623.808z"/>
	<path id="Shape-3" fill="#5A5563" d="M621.358,883.405c-64.022-70.079-64.022-177.42,0-247.5l-12.96-12.96
		c-71.316,77.355-71.316,196.497,0,273.853L621.358,883.405z"/>
	<path id="Shape-4" fill="#5A5563" d="M880.954,895.371c-70.099,64.101-177.531,64.101-247.63,0l-12.96,12.96
		c77.355,71.316,196.497,71.316,273.853,0L880.954,895.371z"/>
	<path id="Shape-5" fill="#EF904B" d="M839.006,716.389c-2.592-27.044-25.921-36.116-55.427-38.881v-37.239h-22.81v36.548
		c-6.005,0-12.14,0-18.231,0v-36.548H719.9v37.499h-46.268v24.409c0,0,16.848-0.302,16.589,0c6.314-0.695,12.044,3.737,12.96,10.023
		v102.646c-0.131,2.155-1.128,4.165-2.765,5.573c-1.606,1.435-3.728,2.153-5.875,1.987c0.302,0.259-16.589,0-16.589,0l-4.32,27.26
		h45.836v38.103h22.81v-37.542h18.231v37.369h22.853v-37.672c38.536-2.333,65.407-11.837,68.776-47.91
		c2.722-29.031-10.93-41.992-32.747-47.219C832.655,748.271,840.863,736.175,839.006,716.389z M807.037,797.521
		c0,28.34-48.558,25.1-64.024,25.1v-50.286C758.478,772.378,807.037,767.928,807.037,797.521z M796.452,726.671
		c0,25.921-40.523,22.767-53.397,22.767v-45.707C755.93,703.731,796.452,699.67,796.452,726.671z"/>
	<path id="Shape-6" d="M757.139,995.642C626.795,995.618,521.15,889.934,521.174,759.59
		c0.024-130.344,105.708-235.989,236.052-235.965c130.31,0.024,235.941,105.655,235.965,235.965
		c0.024,130.344-105.621,236.028-235.965,236.052C757.197,995.642,757.168,995.642,757.139,995.642z M757.139,542.029
		c-120.108,0.095-217.398,97.54-217.302,217.648s97.54,217.398,217.648,217.302c120.007-0.095,217.254-97.382,217.302-217.389
		c0.048-120.108-97.28-217.514-217.389-217.561C757.312,542.028,757.226,542.028,757.139,542.029L757.139,542.029z"/>
</g>
</svg>
