<?xml version="1.0" encoding="utf-8"?>
<!-- Generator: Adobe Illustrator 17.0.0, SVG Export Plug-In . SVG Version: 6.00 Build 0)  -->
<!DOCTYPE svg PUBLIC "-//W3C//DTD SVG 1.1//EN" "http://www.w3.org/Graphics/SVG/1.1/DTD/svg11.dtd">
<svg version="1.1" xmlns="http://www.w3.org/2000/svg" xmlns:xlink="http://www.w3.org/1999/xlink" x="0px" y="0px" width="1000px"
	 height="1000px" viewBox="171.017 3677.265 1000 1000" enable-background="new 171.017 3677.265 1000 1000" xml:space="preserve">
<g id="Layer_1">
	<g>
		<polygon fill="#FFFFFF" points="740.717,4152.292 756.276,4152.292 762.092,4152.292 762.092,4110.955 762.092,4069.213 
			756.276,4069.213 740.717,4069.213 698.975,4069.213 657.638,4069.213 657.638,4110.955 657.638,4152.292 698.975,4152.292 		"/>
		<polygon fill="#FFFFFF" points="740.717,4235.372 698.975,4235.372 657.638,4235.372 657.638,4276.708 657.638,4318.046 
			698.975,4318.046 740.717,4318.046 782.054,4318.046 787.87,4318.046 787.87,4276.708 787.87,4235.372 782.054,4235.372 		"/>
		<path fill="#FFFFFF" d="M671.017,3681.308c-273.91,0-495.957,222.047-495.957,495.957c0,273.911,222.047,495.957,495.957,495.957
			s495.957-222.046,495.957-495.957C1166.974,3903.354,944.927,3681.308,671.017,3681.308z M466.466,4357.833h-69.918v-277.332
			h69.918V4357.833z M466.466,4040.883h-69.918v-39.619h69.918V4040.883z M907.609,4235.372v41.337v41.337v41.742h-37.333v41.337
			H787.87h-5.816h-27.59v60.701h-47.878v-60.701h-7.612h-41.337h-0.005v60.701h-47.878v-60.701h-35.197v-0.013h-44.742v-43.376
			h44.742v-39.69v-41.337v-41.337v-41.742v-41.337v-41.337v-41.742v-39.712h-44.742v-43.376h79.938v-72.088h47.878v72.097h0.005
			h41.337h7.612v-72.097h47.878v72.097h27.59h5.816h41.337v41.742h41.337v41.337v41.742v41.337h-41.337v41.337h78.401V4235.372z"/>
	</g>
</g>
<g id="Isolation_Mode">
</g>
</svg>
