<svg width="12" height="12" viewBox="0 0 12 12" fill="none" xmlns="http://www.w3.org/2000/svg">
    <path d="M1.76813 1.76838C-0.568707 4.10522 -0.568707 7.8947 1.76813 10.2315C4.10497 12.5684 7.89444 12.5684 10.2313 10.2315C12.5681 7.8947 12.5681 4.10522 10.2313 1.76838C7.89444 -0.568464 4.10497 -0.568464 1.76813 1.76838ZM6.23971 2.52632C6.74493 2.52632 7.14918 2.94316 7.14918 3.4484C7.14918 3.95362 6.73234 4.37048 6.23971 4.37048C5.73449 4.37048 5.31763 3.95364 5.31763 3.43573C5.31763 2.93057 5.7344 2.52634 6.23971 2.52634V2.52632ZM7.54076 8.70316C7.51547 8.77894 7.46499 8.8674 7.41441 8.91789C7.08601 9.25896 6.68178 9.461 6.20173 9.461C5.97441 9.461 5.75958 9.461 5.53226 9.42311C5.16599 9.37263 4.69855 8.91789 4.76173 8.43785C4.81222 8.10945 4.8628 7.78098 4.91329 7.45259C5.01435 6.88419 5.11541 6.30309 5.21647 5.73469C5.21647 5.6968 5.22907 5.65892 5.22907 5.62103C5.22907 5.381 5.15329 5.29263 4.91328 5.26734C4.81221 5.25474 4.71115 5.24205 4.6101 5.21686C4.49643 5.17897 4.43326 5.0779 4.44586 4.98953C4.45846 4.88847 4.52164 4.82529 4.64798 4.80009C4.71116 4.78749 4.78694 4.78749 4.86271 4.78749H5.70903H6.60591C6.82064 4.78749 6.94699 4.88856 6.94699 5.10328C6.94699 5.28012 6.9217 5.45697 6.88381 5.63381C6.77015 6.29068 6.64379 6.93486 6.53013 7.59173C6.49224 7.80645 6.44166 8.02118 6.41646 8.23592C6.40386 8.33698 6.41646 8.45064 6.44175 8.55171C6.47964 8.69066 6.5807 8.76643 6.71965 8.75383C6.83331 8.74123 6.94697 8.70334 7.06072 8.65277C7.14918 8.61488 7.22496 8.5517 7.31333 8.52642C7.46497 8.47584 7.57864 8.56422 7.54074 8.70317L7.54076 8.70316Z" fill="#FFB84D"/>
</svg>
