<svg width="16" height="17" viewBox="0 0 16 17" fill="none" xmlns="http://www.w3.org/2000/svg">
    <path d="M9.48588 7.7893L10.7343 5.67085L14.0994 10.9121L14.101 11.918L14.0901 4.99642C14.0821 4.82722 13.9922 4.67245 13.8489 4.58117L7.79046 1.09624C7.64882 1.02656 7.46902 1.02737 7.32756 1.09845C7.30844 1.10797 7.29044 1.11841 7.27335 1.12979L7.2522 1.14306L1.37155 4.55085L1.34875 4.56121C1.31941 4.57469 1.28972 4.59185 1.26191 4.61177C1.15039 4.69171 1.07637 4.80996 1.05242 4.9426C1.04881 4.9627 1.04615 4.98315 1.04492 5.00384L1.05417 10.6443L4.18859 5.78602C4.58325 5.14184 5.44302 4.93434 6.2412 4.94561L7.17797 4.97033L1.65829 13.8223L2.30895 14.1969L7.8947 4.97933L10.3637 4.97037L4.79229 14.4205L7.11403 15.756L7.39142 15.9155C7.50876 15.9632 7.64711 15.9656 7.76543 15.9229L13.909 12.3625L12.7345 13.0432L9.48588 7.7893ZM9.96216 14.6498L7.61721 10.9693L9.04868 8.54027L12.1284 13.3944L9.96216 14.6498Z" fill="#2D374B"/>
    <path d="M7.61719 10.9693L9.96211 14.6498L12.1283 13.3944L9.04862 8.54028L7.61719 10.9693Z" fill="#28A0F0"/>
    <path d="M14.1015 11.9179L14.0999 10.912L10.7348 5.67078L9.48633 7.78922L12.7349 13.0431L13.9094 12.3624C14.0246 12.2688 14.0943 12.1315 14.1017 11.9834L14.1015 11.9179Z" fill="#28A0F0"/>
    <path d="M0 12.8665L1.65865 13.8223L7.1783 4.97034L6.24153 4.94562C5.44335 4.93435 4.58354 5.14185 4.18891 5.78603L1.05449 10.6443L0 12.2645V12.8665V12.8665Z" fill="white"/>
    <path d="M10.3643 4.97034L7.89533 4.9793L2.30957 14.1969L4.26197 15.321L4.79291 14.4205L10.3643 4.97034Z" fill="white"/>
    <path d="M15.1419 4.95765C15.1212 4.44131 14.8416 3.96864 14.4037 3.69345L8.26585 0.163707C7.83267 -0.0544054 7.29154 -0.0546855 6.85759 0.163567C6.80629 0.189443 0.88866 3.62142 0.88866 3.62142C0.806759 3.66071 0.727869 3.70749 0.653671 3.76061C0.262757 4.04077 0.0244759 4.47615 0 4.95447V12.2645L1.05449 10.6443L1.04528 5.00387C1.04651 4.98325 1.0491 4.96294 1.05278 4.94291C1.07662 4.8102 1.15072 4.69182 1.26228 4.6118C1.29011 4.59188 7.30884 1.10801 7.32795 1.09845C7.46942 1.0274 7.64922 1.02656 7.79086 1.09624L13.8493 4.5811C13.9926 4.67238 14.0825 4.82715 14.0905 4.99635V11.9834C14.0832 12.1316 14.0246 12.2689 13.9094 12.3625L12.7348 13.0431L12.1288 13.3943L9.96256 14.6497L7.76579 15.9228C7.64747 15.9655 7.50912 15.9631 7.39179 15.9154L4.79265 14.4205L4.26171 15.321L6.59746 16.6658C6.6747 16.7098 6.74351 16.7487 6.79999 16.7804C6.88742 16.8294 6.94702 16.8622 6.96806 16.8724C7.13407 16.9531 7.37295 17 7.58819 17C7.78554 17 7.97798 16.9638 8.16006 16.8924L14.5408 13.1972C14.907 12.9134 15.1225 12.4855 15.1419 12.0219V4.95765Z" fill="#96BEDC"/>
</svg>
