<svg width="36" height="36" viewBox="0 0 36 36" fill="none" xmlns="http://www.w3.org/2000/svg">
<circle cx="18" cy="18" r="18" fill="white"/>
<circle cx="17.9998" cy="17.9998" r="16.2" fill="white"/>
<path fill-rule="evenodd" clip-rule="evenodd" d="M23.6546 12.2251C23.6546 13.2588 21.123 14.0967 18 14.0967C14.8771 14.0967 12.3454 13.2588 12.3454 12.2251C12.3454 11.1915 14.8771 10.3535 18 10.3535C21.123 10.3535 23.6546 11.1915 23.6546 12.2251ZM15.336 14.3936C12.5187 14.7658 10.5172 15.7114 10.5172 16.819C10.5172 18.252 13.8674 19.4137 18 19.4137C22.1326 19.4137 25.4828 18.252 25.4828 16.819C25.4828 15.7114 23.4813 14.7658 20.664 14.3936C19.8578 14.5466 18.9543 14.6324 18 14.6324C17.0457 14.6324 16.1422 14.5466 15.336 14.3936ZM8.604 22.4551C8.604 21.2158 10.7712 20.1449 13.9134 19.6391C15.1152 19.9154 16.5111 20.0735 18 20.0735C19.4889 20.0735 20.8848 19.9154 22.0867 19.6391C25.2288 20.1449 27.396 21.2158 27.396 22.4551C27.396 24.1818 23.1893 25.5815 18 25.5815C12.8107 25.5815 8.604 24.1818 8.604 22.4551Z" fill="black"/>
<path fill-rule="evenodd" clip-rule="evenodd" d="M9.89992 32.0298C17.6483 36.5033 27.556 33.8486 32.0295 26.1002C36.503 18.3519 33.8483 8.44411 26.0999 3.9706C18.3516 -0.502903 8.44382 2.15187 3.97031 9.90022C-0.503193 17.6486 2.15159 27.5563 9.89992 32.0298ZM11.4479 29.3486C17.7155 32.9672 25.7298 30.8198 29.3483 24.5522C32.9669 18.2847 30.8195 10.2704 24.5519 6.65182C18.2844 3.03324 10.2701 5.18066 6.65153 11.4482C3.03296 17.7158 5.18038 25.73 11.4479 29.3486Z" fill="url(#paint0_linear_155_277)"/>
<circle cx="24.3362" cy="24.408" r="7.2" fill="url(#paint1_linear_155_277)"/>
<path d="M28.2662 23.9321C28.1668 23.9109 28.0633 23.8904 27.9559 23.8708C27.9253 23.6237 27.8716 23.384 27.7973 23.1543C29.1934 23.379 30.0962 23.7362 30.0962 24.1386C30.0962 24.143 30.0961 24.1475 30.0958 24.152C30.0626 24.8259 27.4966 25.37 24.3362 25.37C21.155 25.37 18.5762 24.8187 18.5762 24.1387C18.5762 24.1345 18.5763 24.1304 18.5765 24.1262C18.595 23.7242 19.5145 23.3684 20.9241 23.1465C20.8493 23.3759 20.7952 23.6153 20.764 23.8622C20.6395 23.8844 20.5201 23.9078 20.4062 23.9321C20.2569 23.964 20.1203 23.997 19.9964 24.0304V24.0306C19.8642 24.0663 19.7465 24.1025 19.6432 24.1386C19.8433 24.2086 20.0977 24.279 20.4062 24.345C20.5107 24.3673 20.6198 24.3888 20.7332 24.4094V24.4095C21.6864 24.5825 22.9444 24.6907 24.3362 24.6907C25.7507 24.6907 27.0271 24.5789 27.9857 24.401V24.4008C28.0825 24.3829 28.1761 24.3642 28.2662 24.345C28.5748 24.279 28.8292 24.2086 29.0294 24.1386C28.8292 24.0685 28.5748 23.9981 28.2662 23.9321Z" fill="white"/>
<path d="M28.6759 22.0147C28.6761 22.0115 28.6762 22.0083 28.6762 22.0051C28.6762 21.6421 27.7119 21.3276 26.3057 21.1743C26.6403 21.3961 26.9377 21.6735 27.1857 21.9939C27.2039 21.9976 27.222 22.0013 27.2399 22.0051C27.2269 22.0079 27.2138 22.0106 27.2006 22.0133L27.2008 22.0134C26.4843 22.1607 25.4845 22.2563 24.3627 22.2563C23.2382 22.2563 22.2363 22.1603 21.5195 22.0124L21.5196 22.0122C21.5082 22.0098 21.4969 22.0075 21.4856 22.0051C21.5011 22.0018 21.5168 21.9986 21.5325 21.9954C21.7805 21.6747 22.0778 21.3972 22.4125 21.1751C21.0102 21.3287 20.0493 21.6427 20.0493 22.0051V22.0052L20.0493 22.0053C20.0493 22.4588 22.1376 22.8192 23.5451 22.9189C23.8601 22.9412 24.3533 22.9428 24.3533 22.9428C24.5273 22.9503 24.8444 22.9414 25.158 22.9198C26.5733 22.8222 28.6551 22.4657 28.6759 22.0147Z" fill="white"/>
<path d="M20.0493 26.7111C20.0493 26.4739 20.4609 26.2574 21.1385 26.0931C21.2466 26.3099 21.3743 26.5144 21.5192 26.7041C21.508 26.7064 21.4967 26.7087 21.4856 26.7111C21.501 26.7143 21.5164 26.7175 21.5321 26.7207C21.5331 26.7221 21.5341 26.7234 21.5351 26.7247H21.5506C22.2652 26.869 23.2544 26.9622 24.3627 26.9622C25.471 26.9622 26.4603 26.869 27.1749 26.7247H27.1842C27.1849 26.7239 27.1855 26.7231 27.1861 26.7222C27.2042 26.7186 27.2221 26.7148 27.2399 26.7111C27.227 26.7084 27.214 26.7057 27.2009 26.703C27.3458 26.5132 27.4735 26.3087 27.5815 26.0918C28.2623 26.2563 28.6762 26.4732 28.6762 26.7111C28.6762 26.7156 28.676 26.7201 28.6757 26.7247C28.6424 27.2323 26.7242 27.6415 24.3627 27.6415C22.0013 27.6415 20.083 27.2323 20.0497 26.7247C20.0494 26.7201 20.0493 26.7156 20.0493 26.7111Z" fill="white"/>
<defs>
<linearGradient id="paint0_linear_155_277" x1="26.0999" y1="3.97061" x2="9.89992" y2="32.0298" gradientUnits="userSpaceOnUse">
<stop stop-color="#6D14CF"/>
<stop offset="1" stop-color="#A23EDD"/>
</linearGradient>
<linearGradient id="paint1_linear_155_277" x1="29.1314" y1="18.936" x2="18.9506" y2="29.8944" gradientUnits="userSpaceOnUse">
<stop stop-color="#6D14CF"/>
<stop offset="1" stop-color="#A23EDD"/>
</linearGradient>
</defs>
</svg>
