<svg width="24" height="24" fill="none" xmlns="http://www.w3.org/2000/svg"><circle cx="12" cy="12" r="12" fill="#fff"/><path fill-rule="evenodd" clip-rule="evenodd" d="M16.189 7.722c0 .766-1.876 1.387-4.189 1.387s-4.189-.62-4.189-1.387c0-.765 1.876-1.386 4.189-1.386s4.189.62 4.189 1.386ZM10.027 9.33c-2.087.275-3.57.976-3.57 1.796 0 1.062 2.482 1.922 5.543 1.922s5.543-.86 5.543-1.922c0-.82-1.483-1.52-3.57-1.796A10.67 10.67 0 0 1 12 9.506c-.707 0-1.376-.064-1.973-.177ZM5.04 15.3c0-.918 1.605-1.711 3.933-2.086.89.205 1.924.322 3.027.322 1.103 0 2.137-.117 3.027-.322 2.328.375 3.933 1.168 3.933 2.086 0 1.28-3.116 2.316-6.96 2.316S5.04 16.58 5.04 15.3Z" fill="#000"/></svg>