<svg width="36" height="36" viewBox="0 0 36 36" fill="none" xmlns="http://www.w3.org/2000/svg">
<circle cx="18" cy="18" r="18" fill="white"/>
<path fill-rule="evenodd" clip-rule="evenodd" d="M3.75682 26.3059C5.20133 28.783 7.26687 30.8405 9.74953 32.2753C12.2322 33.7101 15.0461 34.4727 17.9136 34.4877C20.781 34.5027 23.6028 33.7697 26.1003 32.3609C28.5979 30.9521 30.6848 28.9164 32.1552 26.4546L33.4533 27.2299C31.8481 29.9175 29.5697 32.1399 26.8431 33.6779C24.1166 35.2158 21.036 36.0161 17.9056 35.9997C14.7753 35.9833 11.7033 35.1508 8.99294 33.5844C6.28262 32.018 4.02766 29.7718 2.45068 27.0676L3.75682 26.3059Z" fill="#FBBF24"/>
<path fill-rule="evenodd" clip-rule="evenodd" d="M17.9072 1.51222C15.0422 1.52835 12.231 2.29071 9.75038 3.72418C7.2698 5.15764 5.20555 7.21273 3.76106 9.68691C2.31658 12.1611 1.54171 14.969 1.51284 17.8338C1.48396 20.6986 2.20207 23.5215 3.5964 26.0243L2.27554 26.7602C0.753356 24.0279 -0.0306082 20.9461 0.00091444 17.8185C0.0324371 14.691 0.878358 11.6256 2.45531 8.92458C4.03226 6.22351 6.28581 3.97996 8.99387 2.41504C11.7019 0.850126 14.771 0.0178515 17.8987 0.000244141L17.9072 1.51222Z" fill="#EF4444"/>
<path fill-rule="evenodd" clip-rule="evenodd" d="M34.488 18.0039C34.4887 15.1362 33.7414 12.3178 32.3199 9.82719C30.8983 7.33654 28.8518 5.25972 26.3823 3.80179C23.9128 2.34386 21.1057 1.55524 18.2383 1.5138L18.2601 0.00195312C21.3905 0.0471973 24.455 0.908136 27.151 2.49976C29.8469 4.09139 32.0812 6.35866 33.633 9.07771C35.1849 11.7968 36.0007 14.8735 36 18.0043C35.9993 21.135 35.182 24.2114 33.6289 26.9297L32.316 26.1796C33.7387 23.6897 34.4873 20.8717 34.488 18.0039Z" fill="#052977"/>
<mask id="mask0_187_332" style="mask-type:alpha" maskUnits="userSpaceOnUse" x="3" y="3" width="30" height="30">
<path d="M22.4226 20.3744C22.4226 17.9947 21.0014 17.1788 18.159 16.8389C16.1287 16.5668 15.7226 16.023 15.7226 15.071C15.7226 14.119 16.3994 13.5072 17.7529 13.5072C18.9711 13.5072 19.6479 13.9152 19.9862 14.935C20.054 15.139 20.257 15.2749 20.46 15.2749H21.5427C21.8135 15.2749 22.0165 15.071 22.0165 14.7991V14.7311C21.7458 13.2352 20.5276 12.0794 18.9711 11.9434V10.3116C18.9711 10.0396 18.7681 9.83562 18.4297 9.76758H17.4146C17.1438 9.76758 16.9408 9.97155 16.8731 10.3116V11.8754C14.8428 12.1474 13.557 13.5072 13.557 15.2071C13.557 17.4508 14.9105 18.3346 17.7529 18.6747C19.6479 19.0146 20.257 19.4225 20.257 20.5104C20.257 21.5984 19.3094 22.3462 18.0237 22.3462C16.264 22.3462 15.6549 21.5982 15.4519 20.5783C15.3843 20.3065 15.1813 20.1704 14.9782 20.1704H13.8276C13.557 20.1704 13.354 20.3744 13.354 20.6464V20.7144C13.6246 22.4141 14.7075 23.638 16.9408 23.978V25.6099C16.9408 25.8817 17.1438 26.0857 17.4822 26.1537H18.4973C18.7681 26.1537 18.9711 25.9498 19.0388 25.6099V23.978C21.0691 23.638 22.4226 22.2101 22.4226 20.3744V20.3744Z" fill="white"/>
<path d="M14.4742 27.5527C9.19192 25.6502 6.48302 19.7385 8.44704 14.5063C9.46286 11.6524 11.6977 9.47802 14.4742 8.45877C14.7451 8.32292 14.8805 8.11907 14.8805 7.77921V6.82797C14.8805 6.55611 14.7451 6.35227 14.4742 6.28442C14.4064 6.28442 14.271 6.28442 14.2032 6.35226C7.76978 8.39076 4.24822 15.2538 6.27986 21.709C7.49884 25.5142 10.4109 28.4361 14.2032 29.6592C14.4742 29.795 14.7451 29.6592 14.8127 29.3873C14.8805 29.3195 14.8805 29.2515 14.8805 29.1156V28.1642C14.8805 27.9604 14.6773 27.6887 14.4742 27.5527ZM21.6527 6.35226C21.3817 6.21642 21.1108 6.35226 21.0432 6.62412C20.9754 6.69212 20.9754 6.75996 20.9754 6.89597V7.84722C20.9754 8.11907 21.1785 8.39076 21.3817 8.52677C26.664 10.4293 29.3729 16.3409 27.4088 21.5732C26.393 24.4271 24.1582 26.6014 21.3817 27.6207C21.1108 27.7565 20.9754 27.9604 20.9754 28.3002V29.2515C20.9754 29.5233 21.1108 29.7272 21.3817 29.795C21.4495 29.795 21.5849 29.795 21.6527 29.7272C28.0861 27.6887 31.6076 20.8256 29.576 14.3704C28.357 10.4973 25.3772 7.57536 21.6527 6.35226V6.35226Z" fill="white"/>
</mask>
<g mask="url(#mask0_187_332)">
<circle cx="18" cy="17.928" r="13.104" fill="url(#paint0_linear_187_332)"/>
</g>
<defs>
<linearGradient id="paint0_linear_187_332" x1="18" y1="4.82397" x2="18" y2="31.032" gradientUnits="userSpaceOnUse">
<stop stop-color="#A95BA2"/>
<stop offset="1" stop-color="#4FA0BC"/>
</linearGradient>
</defs>
</svg>