<svg width="36" height="36" viewBox="0 0 36 36" fill="none" xmlns="http://www.w3.org/2000/svg">
<circle cx="18" cy="18" r="18" fill="white"/>
<path fill-rule="evenodd" clip-rule="evenodd" d="M3.75682 26.3059C5.20133 28.783 7.26687 30.8405 9.74953 32.2753C12.2322 33.7101 15.0461 34.4727 17.9136 34.4877C20.781 34.5027 23.6028 33.7697 26.1003 32.3609C28.5979 30.9521 30.6848 28.9164 32.1552 26.4546L33.4533 27.2299C31.8481 29.9175 29.5697 32.1399 26.8431 33.6779C24.1166 35.2158 21.036 36.0161 17.9056 35.9997C14.7753 35.9833 11.7033 35.1508 8.99294 33.5844C6.28262 32.018 4.02766 29.7718 2.45068 27.0676L3.75682 26.3059Z" fill="#FBBF24"/>
<path fill-rule="evenodd" clip-rule="evenodd" d="M17.9072 1.51222C15.0422 1.52835 12.231 2.29071 9.75038 3.72418C7.2698 5.15764 5.20555 7.21273 3.76106 9.68691C2.31658 12.1611 1.54171 14.969 1.51284 17.8338C1.48396 20.6986 2.20207 23.5215 3.5964 26.0243L2.27554 26.7602C0.753356 24.0279 -0.0306082 20.9461 0.00091444 17.8185C0.0324371 14.691 0.878358 11.6256 2.45531 8.92458C4.03226 6.22351 6.28581 3.97996 8.99387 2.41504C11.7019 0.850126 14.771 0.0178515 17.8987 0.000244141L17.9072 1.51222Z" fill="#EF4444"/>
<path fill-rule="evenodd" clip-rule="evenodd" d="M34.488 18.0039C34.4887 15.1362 33.7414 12.3178 32.3199 9.82719C30.8983 7.33654 28.8518 5.25972 26.3823 3.80179C23.9128 2.34386 21.1057 1.55524 18.2383 1.5138L18.2601 0.00195312C21.3905 0.0471973 24.455 0.908136 27.151 2.49976C29.8469 4.09139 32.0812 6.35866 33.633 9.07771C35.1849 11.7968 36.0007 14.8735 36 18.0043C35.9993 21.135 35.182 24.2114 33.6289 26.9297L32.316 26.1796C33.7387 23.6897 34.4873 20.8717 34.488 18.0039Z" fill="#052977"/>
<mask id="mask0_187_357" style="mask-type:alpha" maskUnits="userSpaceOnUse" x="3" y="3" width="30" height="30">
<path d="M20.3388 19.0467V19.0436C20.2075 19.0528 19.5297 19.0925 18.0214 19.0925C16.8153 19.0925 15.9696 19.0589 15.6703 19.0436V19.0467C11.0324 18.8419 7.57305 18.0351 7.57305 17.0663C7.57305 16.1006 11.0355 15.2907 15.6703 15.0859V18.2429C15.9726 18.2643 16.8428 18.3163 18.0427 18.3163C19.4839 18.3163 20.2044 18.2551 20.3388 18.2429V15.089C24.9676 15.2968 28.4178 16.1036 28.4178 17.0694C28.4178 18.0351 24.9645 18.8419 20.3388 19.0497M20.3388 14.762V11.9381H26.7965V7.63208H9.21571V11.9381H15.6734V14.762C10.4248 15.0034 6.47998 16.0425 6.47998 17.2894C6.47998 18.5363 10.4279 19.5754 15.6734 19.8199V28.8721H20.3418V19.8199C25.5813 19.5784 29.52 18.5394 29.52 17.2925C29.52 16.0486 25.5813 15.0065 20.3418 14.7651" fill="white"/>
</mask>
<g mask="url(#mask0_187_357)">
<circle cx="18.216" cy="18.072" r="14.112" fill="url(#paint0_linear_187_357)"/>
</g>
<defs>
<linearGradient id="paint0_linear_187_357" x1="18.216" y1="3.95996" x2="18.216" y2="32.184" gradientUnits="userSpaceOnUse">
<stop stop-color="#A95BA2"/>
<stop offset="1" stop-color="#4FA0BC"/>
</linearGradient>
</defs>
</svg>
