<?xml version="1.0" encoding="UTF-8"?>
<svg xmlns="http://www.w3.org/2000/svg" xmlns:xlink="http://www.w3.org/1999/xlink" width="32px" height="32px" viewBox="0 0 32 32" version="1.1">
<g id="surface1">
<path style=" stroke:none;fill-rule:nonzero;fill:rgb(96.078431%,67.45098%,21.568627%);fill-opacity:1;" d="M 16 0 C 24.835938 0 32 7.164062 32 16 C 32 24.835938 24.835938 32 16 32 C 7.164062 32 0 24.835938 0 16 C 0 7.164062 7.164062 0 16 0 Z M 16 0 "/>
<path style=" stroke:none;fill-rule:nonzero;fill:rgb(99.607843%,99.607843%,99.215686%);fill-opacity:1;" d="M 16.589844 17.128906 L 22.667969 17.128906 C 22.800781 17.128906 22.859375 17.128906 22.871094 16.960938 C 22.917969 16.339844 22.917969 15.71875 22.871094 15.101562 C 22.871094 14.980469 22.808594 14.929688 22.679688 14.929688 L 10.578125 14.929688 C 10.429688 14.929688 10.390625 14.980469 10.390625 15.121094 L 10.390625 16.898438 C 10.390625 17.128906 10.390625 17.128906 10.628906 17.128906 Z M 22.191406 12.851562 C 22.207031 12.804688 22.207031 12.753906 22.191406 12.710938 C 22.089844 12.488281 21.96875 12.277344 21.828125 12.082031 C 21.617188 11.742188 21.371094 11.429688 21.089844 11.148438 C 20.957031 10.980469 20.800781 10.828125 20.628906 10.699219 C 19.761719 9.964844 18.734375 9.441406 17.628906 9.179688 C 17.070312 9.054688 16.5 8.996094 15.929688 9 L 10.558594 9 C 10.410156 9 10.390625 9.058594 10.390625 9.191406 L 10.390625 12.738281 C 10.390625 12.890625 10.390625 12.929688 10.578125 12.929688 L 22.117188 12.929688 C 22.117188 12.929688 22.21875 12.910156 22.238281 12.851562 Z M 22.191406 19.210938 C 22.019531 19.191406 21.847656 19.191406 21.679688 19.210938 L 10.589844 19.210938 C 10.441406 19.210938 10.390625 19.210938 10.390625 19.410156 L 10.390625 22.878906 C 10.390625 23.039062 10.390625 23.082031 10.589844 23.082031 L 15.710938 23.082031 C 15.953125 23.097656 16.199219 23.082031 16.4375 23.03125 C 17.183594 22.976562 17.914062 22.816406 18.609375 22.550781 C 18.863281 22.460938 19.109375 22.347656 19.339844 22.210938 L 19.410156 22.210938 C 20.609375 21.585938 21.585938 20.605469 22.199219 19.402344 C 22.199219 19.402344 22.269531 19.25 22.191406 19.210938 Z M 8.378906 24.878906 L 8.378906 19.351562 C 8.378906 19.21875 8.378906 19.199219 8.21875 19.199219 L 6.050781 19.199219 C 5.929688 19.199219 5.878906 19.199219 5.878906 19.039062 L 5.878906 17.140625 L 8.199219 17.140625 C 8.328125 17.140625 8.378906 17.140625 8.378906 16.96875 L 8.378906 15.089844 C 8.378906 14.96875 8.378906 14.941406 8.21875 14.941406 L 6.050781 14.941406 C 5.929688 14.941406 5.878906 14.941406 5.878906 14.78125 L 5.878906 13.019531 C 5.878906 12.910156 5.878906 12.882812 6.039062 12.882812 L 8.191406 12.882812 C 8.339844 12.882812 8.378906 12.882812 8.378906 12.691406 L 8.378906 7.300781 C 8.378906 7.140625 8.378906 7.101562 8.582031 7.101562 L 16.078125 7.101562 C 16.625 7.121094 17.164062 7.183594 17.699219 7.28125 C 18.800781 7.484375 19.863281 7.878906 20.828125 8.441406 C 21.472656 8.820312 22.0625 9.277344 22.589844 9.800781 C 22.984375 10.210938 23.34375 10.65625 23.660156 11.132812 C 23.972656 11.613281 24.234375 12.125 24.441406 12.660156 C 24.464844 12.800781 24.601562 12.894531 24.738281 12.871094 L 26.53125 12.871094 C 26.757812 12.871094 26.757812 12.871094 26.769531 13.09375 L 26.769531 14.730469 C 26.769531 14.890625 26.710938 14.933594 26.546875 14.933594 L 25.167969 14.933594 C 25.027344 14.933594 24.988281 14.933594 25 15.113281 C 25.054688 15.722656 25.054688 16.332031 25 16.941406 C 25 17.113281 25 17.132812 25.1875 17.132812 L 26.769531 17.132812 C 26.839844 17.222656 26.769531 17.3125 26.769531 17.402344 C 26.777344 17.519531 26.777344 17.636719 26.769531 17.75 L 26.769531 18.960938 C 26.769531 19.132812 26.71875 19.183594 26.566406 19.183594 L 24.679688 19.183594 C 24.546875 19.15625 24.417969 19.242188 24.386719 19.371094 C 23.9375 20.542969 23.21875 21.589844 22.289062 22.433594 C 21.949219 22.738281 21.589844 23.027344 21.21875 23.292969 C 20.816406 23.523438 20.429688 23.761719 20.019531 23.953125 C 19.261719 24.292969 18.46875 24.542969 17.65625 24.703125 C 16.886719 24.839844 16.101562 24.902344 15.316406 24.890625 L 8.378906 24.890625 Z M 8.378906 24.878906 "/>
</g>
</svg>
