<?xml version="1.0" encoding="utf-8"?>
<!-- Generator: Adobe Illustrator 17.0.0, SVG Export Plug-In . SVG Version: 6.00 Build 0)  -->
<!DOCTYPE svg PUBLIC "-//W3C//DTD SVG 1.1//EN" "http://www.w3.org/Graphics/SVG/1.1/DTD/svg11.dtd">
<svg version="1.1" id="Layer_1" xmlns="http://www.w3.org/2000/svg" xmlns:xlink="http://www.w3.org/1999/xlink" x="0px" y="0px"
	 width="1000px" height="1000px" viewBox="0 0 1000 1000" enable-background="new 0 0 1000 1000" xml:space="preserve">
<g>
	<circle fill="#F1A23F" cx="432.568" cy="429.289" r="427.864"/>
	<g id="Layer_2_3_">
		<g>
			<polygon fill="#FFFFFF" points="676.366,350.97 676.366,330.831 657.31,330.831 657.31,311.722 657.31,311.014 657.31,300.642 
				657.31,253.699 676.366,253.699 676.366,214.503 657.33,214.503 657.33,214.488 676.366,214.488 676.366,194.587 
				657.289,194.587 657.289,156.521 637.406,156.521 579.41,156.521 579.41,168.795 579.41,175.515 540.169,175.515 521.04,175.515 
				500.994,175.515 481.084,175.515 432.568,175.515 384.052,175.515 364.142,175.515 344.096,175.515 324.967,175.515 
				285.726,175.515 285.726,168.795 285.726,156.521 227.73,156.521 207.848,156.521 207.848,194.587 188.771,194.587 
				188.771,214.488 207.806,214.488 207.806,214.503 188.771,214.503 188.771,253.699 207.827,253.699 207.827,300.642 
				207.827,311.014 207.827,311.722 207.827,330.831 188.771,330.831 188.771,350.97 169.694,350.97 169.694,468.1 188.771,468.1 
				188.771,506.223 207.795,506.223 207.795,525.321 221.635,525.321 227.716,525.321 227.716,545.409 227.737,545.409 
				246.783,545.409 246.783,565.308 266.902,565.308 266.902,584.386 266.913,584.386 285.99,584.386 285.99,597.881 
				285.99,604.296 305.046,604.296 305.046,622.509 324.956,622.509 324.956,642.638 344.024,642.638 344.024,662.528 
				344.024,701.515 364.142,701.515 364.142,720.79 384.063,720.79 384.063,740.69 403.098,740.69 432.568,740.69 462.038,740.69 
				481.073,740.69 481.073,720.79 500.994,720.79 500.994,701.515 521.113,701.515 521.113,662.528 521.113,642.638 540.18,642.638 
				540.18,622.509 560.09,622.509 560.09,604.296 579.147,604.296 579.147,597.881 579.147,584.386 598.224,584.386 
				598.234,584.386 598.234,565.308 618.353,565.308 618.353,545.409 637.399,545.409 637.42,545.409 637.42,525.321 
				643.501,525.321 657.341,525.321 657.341,506.223 676.366,506.223 676.366,468.1 695.443,468.1 695.443,350.97 			"/>
			<g>
				<rect x="207.848" y="194.587" fill="none" width="19.869" height="0.005"/>
				<rect x="637.42" y="194.587" fill="none" width="19.869" height="0.005"/>
				<rect x="384.052" y="545.398" fill="#EBEAE6" width="0.011" height="77.101"/>
				<rect x="364.142" y="194.593" fill="#EBEAE6" width="19.91" height="0.011"/>
				<polygon fill="#C1C1C3" points="227.716,408.983 246.814,408.983 246.814,330.799 227.716,330.799 227.716,311.722 
					207.827,311.722 207.827,330.831 227.716,330.831 				"/>
				<rect x="246.814" y="408.983" fill="#C1C1C3" width="20.098" height="39.175"/>
				<polygon fill="#C1C1C3" points="305.025,565.329 305.025,584.386 324.956,584.386 324.956,545.398 305.053,545.398 
					305.053,487.111 286.003,487.111 286.003,448.179 266.913,448.179 266.913,487.146 285.979,487.146 285.979,545.409 
					266.902,545.409 266.902,565.308 266.902,584.386 266.913,584.386 266.913,565.329 				"/>
				<polygon fill="#C1C1C3" points="266.902,525.29 246.783,525.29 246.783,506.223 227.737,506.223 227.737,525.321 
					246.783,525.321 246.783,545.409 266.902,545.409 				"/>
				<path fill="#1F1C22" d="M384.063,253.72v-39.363h-0.011v-19.754h-19.91v-0.011v-19.077h-20.046h-19.129v19.088h-19.921v19.91
					h-38.144v-38.998h-39.186l0.014,19.072h-0.014v0.005h-19.869v19.895h-0.042v0.015H188.77v39.196h19.057v46.943v10.372v0.708
					h19.89V330.8h19.098v78.184h20.098v39.175v0.021h19.091v38.932h19.049v58.287h19.904v38.988h-19.931V565.33h-38.113v19.057
					h19.077v13.495v6.415h19.057v18.213h19.91v20.129h19.067h20.108v-20.14h18.208h1.713v-77.1h0.011h19.067v-97.23h-19.067v-0.031
					h-0.011V291.832h0.011h19.057h0.011v-38.009v-0.104H384.063z M344.096,487.166H332.6h-7.644v-19.244h7.644h11.496V487.166z"/>
				<rect x="246.783" y="545.409" fill="#1F1C22" width="20.119" height="19.9"/>
				<polygon fill="#EBEAE6" points="207.848,194.593 207.848,194.587 188.771,194.587 188.771,214.488 207.806,214.488 
					207.806,194.593 				"/>
				<rect x="207.806" y="194.593" fill="#EBEAE6" width="0.042" height="19.895"/>
				<polygon fill="#EBEAE6" points="227.716,175.515 266.902,175.515 266.902,214.514 305.046,214.514 305.046,194.603 
					324.967,194.603 324.967,175.515 285.726,175.515 285.726,168.795 285.726,156.521 227.73,156.521 207.848,156.521 
					207.848,194.587 227.716,194.587 				"/>
				<polygon fill="#EBEAE6" points="227.73,194.587 227.716,175.515 227.716,194.587 				"/>
				<rect x="227.716" y="525.321" fill="#1F1C22" width="0.021" height="20.088"/>
				<rect x="227.737" y="525.321" fill="#1F1C22" width="19.046" height="20.088"/>
				<polygon fill="#EBEAE6" points="266.913,487.146 266.913,448.179 266.913,448.158 246.814,448.158 246.814,408.983 
					227.716,408.983 227.716,330.831 207.827,330.831 188.771,330.831 188.771,350.97 169.694,350.97 169.694,468.1 188.771,468.1 
					188.771,506.223 207.795,506.223 207.795,525.321 221.635,525.321 227.716,525.321 227.737,525.321 227.737,506.223 
					246.783,506.223 246.783,525.29 266.902,525.29 266.902,545.409 285.979,545.409 285.979,487.146 				"/>
				<polygon fill="#C1C1C3" points="384.052,622.499 382.339,622.499 364.132,622.499 364.132,642.638 344.024,642.638 
					344.024,662.528 364.142,662.528 384.063,662.528 384.063,642.638 384.063,622.509 384.063,622.499 				"/>
				<polygon fill="#C1C1C3" points="384.063,622.509 403.129,622.509 403.129,545.398 384.063,545.398 384.063,622.499 				"/>
				<rect x="384.063" y="291.832" fill="#C1C1C3" width="19.057" height="156.304"/>
				<rect x="384.052" y="291.832" fill="#C1C1C3" width="0.011" height="156.304"/>
				<rect x="403.13" y="253.824" fill="#C1C1C3" width="19.067" height="38.009"/>
				<polygon fill="#C1C1C3" points="403.12,194.593 384.052,194.593 384.052,194.603 384.063,194.603 384.063,214.357 
					403.12,214.357 				"/>
				<rect x="384.052" y="194.603" fill="#C1C1C3" width="0.011" height="19.754"/>
				<rect x="364.142" y="175.515" fill="#C1C1C3" width="19.91" height="19.077"/>
				<rect x="344.024" y="662.528" fill="#C1C1C3" width="20.119" height="38.988"/>
				<rect x="364.142" y="701.515" fill="#C1C1C3" width="19.921" height="19.275"/>
				<rect x="384.063" y="720.79" fill="#C1C1C3" width="19.036" height="19.9"/>
				<polygon fill="#FFFFFF" points="332.6,467.923 324.956,467.923 324.956,487.166 332.6,487.166 344.096,487.166 344.096,467.923 
									"/>
				<rect x="481.084" y="194.593" fill="#EBEAE6" width="19.91" height="0.011"/>
				<polygon fill="#EBEAE6" points="481.084,194.593 481.084,175.515 432.568,175.515 384.052,175.515 384.052,194.593 
					403.12,194.593 403.12,214.357 384.063,214.357 384.063,253.72 403.129,253.72 403.129,253.824 422.197,253.824 
					422.197,291.832 403.129,291.832 403.12,291.832 403.12,448.138 384.063,448.138 384.063,448.168 403.129,448.168 
					403.129,545.398 403.129,622.509 384.063,622.509 384.063,642.638 432.568,642.638 481.073,642.638 481.073,622.509 
					462.007,622.509 462.007,545.398 462.007,448.168 481.073,448.168 481.073,448.138 462.017,448.138 462.017,291.832 
					462.007,291.832 442.94,291.832 442.94,253.824 462.007,253.824 462.007,253.72 481.073,253.72 481.073,214.357 
					462.017,214.357 462.017,194.593 				"/>
				<rect x="481.073" y="545.398" fill="#EBEAE6" width="0.011" height="77.101"/>
				<polygon fill="#C1C1C3" points="579.157,545.409 579.157,487.146 598.224,487.146 598.224,448.179 579.133,448.179 
					579.133,487.111 560.083,487.111 560.083,545.398 540.18,545.398 540.18,584.386 560.111,584.386 560.111,565.329 
					598.224,565.329 598.224,584.386 598.234,584.386 598.234,565.308 598.234,545.409 				"/>
				<polygon fill="#C1C1C3" points="637.399,525.321 637.399,506.223 618.353,506.223 618.353,525.29 598.234,525.29 
					598.234,545.409 618.353,545.409 618.353,525.321 				"/>
				<polygon fill="#C1C1C3" points="637.42,330.799 618.322,330.799 618.322,408.983 637.42,408.983 637.42,330.831 657.31,330.831 
					657.31,311.722 637.42,311.722 				"/>
				<rect x="598.224" y="408.983" fill="#C1C1C3" width="20.098" height="39.175"/>
				<path fill="#1F1C22" d="M657.33,214.503v-0.015h-0.042v-19.895h-19.869v-0.005h-0.014l0.014-19.072h-39.186v38.998H560.09
					v-19.91h-19.921v-19.088H521.04h-20.046v19.077v0.011h-19.91v19.754h-0.011v39.363h-19.067v0.104v38.009h0.011h19.057h0.011
					v156.304h-0.011v0.031h-19.067v97.229h19.067h0.011v77.101h1.713h18.208v20.14h20.108h19.067V622.51h19.91v-18.213h19.057
					v-6.415v-13.496h19.077v-19.057h-38.113v19.057h-19.931v-38.988h19.904v-58.287h19.049v-38.932h19.091v-0.021v-39.175h20.098
					v-78.184h19.098v-19.077h19.89v-0.708v-10.371v-46.944h19.057v-39.196H657.33z M540.18,487.166h-7.644H521.04v-19.244h11.496
					h7.644V487.166z"/>
				<rect x="598.234" y="545.409" fill="#1F1C22" width="20.119" height="19.9"/>
				<polygon fill="#EBEAE6" points="657.33,194.593 657.33,214.488 676.366,214.488 676.366,194.587 657.289,194.587 
					657.289,194.593 				"/>
				<rect x="657.289" y="194.593" fill="#EBEAE6" width="0.042" height="19.895"/>
				<polygon fill="#EBEAE6" points="560.09,194.603 560.09,214.514 598.234,214.514 598.234,175.515 637.42,175.515 637.42,194.587 
					657.289,194.587 657.289,156.521 637.406,156.521 579.41,156.521 579.41,168.795 579.41,175.515 540.169,175.515 
					540.169,194.603 				"/>
				<polygon fill="#EBEAE6" points="637.406,194.587 637.42,194.587 637.42,175.515 				"/>
				<rect x="637.399" y="525.321" fill="#1F1C22" width="0.021" height="20.088"/>
				<rect x="618.353" y="525.321" fill="#1F1C22" width="19.046" height="20.088"/>
				<polygon fill="#EBEAE6" points="676.366,350.97 676.366,330.831 657.31,330.831 637.42,330.831 637.42,408.983 618.322,408.983 
					618.322,448.158 598.224,448.158 598.224,448.179 598.224,487.146 579.157,487.146 579.157,545.409 598.234,545.409 
					598.234,525.29 618.353,525.29 618.353,506.223 637.399,506.223 637.399,525.321 637.42,525.321 643.501,525.321 
					657.341,525.321 657.341,506.223 676.366,506.223 676.366,468.1 695.443,468.1 695.443,350.97 				"/>
				<polygon fill="#C1C1C3" points="501.005,642.638 501.005,622.499 482.797,622.499 481.084,622.499 481.073,622.499 
					481.073,622.509 481.073,642.638 481.073,662.528 500.994,662.528 521.113,662.528 521.113,642.638 				"/>
				<polygon fill="#C1C1C3" points="481.073,545.398 462.007,545.398 462.007,622.509 481.073,622.509 481.073,622.499 				"/>
				<rect x="462.017" y="291.832" fill="#C1C1C3" width="19.057" height="156.304"/>
				<rect x="481.073" y="291.832" fill="#C1C1C3" width="0.011" height="156.304"/>
				<rect x="442.94" y="253.824" fill="#C1C1C3" width="19.067" height="38.009"/>
				<polygon fill="#C1C1C3" points="481.084,194.603 481.084,194.593 462.017,194.593 462.017,214.357 481.073,214.357 
					481.073,194.603 				"/>
				<rect x="481.073" y="194.603" fill="#C1C1C3" width="0.011" height="19.754"/>
				<rect x="481.084" y="175.515" fill="#C1C1C3" width="19.91" height="19.077"/>
				<rect x="500.994" y="662.528" fill="#C1C1C3" width="20.119" height="38.988"/>
				<rect x="481.073" y="701.515" fill="#C1C1C3" width="19.921" height="19.275"/>
				<rect x="462.038" y="720.79" fill="#C1C1C3" width="19.036" height="19.9"/>
				<polygon fill="#1F1C22" points="481.073,662.528 481.073,642.638 432.568,642.638 384.063,642.638 384.063,662.528 
					364.142,662.528 364.142,701.515 384.063,701.515 384.063,720.79 403.098,720.79 403.098,740.69 432.568,740.69 462.038,740.69 
					462.038,720.79 481.073,720.79 481.073,701.515 500.994,701.515 500.994,662.528 				"/>
				<polygon fill="#FFFFFF" points="532.536,467.923 521.04,467.923 521.04,487.166 532.536,487.166 540.18,487.166 540.18,467.923 
									"/>
			</g>
		</g>
	</g>
</g>
<g>
	<circle fill="#FFFFFF" cx="760.273" cy="757.902" r="234.698"/>
	<g id="Layer_2_1_">
		<g id="Layer_1-2_1_">
			<g id="Page-1">
				<g id="wbtc_colour">
					<path id="Shape" fill="#5A5562" d="M911.214,618.323l-13.139,13.139c64.982,71.063,64.982,179.973,0,251.036l13.139,13.139
						c72.297-78.42,72.297-199.201,0-277.62V618.323z"/>
					<path id="Shape-2" fill="#5A5562" d="M634.908,619.462c71.063-64.982,179.973-64.982,251.036,0l13.139-13.139
						c-78.42-72.297-199.201-72.297-277.62,0L634.908,619.462z"/>
					<path id="Shape-3" fill="#5A5562" d="M622.601,882.629c-64.902-71.044-64.902-179.861,0-250.905l-13.139-13.139
						c-72.297,78.42-72.297,199.201,0,277.62L622.601,882.629z"/>
					<path id="Shape-4" fill="#5A5562" d="M885.769,894.761c-71.063,64.982-179.973,64.982-251.036,0L621.594,907.9
						c78.42,72.297,199.201,72.297,277.62,0L885.769,894.761z"/>
					<path id="Shape-5" fill="#EE8F52" d="M843.244,713.316c-2.628-27.416-26.277-36.613-56.19-39.416v-37.752H763.93v37.051
						c-6.088,0-12.307,0-18.482,0v-37.051h-22.949v38.015h-46.905v24.745c0,0,17.08-0.307,16.818,0
						c6.401-0.704,12.21,3.788,13.139,10.161v104.058c-0.133,2.185-1.144,4.222-2.803,5.65c-1.628,1.455-3.779,2.182-5.956,2.015
						c0.307,0.263-16.818,0-16.818,0l-4.38,27.635h46.467v38.628h23.124v-38.058h18.482v37.883h23.168v-38.19
						c39.066-2.365,66.306-12,69.723-48.569c2.759-29.431-11.08-42.569-33.197-47.869
						C836.806,745.637,845.127,733.374,843.244,713.316z M810.835,795.564c0,28.73-49.226,25.445-64.905,25.445v-50.978
						C761.609,770.075,810.835,765.564,810.835,795.564z M800.105,723.739c0,26.277-41.08,23.08-54.131,23.08v-46.336
						C759.025,700.484,800.105,696.367,800.105,723.739z"/>
					<path id="Shape-6" d="M760.251,996.41c-132.137-0.024-239.236-107.162-239.211-239.299S628.201,517.876,760.339,517.9
						c132.103,0.024,239.187,107.109,239.211,239.211c0.024,132.137-107.074,239.275-239.211,239.299
						C760.309,996.41,760.28,996.41,760.251,996.41z M760.251,536.557c-121.76,0.097-220.388,98.882-220.292,220.642
						c0.097,121.76,98.882,220.388,220.642,220.292c121.658-0.097,220.243-98.721,220.292-220.379
						c0.048-121.76-98.619-220.506-220.379-220.555C760.426,536.557,760.339,536.557,760.251,536.557L760.251,536.557z"/>
				</g>
			</g>
		</g>
	</g>
</g>
</svg>
