<?xml version="1.0" encoding="utf-8"?>
<!-- Generator: Adobe Illustrator 26.0.2, SVG Export Plug-In . SVG Version: 6.00 Build 0)  -->
<svg version="1.1" id="Layer_1" xmlns="http://www.w3.org/2000/svg" xmlns:xlink="http://www.w3.org/1999/xlink" x="0px" y="0px"
	 viewBox="0 0 1000 1000" style="enable-background:new 0 0 1000 1000;" xml:space="preserve">
<style type="text/css">
	.st0{fill:#F0A240;}
	.st1{fill:#FFFFFF;}
</style>
<g>
	<g>
		<rect x="353.56" y="422.38" class="st0" width="292.36" height="266.7"/>
		<rect x="412.03" y="430.9" width="174.87" height="223.47"/>
	</g>
	<polygon class="st0" points="645.91,654.37 587.44,654.37 587.44,582.4 528.97,582.4 528.97,606.39 470.5,606.39 470.5,510.42 
		528.97,510.42 528.97,534.42 587.44,534.42 587.44,462.44 412.03,462.44 412.03,654.37 353.56,654.37 353.56,390.47 412.03,390.47 
		412.03,414.46 470.5,414.46 470.5,390.47 528.97,390.47 528.97,414.46 587.44,414.46 587.44,390.47 645.91,390.47 	"/>
	<path class="st1" d="M374.11,311.45"/>
</g>
</svg>
