<svg width="16" height="16" viewBox="0 0 16 16" fill="none" xmlns="http://www.w3.org/2000/svg">
    <path d="M9.59981 15.9991H1.60075C1.38867 16.0064 1.17734 15.9701 0.979913 15.8923C0.78248 15.8145 0.603163 15.6969 0.453112 15.5469C0.30306 15.3968 0.185484 15.2175 0.107694 15.0201C0.0299036 14.8227 -0.00643645 14.6113 0.000933297 14.3993V6.40019C-0.00643645 6.18811 0.0299036 5.97679 0.107694 5.77935C0.185484 5.58192 0.30306 5.4026 0.453112 5.25255C0.603163 5.1025 0.78248 4.98492 0.979913 4.90713C1.17734 4.82934 1.38867 4.793 1.60075 4.80037H4.80037V1.60075C4.793 1.38867 4.82934 1.17734 4.90713 0.979913C4.98492 0.78248 5.1025 0.603163 5.25255 0.453112C5.4026 0.30306 5.58192 0.185484 5.77935 0.107694C5.97679 0.0299036 6.18811 -0.00643645 6.40019 0.000933297H14.3993C14.6113 -0.00643645 14.8227 0.0299036 15.0201 0.107694C15.2175 0.185484 15.3968 0.30306 15.5469 0.453112C15.6969 0.603163 15.8145 0.78248 15.8923 0.979913C15.9701 1.17734 16.0064 1.38867 15.9991 1.60075V9.59981C16.0063 9.81186 15.9699 10.0231 15.8921 10.2205C15.8142 10.4179 15.6967 10.5972 15.5466 10.7472C15.3966 10.8972 15.2173 11.0148 15.02 11.0926C14.8226 11.1705 14.6113 11.2069 14.3993 11.1996H11.1996V14.3993C11.2069 14.6113 11.1705 14.8226 11.0926 15.02C11.0148 15.2173 10.8972 15.3966 10.7472 15.5466C10.5972 15.6967 10.4179 15.8142 10.2205 15.8921C10.0231 15.9699 9.81186 16.0063 9.59981 15.9991ZM1.60075 6.40019V14.3993H9.59981V11.1996H6.40019C6.18814 11.2069 5.97687 11.1705 5.77949 11.0926C5.58211 11.0148 5.40284 10.8972 5.25282 10.7472C5.10279 10.5972 4.98521 10.4179 4.90738 10.2205C4.82954 10.0231 4.79312 9.81186 4.80037 9.59981V6.40019H1.60075ZM6.40019 1.60075V9.59981H14.3993V1.60075H6.40019Z" fill="white"/>
</svg>
