<svg width="24" height="24" fill="none" xmlns="http://www.w3.org/2000/svg"><g clip-path="url(#a)"><path fill-rule="evenodd" clip-rule="evenodd" d="M12 24c6.627 0 12-5.373 12-12S18.627 0 12 0 0 5.373 0 12s5.373 12 12 12ZM6 7.333h1.676v8.386h4.007v1.614H6v-10Zm14 3.27c0 1.929-1.257 3.283-3.17 3.283h-2.107v3.447h-1.677v-10h3.785c1.925 0 3.169 1.314 3.169 3.27Zm-1.755-.014c0-1.094-.628-1.696-1.741-1.696h-1.781v3.433h1.754c1.153 0 1.768-.643 1.768-1.737Z" fill="#fff" fill-opacity=".87"/></g><defs><clipPath id="a"><path fill="#fff" d="M0 0h24v24H0z"/></clipPath></defs></svg>