<svg width="25" height="19" viewBox="0 0 25 19" fill="none" xmlns="http://www.w3.org/2000/svg">
    <path d="M18.49 16.4251C18.1639 15.6392 17.6906 14.9254 17.0966 14.3234C16.5044 13.7196 15.8029 13.2382 15.0308 12.9058C15.0239 12.9023 15.017 12.9005 15.0101 12.897C16.0871 12.1055 16.7872 10.8163 16.7872 9.36181C16.7872 6.95226 14.8683 5 12.5 5C10.1317 5 8.21279 6.95226 8.21279 9.36181C8.21279 10.8163 8.91292 12.1055 9.98991 12.8987C9.983 12.9023 9.97608 12.904 9.96917 12.9075C9.1947 13.2399 8.49976 13.7166 7.90336 14.3251C7.3099 14.9276 6.83675 15.6414 6.51001 16.4269C6.18903 17.1959 6.01592 18.0204 6.00004 18.8558C5.99958 18.8745 6.00282 18.8932 6.00956 18.9107C6.0163 18.9282 6.02642 18.9441 6.03931 18.9576C6.05219 18.971 6.0676 18.9817 6.08461 18.989C6.10161 18.9963 6.11988 19 6.13834 19H7.17557C7.25163 19 7.31214 18.9384 7.31386 18.8628C7.34844 17.505 7.88434 16.2334 8.83167 15.2696C9.81185 14.2724 11.1136 13.7236 12.5 13.7236C13.8864 13.7236 15.1881 14.2724 16.1683 15.2696C17.1157 16.2334 17.6516 17.505 17.6861 18.8628C17.6879 18.9402 17.7484 19 17.8244 19H18.8617C18.8801 19 18.8984 18.9963 18.9154 18.989C18.9324 18.9817 18.9478 18.971 18.9607 18.9576C18.9736 18.9441 18.9837 18.9282 18.9904 18.9107C18.9972 18.8932 19.0004 18.8745 19 18.8558C18.9827 18.0151 18.8115 17.1972 18.49 16.4251ZM12.5 12.3869C11.7065 12.3869 10.9597 12.0721 10.3979 11.5005C9.83605 10.9289 9.52662 10.1691 9.52662 9.36181C9.52662 8.55452 9.83605 7.79472 10.3979 7.22312C10.9597 6.65151 11.7065 6.33668 12.5 6.33668C13.2935 6.33668 14.0403 6.65151 14.6021 7.22312C15.1639 7.79472 15.4734 8.55452 15.4734 9.36181C15.4734 10.1691 15.1639 10.9289 14.6021 11.5005C14.0403 12.0721 13.2935 12.3869 12.5 12.3869Z" fill="white"/>
    <path d="M0.944784 0.503058C0.67033 0.533553 0.472563 0.780762 0.503058 1.05522L1 5.52769C1.03049 5.80215 1.2777 5.99991 1.55216 5.96942C1.82661 5.93892 2.02438 5.69171 1.99388 5.41726L1.55216 1.44173L5.52769 1C5.80215 0.969505 5.99991 0.722296 5.96942 0.447842C5.93892 0.173389 5.69171 -0.0243786 5.41726 0.00611627L0.944784 0.503058ZM6.31235 4.60957L1.31235 0.609566L0.687652 1.39043L5.68765 5.39043L6.31235 4.60957Z" fill="white"/>
    <path d="M24.0552 0.503058C24.3297 0.533553 24.5274 0.780762 24.4969 1.05522L24 5.52769C23.9695 5.80215 23.7223 5.99991 23.4478 5.96942C23.1734 5.93892 22.9756 5.69171 23.0061 5.41726L23.4478 1.44173L19.4723 1C19.1979 0.969505 19.0001 0.722296 19.0306 0.447842C19.0611 0.173389 19.3083 -0.0243786 19.5827 0.00611627L24.0552 0.503058ZM18.6877 4.60957L23.6877 0.609566L24.3123 1.39043L19.3123 5.39043L18.6877 4.60957Z" fill="white"/>
</svg>
