<svg width="17" height="14" viewBox="0 0 17 14" fill="none" xmlns="http://www.w3.org/2000/svg">
<path d="M14.0457 1.09199C12.988 0.587304 11.8543 0.214273 10.6687 0.00215785C10.6581 1.32257e-05 10.6472 0.0013953 10.6374 0.00611295C10.6276 0.0108306 10.6195 0.0186504 10.6141 0.0284895C10.4689 0.298388 10.3071 0.650208 10.1937 0.928152C8.9363 0.729376 7.65794 0.729376 6.4005 0.928152C6.27422 0.620117 6.13182 0.319764 5.97396 0.0284895C5.96861 0.0185293 5.96052 0.0105326 5.95076 0.00556642C5.941 0.000600261 5.93004 -0.00109921 5.91935 0.000694915C4.73444 0.212811 3.60069 0.585842 2.54229 1.09126C2.53318 1.0953 2.52546 1.10219 2.52017 1.11101C0.368802 4.45732 -0.220888 7.72097 0.0687722 10.9437C0.0695782 10.9516 0.0718938 10.9592 0.0755781 10.9661C0.0792624 10.973 0.0842383 10.9791 0.0902029 10.9839C1.3459 11.9512 2.74646 12.688 4.23324 13.1636C4.2436 13.1669 4.25469 13.1669 4.26505 13.1635C4.27541 13.1601 4.28456 13.1535 4.29131 13.1445C4.6107 12.6911 4.89552 12.212 5.13886 11.7087C5.15338 11.6795 5.13955 11.6444 5.11051 11.6327C4.66393 11.4547 4.23122 11.24 3.81638 10.9905C3.80892 10.986 3.80264 10.9796 3.7981 10.9719C3.79355 10.9642 3.79089 10.9554 3.79034 10.9463C3.78979 10.9373 3.79138 10.9282 3.79496 10.92C3.79854 10.9117 3.804 10.9045 3.81085 10.899C3.89795 10.831 3.98506 10.7601 4.06802 10.6891C4.07548 10.6827 4.08448 10.6787 4.094 10.6774C4.10352 10.6761 4.11319 10.6776 4.12194 10.6818C6.83672 11.9721 9.77687 11.9721 12.4599 10.6818C12.4686 10.6774 12.4784 10.6757 12.4881 10.6768C12.4977 10.678 12.5069 10.682 12.5145 10.6884C12.5974 10.7601 12.6838 10.831 12.7716 10.899C12.7786 10.9044 12.7841 10.9115 12.7878 10.9197C12.7915 10.9279 12.7932 10.9369 12.7928 10.9459C12.7924 10.955 12.7899 10.9638 12.7854 10.9716C12.781 10.9794 12.7749 10.9858 12.7675 10.9905C12.3541 11.2421 11.9241 11.4549 11.4727 11.6319C11.4657 11.6346 11.4594 11.6388 11.4541 11.6443C11.4489 11.6497 11.4447 11.6563 11.4421 11.6636C11.4394 11.6708 11.4382 11.6786 11.4386 11.6864C11.439 11.6942 11.4409 11.7018 11.4443 11.7087C11.6932 12.2112 11.978 12.6896 12.2912 13.1438C12.2977 13.1531 12.3068 13.1601 12.3172 13.1638C12.3275 13.1674 12.3388 13.1676 12.3492 13.1643C13.8386 12.6901 15.2414 11.9529 16.4985 10.9839C16.5046 10.9794 16.5098 10.9735 16.5136 10.9667C16.5174 10.9599 16.5198 10.9523 16.5206 10.9444C16.8663 7.21848 15.9413 3.98115 14.0672 1.11247C14.0626 1.10315 14.055 1.09588 14.0457 1.09199ZM5.54466 8.98123C4.72753 8.98123 4.0535 8.19933 4.0535 7.24042C4.0535 6.28078 4.71439 5.49961 5.54466 5.49961C6.38115 5.49961 7.04895 6.28736 7.03582 7.24042C7.03582 8.20006 6.37493 8.98123 5.54466 8.98123ZM11.0579 8.98123C10.2401 8.98123 9.56671 8.19933 9.56671 7.24042C9.56671 6.28078 10.2269 5.49961 11.0579 5.49961C11.8944 5.49961 12.5622 6.28736 12.549 7.24042C12.549 8.20006 11.8951 8.98123 11.0579 8.98123Z" fill="#A6A4A2"/>
</svg>
