<svg width="21" height="20" viewBox="0 0 21 20" fill="none" xmlns="http://www.w3.org/2000/svg">
    <path d="M18.2538 15.1163H16.6212C16.5098 15.1163 16.4053 15.1651 16.3356 15.2512C16.173 15.4488 15.9988 15.6395 15.8154 15.8209C15.065 16.5731 14.1762 17.1725 13.1982 17.5861C12.1848 18.0147 11.0957 18.2345 9.9957 18.2326C8.88332 18.2326 7.80577 18.014 6.79325 17.5861C5.81516 17.1725 4.92636 16.5731 4.17601 15.8209C3.42432 15.0713 2.82494 14.1828 2.41107 13.2047C1.98144 12.1907 1.76547 11.114 1.76547 10C1.76547 8.88607 1.98376 7.80932 2.41107 6.79537C2.82443 5.8163 3.41894 4.93491 4.17601 4.1791C4.93308 3.42329 5.81324 2.82794 6.79325 2.41398C7.80577 1.98608 8.88332 1.76747 9.9957 1.76747C11.1081 1.76747 12.1856 1.98375 13.1982 2.41398C14.1782 2.82794 15.0583 3.42329 15.8154 4.1791C15.9988 4.36282 16.1707 4.55352 16.3356 4.74886C16.4053 4.83491 16.5121 4.88375 16.6212 4.88375H18.2538C18.4001 4.88375 18.4907 4.72096 18.4094 4.5977C16.6282 1.82561 13.5117 -0.0092671 9.97015 3.52061e-05C4.40592 0.0139887 -0.0552186 4.53724 0.000516606 10.1023C0.0562518 15.5791 4.51043 20 9.9957 20C13.5279 20 16.6305 18.1674 18.4094 15.4023C18.4884 15.2791 18.4001 15.1163 18.2538 15.1163ZM20.3183 9.85351L17.023 7.24886C16.8999 7.15119 16.7211 7.23956 16.7211 7.39537V9.16281H9.42906C9.32688 9.16281 9.24327 9.24653 9.24327 9.34886V10.6512C9.24327 10.7535 9.32688 10.8372 9.42906 10.8372H16.7211V12.6047C16.7211 12.7605 16.9022 12.8488 17.023 12.7512L20.3183 10.1465C20.3405 10.1291 20.3585 10.1069 20.3708 10.0815C20.3832 10.0561 20.3896 10.0283 20.3896 10C20.3896 9.97178 20.3832 9.94391 20.3708 9.91853C20.3585 9.89315 20.3405 9.87091 20.3183 9.85351Z" fill="#FB0505"/>
</svg>
