<svg width="45" height="53" viewBox="0 0 45 53" fill="none" xmlns="http://www.w3.org/2000/svg">
    <path d="M39.8202 41.25C40.9216 38.6066 41.2169 35.6966 40.669 32.8858C40.1212 30.0751 38.7546 27.489 36.7411 25.4527C37.2952 24.0566 37.4002 22.5224 37.0417 21.0638C36.6831 19.6052 35.8788 18.2946 34.7407 17.3144L39.8589 12.1962C40.5499 11.5041 40.938 10.5661 40.938 9.58817C40.938 8.61022 40.5499 7.67225 39.8589 6.98018L34.6448 1.76606C33.9527 1.0751 33.0147 0.687012 32.0368 0.687012C31.0589 0.687012 30.1209 1.0751 29.4288 1.76606L5.14294 26.0519C4.45243 26.7442 4.06465 27.6821 4.06465 28.6599C4.06465 29.6377 4.45243 30.5756 5.14294 31.2679L10.3571 36.482C11.0491 37.173 11.9871 37.5611 12.965 37.5611C13.943 37.5611 14.881 37.173 15.573 36.482L24.3769 27.6781C25.6254 29.1219 27.3927 30.0152 29.2956 30.1644C31.1985 30.3135 33.0834 29.7063 34.5415 28.4746C36.0574 30.2088 36.9883 32.3764 37.2021 34.6698C37.4159 36.9631 36.9017 39.2655 35.7326 41.25H22.5V48.625H0.375V52.3125H44.625V41.25H39.8202ZM12.9641 33.875L7.75 28.659L11.2144 25.1964L16.4285 30.4106L12.9641 33.875ZM22.5 22.8125C22.5026 23.278 22.5495 23.7423 22.6401 24.199L19.0356 27.8035L13.8215 22.5894L32.0377 4.37312L37.25 9.58725L31.2597 15.5794C30.1931 15.3678 29.0928 15.396 28.0385 15.6621C26.9841 15.9281 26.0022 16.4253 25.1637 17.1176C24.3252 17.81 23.6513 18.6801 23.1906 19.6651C22.7298 20.65 22.494 21.7251 22.5 22.8125ZM29.875 26.5C29.1457 26.5 28.4327 26.2837 27.8263 25.8785C27.2199 25.4733 26.7473 24.8974 26.4682 24.2236C26.1891 23.5498 26.1161 22.8084 26.2584 22.0931C26.4006 21.3778 26.7518 20.7207 27.2675 20.205C27.7833 19.6893 28.4403 19.3381 29.1556 19.1958C29.8709 19.0535 30.6123 19.1266 31.2861 19.4057C31.9599 19.6848 32.5359 20.1574 32.941 20.7638C33.3462 21.3702 33.5625 22.0831 33.5625 22.8125C33.5615 23.7901 33.1727 24.7275 32.4814 25.4188C31.7901 26.1102 30.8527 26.499 29.875 26.5ZM40.9375 48.625H26.1875V44.9375H40.9375V48.625Z" fill="#C3C3C3"/>
</svg>
