<svg width="14" height="21" viewBox="0 0 14 21" fill="none" xmlns="http://www.w3.org/2000/svg">
    <path d="M6.52185 0.201163C7.02961 -0.0670544 7.80222 -0.0670544 8.30998 0.201163L13.4912 2.93807C13.797 3.09961 13.965 3.34032 13.9951 3.58881H14V17.346C13.9933 17.617 13.8237 17.8862 13.4912 18.0619L8.30998 20.7988C7.80222 21.0671 7.02961 21.0671 6.52185 20.7988L1.34063 18.0619C1.0095 17.887 0.850592 17.6158 0.842725 17.346C0.841942 17.3194 0.841844 17.2972 0.842595 17.2789L0.842562 3.67717C0.84204 3.66228 0.841991 3.6474 0.842415 3.63258L0.842725 3.58881L0.845043 3.58879C0.868056 3.33758 1.02838 3.10302 1.34063 2.93807L6.52185 0.201163ZM13.1844 11.2639L8.30998 13.8387C7.80222 14.1069 7.02961 14.1069 6.52185 13.8387L1.65814 11.2696V17.3187L6.52185 19.8743C6.7965 20.0212 7.08155 20.1642 7.36027 20.1824L7.41593 20.1842C7.70637 20.1852 7.98834 20.0377 8.27427 19.8981L13.1844 17.2967V11.2639ZM7.00804 7.57652C6.97032 7.58948 6.93497 7.60446 6.90273 7.62149L1.7215 10.3584C1.71607 10.3613 1.71088 10.3641 1.70595 10.3669L1.70156 10.3695L1.70969 10.3741L1.7215 10.3805L6.90273 13.1175C6.93497 13.1345 6.97032 13.1495 7.00804 13.1624V7.57652ZM7.82382 7.57652V13.1624C7.86154 13.1495 7.89689 13.1345 7.92911 13.1175L13.1104 10.3805C13.1158 10.3777 13.121 10.3748 13.1259 10.372L13.1303 10.3695L13.1222 10.3648L13.1104 10.3584L7.92911 7.62149C7.89689 7.60446 7.86154 7.58948 7.82382 7.57652ZM13.1844 4.5647L8.53649 7.01989L13.1844 9.47508V4.5647ZM1.65814 4.57044V9.46934L6.29523 7.01989L1.65814 4.57044ZM7.92911 0.922384C7.65967 0.780055 7.17218 0.780055 6.90273 0.922384L1.7215 3.65931C1.71607 3.66218 1.71088 3.66502 1.70595 3.66782L1.70156 3.67037L1.70969 3.67503L1.7215 3.68144L6.90273 6.41836C7.17218 6.56068 7.65967 6.56068 7.92911 6.41836L13.1104 3.68144C13.1158 3.67857 13.121 3.67573 13.1259 3.67291L13.1303 3.67037L13.1222 3.66571L13.1104 3.65931L7.92911 0.922384Z" fill="white"/>
</svg>
