<?xml version="1.0" encoding="UTF-8"?>
<svg xmlns="http://www.w3.org/2000/svg" xmlns:xlink="http://www.w3.org/1999/xlink" width="32px" height="32px" viewBox="0 0 32 32" version="1.1">
<defs>
<linearGradient id="linear0" gradientUnits="userSpaceOnUse" x1="416.5" y1="60" x2="63" y2="440.5" gradientTransform="matrix(0.064,0,0,0.064,0,0)">
<stop offset="0" style="stop-color:rgb(42.745098%,7.843137%,81.176471%);stop-opacity:1;"/>
<stop offset="1" style="stop-color:rgb(63.529412%,24.313725%,86.666667%);stop-opacity:1;"/>
</linearGradient>
<clipPath id="clip1">
  <path d="M 10.816406 9.601562 L 21.121094 9.601562 L 21.121094 21.089844 L 10.816406 21.089844 Z M 10.816406 9.601562 "/>
</clipPath>
<clipPath id="clip2">
  <path d="M 11 9.601562 L 16 9.601562 L 16 20 L 11 20 Z M 11 9.601562 "/>
</clipPath>
<clipPath id="clip3">
  <path d="M 11 9.601562 L 14 9.601562 L 14 11 L 11 11 Z M 11 9.601562 "/>
</clipPath>
<clipPath id="clip4">
  <path d="M 11 9.601562 L 12 9.601562 L 12 11 L 11 11 Z M 11 9.601562 "/>
</clipPath>
<clipPath id="clip5">
  <path d="M 10.816406 13 L 14 13 L 14 18 L 10.816406 18 Z M 10.816406 13 "/>
</clipPath>
<clipPath id="clip6">
  <path d="M 14 9.601562 L 16 9.601562 L 16 11 L 14 11 Z M 14 9.601562 "/>
</clipPath>
<clipPath id="clip7">
  <path d="M 15 20 L 16 20 L 16 21.089844 L 15 21.089844 Z M 15 20 "/>
</clipPath>
<clipPath id="clip8">
  <path d="M 15 9.601562 L 17 9.601562 L 17 20 L 15 20 Z M 15 9.601562 "/>
</clipPath>
<clipPath id="clip9">
  <path d="M 16 9.601562 L 21 9.601562 L 21 20 L 16 20 Z M 16 9.601562 "/>
</clipPath>
<clipPath id="clip10">
  <path d="M 18 9.601562 L 21 9.601562 L 21 11 L 18 11 Z M 18 9.601562 "/>
</clipPath>
<clipPath id="clip11">
  <path d="M 18 13 L 21.121094 13 L 21.121094 18 L 18 18 Z M 18 13 "/>
</clipPath>
<clipPath id="clip12">
  <path d="M 16 9.601562 L 18 9.601562 L 18 11 L 16 11 Z M 16 9.601562 "/>
</clipPath>
<clipPath id="clip13">
  <path d="M 16 20 L 17 20 L 17 21.089844 L 16 21.089844 Z M 16 20 "/>
</clipPath>
<clipPath id="clip14">
  <path d="M 14 19 L 18 19 L 18 21.089844 L 14 21.089844 Z M 14 19 "/>
</clipPath>
</defs>
<g id="surface1">
<path style=" stroke:none;fill-rule:nonzero;fill:url(#linear0);" d="M 32 16 C 32 24.835938 24.835938 32 16 32 C 7.164062 32 0 24.835938 0 16 C 0 7.164062 7.164062 0 16 0 C 24.835938 0 32 7.164062 32 16 Z M 32 16 "/>
<g clip-path="url(#clip1)" clip-rule="nonzero">
<path style=" stroke:none;fill-rule:nonzero;fill:rgb(100%,100%,100%);fill-opacity:1;" d="M 20.738281 13.425781 L 20.738281 13.03125 L 20.367188 13.03125 L 20.367188 11.519531 L 20.738281 11.519531 L 20.738281 10.75 L 20.367188 10.75 L 20.367188 10.746094 L 20.738281 10.746094 L 20.738281 10.355469 L 20.367188 10.355469 L 20.367188 9.609375 L 18.839844 9.609375 L 18.839844 9.984375 L 13.09375 9.984375 L 13.09375 9.609375 L 11.570312 9.609375 L 11.570312 10.355469 L 11.195312 10.355469 L 11.195312 10.746094 L 11.570312 10.746094 L 11.570312 10.75 L 11.195312 10.75 L 11.195312 11.519531 L 11.570312 11.519531 L 11.570312 13.03125 L 11.195312 13.03125 L 11.195312 13.425781 L 10.824219 13.425781 L 10.824219 15.726562 L 11.195312 15.726562 L 11.195312 16.476562 L 11.570312 16.476562 L 11.570312 16.851562 L 11.957031 16.851562 L 11.957031 17.246094 L 12.332031 17.246094 L 12.332031 17.636719 L 12.726562 17.636719 L 12.726562 18.011719 L 13.097656 18.011719 L 13.097656 18.402344 L 13.472656 18.402344 L 13.472656 18.757812 L 13.863281 18.757812 L 13.863281 19.152344 L 14.234375 19.152344 L 14.234375 20.308594 L 14.628906 20.308594 L 14.628906 20.6875 L 15.019531 20.6875 L 15.019531 21.078125 L 16.917969 21.078125 L 16.917969 20.6875 L 17.308594 20.6875 L 17.308594 20.308594 L 17.699219 20.308594 L 17.699219 19.152344 L 18.074219 19.152344 L 18.074219 18.757812 L 18.464844 18.757812 L 18.464844 18.402344 L 18.835938 18.402344 L 18.835938 18.011719 L 19.210938 18.011719 L 19.210938 17.636719 L 19.605469 17.636719 L 19.605469 17.246094 L 19.976562 17.246094 L 19.976562 16.851562 L 20.367188 16.851562 L 20.367188 16.476562 L 20.738281 16.476562 L 20.738281 15.726562 L 21.113281 15.726562 L 21.113281 13.425781 Z M 20.738281 13.425781 "/>
</g>
<path style=" stroke:none;fill-rule:nonzero;fill:rgb(92.156863%,91.764706%,90.196078%);fill-opacity:1;" d="M 15.03125 17.246094 L 15.019531 17.246094 L 15.019531 18.757812 L 15.03125 18.757812 Z M 15.03125 17.246094 "/>
<path style=" stroke:none;fill-rule:nonzero;fill:rgb(92.156863%,91.764706%,90.196078%);fill-opacity:1;" d="M 15.019531 10.355469 L 14.628906 10.355469 L 14.628906 10.371094 L 15.019531 10.371094 Z M 15.019531 10.355469 "/>
<path style=" stroke:none;fill-rule:nonzero;fill:rgb(75.686275%,75.686275%,76.470588%);fill-opacity:1;" d="M 11.957031 14.566406 L 12.332031 14.566406 L 12.332031 13.03125 L 11.957031 13.03125 L 11.957031 12.65625 L 11.570312 12.65625 L 11.570312 13.03125 L 11.957031 13.03125 Z M 11.957031 14.566406 "/>
<path style=" stroke:none;fill-rule:nonzero;fill:rgb(75.686275%,75.686275%,76.470588%);fill-opacity:1;" d="M 12.726562 14.566406 L 12.332031 14.566406 L 12.332031 15.335938 L 12.726562 15.335938 Z M 12.726562 14.566406 "/>
<path style=" stroke:none;fill-rule:nonzero;fill:rgb(75.686275%,75.686275%,76.470588%);fill-opacity:1;" d="M 13.472656 17.636719 L 13.472656 18.011719 L 13.863281 18.011719 L 13.863281 17.246094 L 13.472656 17.246094 L 13.472656 16.101562 L 13.097656 16.101562 L 13.097656 15.335938 L 12.726562 15.335938 L 12.726562 16.101562 L 13.097656 16.101562 L 13.097656 17.246094 L 12.726562 17.246094 L 12.726562 18.011719 L 12.726562 17.636719 Z M 13.472656 17.636719 "/>
<path style=" stroke:none;fill-rule:nonzero;fill:rgb(75.686275%,75.686275%,76.470588%);fill-opacity:1;" d="M 12.726562 16.851562 L 12.332031 16.851562 L 12.332031 16.476562 L 11.960938 16.476562 L 11.960938 16.851562 L 12.332031 16.851562 L 12.332031 17.246094 L 12.726562 17.246094 Z M 12.726562 16.851562 "/>
<g clip-path="url(#clip2)" clip-rule="nonzero">
<path style=" stroke:none;fill-rule:nonzero;fill:rgb(12.156863%,10.980392%,13.333333%);fill-opacity:1;" d="M 15.019531 11.519531 L 15.019531 10.359375 L 14.628906 10.359375 L 14.628906 9.984375 L 13.863281 9.984375 L 13.863281 10.359375 L 13.472656 10.359375 L 13.472656 10.75 L 12.726562 10.75 L 12.726562 9.984375 L 11.957031 9.984375 L 11.960938 10.355469 L 11.570312 10.355469 L 11.570312 10.75 L 11.195312 10.75 L 11.195312 11.519531 L 11.570312 11.519531 L 11.570312 12.65625 L 11.957031 12.65625 L 11.957031 13.03125 L 12.332031 13.03125 L 12.332031 14.566406 L 12.726562 14.566406 L 12.726562 15.335938 L 13.097656 15.335938 L 13.097656 16.101562 L 13.472656 16.101562 L 13.472656 17.246094 L 13.863281 17.246094 L 13.863281 18.011719 L 13.472656 18.011719 L 13.472656 17.636719 L 12.726562 17.636719 L 12.726562 18.011719 L 13.097656 18.011719 L 13.097656 18.402344 L 13.472656 18.402344 L 13.472656 18.757812 L 13.863281 18.757812 L 13.863281 19.152344 L 14.628906 19.152344 L 14.628906 18.757812 L 15.019531 18.757812 L 15.019531 17.246094 L 15.390625 17.246094 L 15.390625 15.335938 L 15.019531 15.335938 L 15.019531 12.265625 L 15.390625 12.265625 L 15.390625 11.519531 Z M 14.238281 16.101562 L 13.863281 16.101562 L 13.863281 15.722656 L 14.238281 15.722656 Z M 14.238281 16.101562 "/>
</g>
<path style=" stroke:none;fill-rule:nonzero;fill:rgb(12.156863%,10.980392%,13.333333%);fill-opacity:1;" d="M 12.726562 17.246094 L 12.332031 17.246094 L 12.332031 17.636719 L 12.726562 17.636719 Z M 12.726562 17.246094 "/>
<path style=" stroke:none;fill-rule:nonzero;fill:rgb(92.156863%,91.764706%,90.196078%);fill-opacity:1;" d="M 11.570312 10.355469 L 11.195312 10.355469 L 11.195312 10.746094 L 11.570312 10.746094 Z M 11.570312 10.355469 "/>
<path style=" stroke:none;fill-rule:nonzero;fill:rgb(92.156863%,91.764706%,90.196078%);fill-opacity:1;" d="M 11.582031 10.355469 L 11.570312 10.355469 L 11.570312 10.746094 L 11.582031 10.746094 Z M 11.582031 10.355469 "/>
<g clip-path="url(#clip3)" clip-rule="nonzero">
<path style=" stroke:none;fill-rule:nonzero;fill:rgb(92.156863%,91.764706%,90.196078%);fill-opacity:1;" d="M 11.957031 9.984375 L 12.726562 9.984375 L 12.726562 10.75 L 13.472656 10.75 L 13.472656 10.359375 L 13.863281 10.359375 L 13.863281 9.984375 L 13.09375 9.984375 L 13.09375 9.609375 L 11.570312 9.609375 L 11.570312 10.355469 L 11.957031 10.355469 Z M 11.957031 9.984375 "/>
</g>
<g clip-path="url(#clip4)" clip-rule="nonzero">
<path style=" stroke:none;fill-rule:nonzero;fill:rgb(92.156863%,91.764706%,90.196078%);fill-opacity:1;" d="M 11.960938 10.355469 L 11.957031 9.984375 L 11.957031 10.355469 Z M 11.960938 10.355469 "/>
</g>
<path style=" stroke:none;fill-rule:nonzero;fill:rgb(12.156863%,10.980392%,13.333333%);fill-opacity:1;" d="M 11.972656 16.851562 L 11.957031 16.851562 L 11.957031 17.246094 L 11.972656 17.246094 Z M 11.972656 16.851562 "/>
<path style=" stroke:none;fill-rule:nonzero;fill:rgb(12.156863%,10.980392%,13.333333%);fill-opacity:1;" d="M 12.332031 16.851562 L 11.960938 16.851562 L 11.960938 17.246094 L 12.332031 17.246094 Z M 12.332031 16.851562 "/>
<g clip-path="url(#clip5)" clip-rule="nonzero">
<path style=" stroke:none;fill-rule:nonzero;fill:rgb(92.156863%,91.764706%,90.196078%);fill-opacity:1;" d="M 12.726562 16.101562 L 12.726562 15.335938 L 12.332031 15.335938 L 12.332031 14.566406 L 11.957031 14.566406 L 11.957031 13.03125 L 11.195312 13.03125 L 11.195312 13.425781 L 10.824219 13.425781 L 10.824219 15.726562 L 11.195312 15.726562 L 11.195312 16.476562 L 11.570312 16.476562 L 11.570312 16.851562 L 11.960938 16.851562 L 11.960938 16.476562 L 12.332031 16.476562 L 12.332031 16.851562 L 12.726562 16.851562 L 12.726562 17.246094 L 13.097656 17.246094 L 13.097656 16.101562 Z M 12.726562 16.101562 "/>
</g>
<path style=" stroke:none;fill-rule:nonzero;fill:rgb(75.686275%,75.686275%,76.470588%);fill-opacity:1;" d="M 15.019531 18.757812 L 14.628906 18.757812 L 14.628906 19.152344 L 14.234375 19.152344 L 14.234375 19.542969 L 15.019531 19.542969 Z M 15.019531 18.757812 "/>
<path style=" stroke:none;fill-rule:nonzero;fill:rgb(75.686275%,75.686275%,76.470588%);fill-opacity:1;" d="M 15.019531 18.757812 L 15.390625 18.757812 L 15.390625 17.246094 L 15.019531 17.246094 Z M 15.019531 18.757812 "/>
<path style=" stroke:none;fill-rule:nonzero;fill:rgb(75.686275%,75.686275%,76.470588%);fill-opacity:1;" d="M 15.390625 12.265625 L 15.019531 12.265625 L 15.019531 15.335938 L 15.390625 15.335938 Z M 15.390625 12.265625 "/>
<path style=" stroke:none;fill-rule:nonzero;fill:rgb(75.686275%,75.686275%,76.470588%);fill-opacity:1;" d="M 15.03125 12.265625 L 15.019531 12.265625 L 15.019531 15.335938 L 15.03125 15.335938 Z M 15.03125 12.265625 "/>
<path style=" stroke:none;fill-rule:nonzero;fill:rgb(75.686275%,75.686275%,76.470588%);fill-opacity:1;" d="M 15.765625 11.519531 L 15.390625 11.519531 L 15.390625 12.265625 L 15.765625 12.265625 Z M 15.765625 11.519531 "/>
<path style=" stroke:none;fill-rule:nonzero;fill:rgb(75.686275%,75.686275%,76.470588%);fill-opacity:1;" d="M 15.390625 10.355469 L 15.019531 10.355469 L 15.019531 10.746094 L 15.390625 10.746094 Z M 15.390625 10.355469 "/>
<path style=" stroke:none;fill-rule:nonzero;fill:rgb(75.686275%,75.686275%,76.470588%);fill-opacity:1;" d="M 15.03125 10.359375 L 15.019531 10.359375 L 15.019531 10.746094 L 15.03125 10.746094 Z M 15.03125 10.359375 "/>
<g clip-path="url(#clip6)" clip-rule="nonzero">
<path style=" stroke:none;fill-rule:nonzero;fill:rgb(75.686275%,75.686275%,76.470588%);fill-opacity:1;" d="M 15.019531 9.984375 L 14.628906 9.984375 L 14.628906 10.355469 L 15.019531 10.355469 Z M 15.019531 9.984375 "/>
</g>
<path style=" stroke:none;fill-rule:nonzero;fill:rgb(75.686275%,75.686275%,76.470588%);fill-opacity:1;" d="M 14.628906 19.542969 L 14.234375 19.542969 L 14.234375 20.308594 L 14.628906 20.308594 Z M 14.628906 19.542969 "/>
<path style=" stroke:none;fill-rule:nonzero;fill:rgb(75.686275%,75.686275%,76.470588%);fill-opacity:1;" d="M 15.019531 20.308594 L 14.628906 20.308594 L 14.628906 20.6875 L 15.019531 20.6875 Z M 15.019531 20.308594 "/>
<g clip-path="url(#clip7)" clip-rule="nonzero">
<path style=" stroke:none;fill-rule:nonzero;fill:rgb(75.686275%,75.686275%,76.470588%);fill-opacity:1;" d="M 15.390625 20.6875 L 15.019531 20.6875 L 15.019531 21.078125 L 15.390625 21.078125 Z M 15.390625 20.6875 "/>
</g>
<path style=" stroke:none;fill-rule:nonzero;fill:rgb(100%,100%,100%);fill-opacity:1;" d="M 14.011719 15.722656 L 13.863281 15.722656 L 13.863281 16.101562 L 14.238281 16.101562 L 14.238281 15.722656 Z M 14.011719 15.722656 "/>
<path style=" stroke:none;fill-rule:nonzero;fill:rgb(92.156863%,91.764706%,90.196078%);fill-opacity:1;" d="M 17.308594 10.355469 L 16.917969 10.355469 L 16.917969 10.371094 L 17.308594 10.371094 Z M 17.308594 10.355469 "/>
<g clip-path="url(#clip8)" clip-rule="nonzero">
<path style=" stroke:none;fill-rule:nonzero;fill:rgb(92.156863%,91.764706%,90.196078%);fill-opacity:1;" d="M 16.917969 10.355469 L 16.917969 9.984375 L 15.019531 9.984375 L 15.019531 10.355469 L 15.390625 10.355469 L 15.390625 10.746094 L 15.019531 10.746094 L 15.019531 11.519531 L 15.765625 11.519531 L 15.765625 12.265625 L 15.390625 12.265625 L 15.390625 15.335938 L 15.019531 15.335938 L 15.390625 15.335938 L 15.390625 18.757812 L 15.019531 18.757812 L 15.019531 19.152344 L 16.917969 19.152344 L 16.917969 18.757812 L 16.542969 18.757812 L 16.542969 15.335938 L 16.917969 15.335938 L 16.542969 15.335938 L 16.542969 12.265625 L 16.171875 12.265625 L 16.171875 11.519531 L 16.917969 11.519531 L 16.917969 10.746094 L 16.542969 10.746094 L 16.542969 10.355469 Z M 16.917969 10.355469 "/>
</g>
<path style=" stroke:none;fill-rule:nonzero;fill:rgb(92.156863%,91.764706%,90.196078%);fill-opacity:1;" d="M 16.929688 17.246094 L 16.917969 17.246094 L 16.917969 18.757812 L 16.929688 18.757812 Z M 16.929688 17.246094 "/>
<path style=" stroke:none;fill-rule:nonzero;fill:rgb(75.686275%,75.686275%,76.470588%);fill-opacity:1;" d="M 18.835938 17.246094 L 18.835938 16.101562 L 19.210938 16.101562 L 19.210938 15.335938 L 18.835938 15.335938 L 18.835938 16.101562 L 18.464844 16.101562 L 18.464844 17.246094 L 18.074219 17.246094 L 18.074219 18.011719 L 18.464844 18.011719 L 18.464844 17.636719 L 19.210938 17.636719 L 19.210938 18.011719 L 19.210938 17.246094 Z M 18.835938 17.246094 "/>
<path style=" stroke:none;fill-rule:nonzero;fill:rgb(75.686275%,75.686275%,76.470588%);fill-opacity:1;" d="M 19.976562 16.851562 L 19.976562 16.476562 L 19.605469 16.476562 L 19.605469 16.851562 L 19.210938 16.851562 L 19.210938 17.246094 L 19.605469 17.246094 L 19.605469 16.851562 Z M 19.976562 16.851562 "/>
<path style=" stroke:none;fill-rule:nonzero;fill:rgb(75.686275%,75.686275%,76.470588%);fill-opacity:1;" d="M 19.976562 13.03125 L 19.601562 13.03125 L 19.601562 14.566406 L 19.976562 14.566406 L 19.976562 13.03125 L 20.367188 13.03125 L 20.367188 12.65625 L 19.976562 12.65625 Z M 19.976562 13.03125 "/>
<path style=" stroke:none;fill-rule:nonzero;fill:rgb(75.686275%,75.686275%,76.470588%);fill-opacity:1;" d="M 19.601562 14.566406 L 19.210938 14.566406 L 19.210938 15.335938 L 19.601562 15.335938 Z M 19.601562 14.566406 "/>
<g clip-path="url(#clip9)" clip-rule="nonzero">
<path style=" stroke:none;fill-rule:nonzero;fill:rgb(12.156863%,10.980392%,13.333333%);fill-opacity:1;" d="M 20.367188 10.75 L 20.367188 10.355469 L 19.976562 10.355469 L 19.976562 9.984375 L 19.210938 9.984375 L 19.210938 10.75 L 18.464844 10.75 L 18.464844 10.359375 L 18.074219 10.359375 L 18.074219 9.984375 L 17.308594 9.984375 L 17.308594 10.359375 L 16.917969 10.359375 L 16.917969 11.519531 L 16.542969 11.519531 L 16.542969 12.265625 L 16.917969 12.265625 L 16.917969 15.335938 L 16.542969 15.335938 L 16.542969 17.246094 L 16.917969 17.246094 L 16.917969 18.757812 L 17.308594 18.757812 L 17.308594 19.152344 L 18.074219 19.152344 L 18.074219 18.757812 L 18.464844 18.757812 L 18.464844 18.402344 L 18.835938 18.402344 L 18.835938 18.011719 L 19.210938 18.011719 L 19.210938 17.636719 L 18.464844 17.636719 L 18.464844 18.011719 L 18.074219 18.011719 L 18.074219 17.246094 L 18.464844 17.246094 L 18.464844 16.101562 L 18.835938 16.101562 L 18.835938 15.335938 L 19.210938 15.335938 L 19.210938 14.566406 L 19.601562 14.566406 L 19.601562 13.03125 L 19.976562 13.03125 L 19.976562 12.65625 L 20.367188 12.65625 L 20.367188 11.519531 L 20.738281 11.519531 L 20.738281 10.75 Z M 18.074219 16.101562 L 17.699219 16.101562 L 17.699219 15.722656 L 18.074219 15.722656 Z M 18.074219 16.101562 "/>
</g>
<path style=" stroke:none;fill-rule:nonzero;fill:rgb(12.156863%,10.980392%,13.333333%);fill-opacity:1;" d="M 19.605469 17.246094 L 19.210938 17.246094 L 19.210938 17.636719 L 19.605469 17.636719 Z M 19.605469 17.246094 "/>
<path style=" stroke:none;fill-rule:nonzero;fill:rgb(92.156863%,91.764706%,90.196078%);fill-opacity:1;" d="M 20.367188 10.355469 L 20.367188 10.746094 L 20.738281 10.746094 L 20.738281 10.355469 Z M 20.367188 10.355469 "/>
<path style=" stroke:none;fill-rule:nonzero;fill:rgb(92.156863%,91.764706%,90.196078%);fill-opacity:1;" d="M 20.378906 10.355469 L 20.367188 10.355469 L 20.367188 10.746094 L 20.378906 10.746094 Z M 20.378906 10.355469 "/>
<g clip-path="url(#clip10)" clip-rule="nonzero">
<path style=" stroke:none;fill-rule:nonzero;fill:rgb(92.156863%,91.764706%,90.196078%);fill-opacity:1;" d="M 18.464844 10.359375 L 18.464844 10.75 L 19.210938 10.75 L 19.210938 9.984375 L 19.976562 9.984375 L 19.976562 10.355469 L 20.367188 10.355469 L 20.367188 9.609375 L 18.839844 9.609375 L 18.839844 9.984375 L 18.074219 9.984375 L 18.074219 10.359375 Z M 18.464844 10.359375 "/>
</g>
<path style=" stroke:none;fill-rule:nonzero;fill:rgb(12.156863%,10.980392%,13.333333%);fill-opacity:1;" d="M 19.988281 16.851562 L 19.976562 16.851562 L 19.976562 17.246094 L 19.988281 17.246094 Z M 19.988281 16.851562 "/>
<path style=" stroke:none;fill-rule:nonzero;fill:rgb(12.156863%,10.980392%,13.333333%);fill-opacity:1;" d="M 19.976562 16.851562 L 19.605469 16.851562 L 19.605469 17.246094 L 19.976562 17.246094 Z M 19.976562 16.851562 "/>
<g clip-path="url(#clip11)" clip-rule="nonzero">
<path style=" stroke:none;fill-rule:nonzero;fill:rgb(92.156863%,91.764706%,90.196078%);fill-opacity:1;" d="M 20.738281 13.425781 L 20.738281 13.03125 L 19.976562 13.03125 L 19.976562 14.566406 L 19.601562 14.566406 L 19.601562 15.335938 L 19.210938 15.335938 L 19.210938 16.101562 L 18.835938 16.101562 L 18.835938 17.246094 L 19.210938 17.246094 L 19.210938 16.851562 L 19.605469 16.851562 L 19.605469 16.476562 L 19.976562 16.476562 L 19.976562 16.851562 L 20.367188 16.851562 L 20.367188 16.476562 L 20.738281 16.476562 L 20.738281 15.726562 L 21.113281 15.726562 L 21.113281 13.425781 Z M 20.738281 13.425781 "/>
</g>
<path style=" stroke:none;fill-rule:nonzero;fill:rgb(75.686275%,75.686275%,76.470588%);fill-opacity:1;" d="M 17.308594 19.152344 L 17.308594 18.757812 L 16.917969 18.757812 L 16.917969 19.542969 L 17.699219 19.542969 L 17.699219 19.152344 Z M 17.308594 19.152344 "/>
<path style=" stroke:none;fill-rule:nonzero;fill:rgb(75.686275%,75.686275%,76.470588%);fill-opacity:1;" d="M 16.917969 17.246094 L 16.542969 17.246094 L 16.542969 18.757812 L 16.917969 18.757812 Z M 16.917969 17.246094 "/>
<path style=" stroke:none;fill-rule:nonzero;fill:rgb(75.686275%,75.686275%,76.470588%);fill-opacity:1;" d="M 16.917969 12.265625 L 16.542969 12.265625 L 16.542969 15.335938 L 16.917969 15.335938 Z M 16.917969 12.265625 "/>
<path style=" stroke:none;fill-rule:nonzero;fill:rgb(75.686275%,75.686275%,76.470588%);fill-opacity:1;" d="M 16.929688 12.265625 L 16.917969 12.265625 L 16.917969 15.335938 L 16.929688 15.335938 Z M 16.929688 12.265625 "/>
<path style=" stroke:none;fill-rule:nonzero;fill:rgb(75.686275%,75.686275%,76.470588%);fill-opacity:1;" d="M 16.542969 11.519531 L 16.171875 11.519531 L 16.171875 12.265625 L 16.542969 12.265625 Z M 16.542969 11.519531 "/>
<path style=" stroke:none;fill-rule:nonzero;fill:rgb(75.686275%,75.686275%,76.470588%);fill-opacity:1;" d="M 16.917969 10.359375 L 16.917969 10.355469 L 16.542969 10.355469 L 16.542969 10.746094 L 16.917969 10.746094 Z M 16.917969 10.359375 "/>
<path style=" stroke:none;fill-rule:nonzero;fill:rgb(75.686275%,75.686275%,76.470588%);fill-opacity:1;" d="M 16.929688 10.359375 L 16.917969 10.359375 L 16.917969 10.746094 L 16.929688 10.746094 Z M 16.929688 10.359375 "/>
<g clip-path="url(#clip12)" clip-rule="nonzero">
<path style=" stroke:none;fill-rule:nonzero;fill:rgb(75.686275%,75.686275%,76.470588%);fill-opacity:1;" d="M 17.308594 9.984375 L 16.917969 9.984375 L 16.917969 10.355469 L 17.308594 10.355469 Z M 17.308594 9.984375 "/>
</g>
<path style=" stroke:none;fill-rule:nonzero;fill:rgb(75.686275%,75.686275%,76.470588%);fill-opacity:1;" d="M 17.699219 19.542969 L 17.308594 19.542969 L 17.308594 20.308594 L 17.699219 20.308594 Z M 17.699219 19.542969 "/>
<path style=" stroke:none;fill-rule:nonzero;fill:rgb(75.686275%,75.686275%,76.470588%);fill-opacity:1;" d="M 17.308594 20.308594 L 16.917969 20.308594 L 16.917969 20.6875 L 17.308594 20.6875 Z M 17.308594 20.308594 "/>
<g clip-path="url(#clip13)" clip-rule="nonzero">
<path style=" stroke:none;fill-rule:nonzero;fill:rgb(75.686275%,75.686275%,76.470588%);fill-opacity:1;" d="M 16.917969 20.6875 L 16.542969 20.6875 L 16.542969 21.078125 L 16.917969 21.078125 Z M 16.917969 20.6875 "/>
</g>
<g clip-path="url(#clip14)" clip-rule="nonzero">
<path style=" stroke:none;fill-rule:nonzero;fill:rgb(12.156863%,10.980392%,13.333333%);fill-opacity:1;" d="M 16.917969 19.542969 L 16.917969 19.152344 L 15.019531 19.152344 L 15.019531 19.542969 L 14.628906 19.542969 L 14.628906 20.308594 L 15.019531 20.308594 L 15.019531 20.6875 L 15.390625 20.6875 L 15.390625 21.078125 L 16.542969 21.078125 L 16.542969 20.6875 L 16.917969 20.6875 L 16.917969 20.308594 L 17.308594 20.308594 L 17.308594 19.542969 Z M 16.917969 19.542969 "/>
</g>
<path style=" stroke:none;fill-rule:nonzero;fill:rgb(100%,100%,100%);fill-opacity:1;" d="M 17.925781 15.722656 L 17.699219 15.722656 L 17.699219 16.101562 L 18.074219 16.101562 L 18.074219 15.722656 Z M 17.925781 15.722656 "/>
<path style=" stroke:none;fill-rule:nonzero;fill:rgb(100%,100%,100%);fill-opacity:1;" d="M 24.734375 14.941406 C 24.511719 14.894531 24.28125 14.847656 24.042969 14.804688 C 23.976562 14.257812 23.855469 13.722656 23.691406 13.214844 C 26.792969 13.714844 28.800781 14.507812 28.800781 15.402344 C 28.800781 15.410156 28.800781 15.421875 28.800781 15.429688 C 28.726562 16.929688 23.023438 18.136719 16 18.136719 C 8.929688 18.136719 3.199219 16.914062 3.199219 15.402344 C 3.199219 15.390625 3.199219 15.382812 3.199219 15.375 C 3.242188 14.480469 5.285156 13.6875 8.417969 13.195312 C 8.25 13.707031 8.132812 14.238281 8.0625 14.785156 C 7.785156 14.835938 7.519531 14.886719 7.265625 14.941406 C 6.933594 15.011719 6.632812 15.085938 6.355469 15.160156 C 6.0625 15.242188 5.800781 15.320312 5.570312 15.402344 C 6.015625 15.558594 6.582031 15.714844 7.265625 15.859375 C 7.5 15.910156 7.742188 15.957031 7.992188 16.003906 C 10.113281 16.386719 12.90625 16.628906 16 16.628906 C 19.144531 16.628906 21.980469 16.378906 24.109375 15.984375 C 24.324219 15.945312 24.53125 15.902344 24.734375 15.859375 C 25.417969 15.714844 25.984375 15.554688 26.429688 15.402344 C 25.984375 15.246094 25.417969 15.089844 24.734375 14.941406 Z M 24.734375 14.941406 "/>
<path style=" stroke:none;fill-rule:nonzero;fill:rgb(100%,100%,100%);fill-opacity:1;" d="M 25.644531 10.679688 C 25.644531 10.675781 25.644531 10.667969 25.644531 10.660156 C 25.644531 9.851562 23.5 9.15625 20.375 8.8125 C 21.121094 9.308594 21.78125 9.921875 22.332031 10.636719 C 22.371094 10.644531 22.414062 10.652344 22.453125 10.660156 C 22.421875 10.667969 22.394531 10.671875 22.363281 10.679688 C 20.773438 11.007812 18.550781 11.21875 16.058594 11.21875 C 13.558594 11.21875 11.332031 11.003906 9.738281 10.675781 L 9.742188 10.675781 C 9.714844 10.671875 9.691406 10.664062 9.664062 10.660156 C 9.699219 10.652344 9.734375 10.644531 9.769531 10.636719 C 10.320312 9.925781 10.980469 9.308594 11.722656 8.816406 C 8.609375 9.15625 6.472656 9.855469 6.472656 10.660156 C 6.472656 11.667969 11.113281 12.46875 14.242188 12.691406 C 14.941406 12.742188 16.039062 12.742188 16.039062 12.742188 C 16.425781 12.761719 17.128906 12.742188 17.824219 12.691406 C 20.972656 12.476562 25.597656 11.683594 25.644531 10.679688 Z M 25.644531 10.679688 "/>
<path style=" stroke:none;fill-rule:nonzero;fill:rgb(100%,100%,100%);fill-opacity:1;" d="M 6.472656 21.117188 C 6.472656 20.589844 7.386719 20.109375 8.894531 19.746094 C 9.132812 20.226562 9.417969 20.679688 9.738281 21.101562 C 9.714844 21.109375 9.691406 21.113281 9.664062 21.117188 C 9.699219 21.125 9.734375 21.132812 9.769531 21.140625 C 9.769531 21.144531 9.773438 21.144531 9.773438 21.148438 L 9.808594 21.148438 C 11.398438 21.46875 13.59375 21.675781 16.058594 21.675781 C 18.519531 21.675781 20.71875 21.46875 22.308594 21.148438 L 22.328125 21.148438 C 22.328125 21.148438 22.332031 21.144531 22.332031 21.144531 C 22.371094 21.136719 22.414062 21.125 22.453125 21.117188 C 22.421875 21.113281 22.394531 21.105469 22.367188 21.101562 C 22.6875 20.679688 22.972656 20.222656 23.210938 19.742188 C 24.722656 20.109375 25.644531 20.589844 25.644531 21.117188 C 25.644531 21.128906 25.644531 21.136719 25.644531 21.148438 C 25.570312 22.277344 21.304688 23.1875 16.058594 23.1875 C 10.8125 23.1875 6.546875 22.277344 6.472656 21.148438 C 6.472656 21.136719 6.472656 21.128906 6.472656 21.117188 Z M 6.472656 21.117188 "/>
</g>
</svg>
