<svg width="36" height="36" viewBox="0 0 36 36" fill="none" xmlns="http://www.w3.org/2000/svg">
<circle cx="18" cy="18" r="18" fill="url(#paint0_linear_202_203)"/>
<g clip-path="url(#clip0_202_203)">
<path d="M23.3317 15.1059V14.6611H22.9122V14.239V14.2234V13.9943V12.9574H23.3317V12.0917H22.9126V12.0914H23.3317V11.6518H22.9117V10.811H22.4739H21.197V11.0821V11.2306H20.3331H19.9119H19.4706H19.0322H17.964H16.8958H16.4575H16.0161H15.5949H14.731V11.0821V10.811H13.4541H13.0163V11.6518H12.5963V12.0914H13.0154V12.0917H12.5963V12.9574H13.0159V13.9943V14.2234V14.239V14.6611H12.5963V15.1059H12.1763V17.693H12.5963V18.5351H13.0152V18.9569H13.3199H13.4538V19.4006H13.4542H13.8736V19.8401H14.3165V20.2615H14.3168H14.7368V20.5595V20.7012H15.1563V21.1035H15.5947V21.5481H16.0145V21.9874V22.8486H16.4575V23.2743H16.8961V23.7138H17.3152H17.964H18.6129H19.032V23.2743H19.4706V22.8486H19.9135V21.9874V21.5481H20.3333V21.1035H20.7717V20.7012H21.1913V20.5595V20.2615H21.6113H21.6115V19.8401H22.0545V19.4006H22.4738H22.4743V18.9569H22.6081H22.9129V18.5351H23.3317V17.693H23.7518V15.1059H23.3317Z" fill="white"/>
<path d="M16.9107 19.3999H16.896V21.1029H16.9107V19.3999Z" fill="#EBEAE6"/>
<path d="M16.8959 11.6519H16.4575V11.6666H16.8959V11.6519Z" fill="#EBEAE6"/>
<path d="M13.4535 16.387H13.874V14.6601H13.4535V14.2388H13.0156V14.6608H13.4535V16.387Z" fill="#C1C1C3"/>
<path d="M14.3165 16.3872H13.874V17.2525H14.3165V16.3872Z" fill="#C1C1C3"/>
<path d="M15.1558 19.8405V20.2614H15.5946V19.4003H15.1564V18.1128H14.737V17.2529H14.3166V18.1136H14.7364V19.4005H14.3164V19.84V20.2614H14.3166V19.8405H15.1558Z" fill="#C1C1C3"/>
<path d="M14.3164 18.9558H13.8734V18.5347H13.4541V18.9565H13.8734V19.4002H14.3164V18.9558Z" fill="#C1C1C3"/>
<path d="M16.896 12.9578V12.0884H16.8958V11.6521H16.4574V11.6518V11.2305H16.016H15.5949V11.6521H15.1563V12.0918H14.3164V11.2305H13.4537L13.454 11.6517H13.4537V11.6518H13.0162V12.0913H13.0153V12.0916H12.5962V12.9574H13.0158V13.9942V14.2233V14.2389H13.4537V14.6603H13.8742V16.3872H14.3166V17.2525V17.2529H14.737V18.1128H15.1564V19.4002H15.5946V20.2614H15.1558V19.8405H14.3166V20.2614H14.7367V20.5595V20.7011H15.1562V21.1034H15.5946V21.548H16.0144H16.4571V21.1032H16.858H16.8957V19.4002H16.896H17.3158V17.2527H16.896V17.252H16.8957V13.7996H16.896H17.3155H17.3158V12.9601V12.9578H16.896ZM16.016 18.114H15.7629H15.5946V17.689H15.7629H16.016V18.114Z" fill="#1F1C22"/>
<path d="M14.3165 19.4004H13.8735V19.8399H14.3165V19.4004Z" fill="#1F1C22"/>
<path d="M13.0162 11.652V11.6519H12.5962V12.0914H13.0153V11.652H13.0162Z" fill="#EBEAE6"/>
<path d="M13.0298 11.6519H13.0151V12.0913H13.0298V11.6519Z" fill="#EBEAE6"/>
<path d="M13.4536 11.2306H14.3163V12.0919H15.1561V11.6522H15.5947V11.2306H14.7308V11.0821V10.811H13.4539H13.0161V11.6518H13.4536V11.2306Z" fill="#EBEAE6"/>
<path d="M13.4539 11.6517L13.4536 11.2305V11.6517H13.4539Z" fill="#EBEAE6"/>
<path d="M13.4683 18.9565H13.4536V19.4002H13.4683V18.9565Z" fill="#1F1C22"/>
<path d="M13.8734 18.9565H13.4541V19.4002H13.8734V18.9565Z" fill="#1F1C22"/>
<path d="M14.3168 18.1137V17.2531V17.2526H13.8742V16.3873H13.4538V14.6611H13.0159H12.5963V15.106H12.1763V17.6931H12.5963V18.5351H13.0152V18.9569H13.3199H13.4538H13.4542V18.5351H13.8736V18.9562H14.3165V19.4006H14.7365V18.1137H14.3168Z" fill="#EBEAE6"/>
<path d="M16.896 21.103H16.8583H16.4574V21.5478H16.0146V21.9872H16.4576H16.8962V21.5478V21.1032V21.103H16.896Z" fill="#C1C1C3"/>
<path d="M16.896 21.1031H17.3158V19.3999H16.896V21.1029V21.1031Z" fill="#C1C1C3"/>
<path d="M17.3156 13.7993H16.896V17.2517H17.3156V13.7993Z" fill="#C1C1C3"/>
<path d="M16.9107 13.7993H16.896V17.2517H16.9107V13.7993Z" fill="#C1C1C3"/>
<path d="M17.7357 12.96H17.3159V13.7995H17.7357V12.96Z" fill="#C1C1C3"/>
<path d="M17.3158 11.6519H16.896V11.6521H16.8962V12.0884H17.3158V11.6519Z" fill="#C1C1C3"/>
<path d="M16.9107 11.6519H16.896V12.0882H16.9107V11.6519Z" fill="#C1C1C3"/>
<path d="M16.8959 11.2305H16.4575V11.6518H16.8959V11.2305Z" fill="#C1C1C3"/>
<path d="M16.4576 21.9873H16.0146V22.8484H16.4576V21.9873Z" fill="#C1C1C3"/>
<path d="M16.8961 22.8481H16.4575V23.2739H16.8961V22.8481Z" fill="#C1C1C3"/>
<path d="M17.3151 23.2739H16.896V23.7135H17.3151V23.2739Z" fill="#C1C1C3"/>
<path d="M15.763 17.689H15.5947V18.114H15.763H16.0161V17.689H15.763Z" fill="white"/>
<path d="M19.4706 11.6519H19.0322V11.6666H19.4706V11.6519Z" fill="#EBEAE6"/>
<path d="M19.0324 11.6518V11.2305H17.9642H16.896V11.6518H17.3158V12.0884H16.8962V12.9578H17.316V12.9601H17.7358V13.7996H17.316H17.3158V17.252H16.8962V17.2527H17.316V19.4002V21.1034H16.8962V21.548H17.9642H19.0321V21.1034H18.6123V19.4002V17.2527H19.0321V17.252H18.6126V13.7996H18.6123H18.1925V12.9601H18.6123V12.9578H19.0321V12.0884H18.6126V11.6518H19.0324Z" fill="#EBEAE6"/>
<path d="M19.0464 19.3999H19.0317V21.1029H19.0464V19.3999Z" fill="#EBEAE6"/>
<path d="M21.1917 19.4005V18.1136H21.6115V17.2529H21.1911V18.1128H20.7717V19.4003H20.3335V20.2614H20.7723V19.8405H21.6115V20.2614H21.6117V19.84V19.4005H21.1917Z" fill="#C1C1C3"/>
<path d="M22.4736 18.9565V18.5347H22.0543V18.9558H21.6113V19.4002H22.0543V18.9565H22.4736Z" fill="#C1C1C3"/>
<path d="M22.4742 14.6601H22.0537V16.387H22.4742V14.6608H22.9121V14.2388H22.4742V14.6601Z" fill="#C1C1C3"/>
<path d="M22.0538 16.3872H21.6113V17.2525H22.0538V16.3872Z" fill="#C1C1C3"/>
<path d="M22.9128 12.0916V12.0913H22.9118V11.6518H22.4744V11.6517H22.4741L22.4744 11.2305H21.6116V12.0918H20.7718V11.6521H20.3332V11.2305H19.912H19.4707V11.6518V11.6521H19.0323V12.0884H19.0321V12.9578H18.6123V12.9601V13.7996H18.6125H19.0321H19.0323V17.252H19.0321V17.2527H18.6123V19.4002H19.0321H19.0323V21.1032H19.0701H19.4709V21.548H19.9137H20.3335V21.1034H20.7718V20.7012H21.1914V20.5595V20.2614H21.6114V19.8405H20.7723V20.2614H20.3335V19.4002H20.7717V18.1128H21.1911V17.2529H21.6114V17.2525V16.3872H22.0539V14.6603H22.4744V14.2389H22.9123V14.2233V13.9942V12.9573H23.3319V12.0916H22.9128ZM20.3335 18.114H20.1652H19.912V17.689H20.1652H20.3335V18.114Z" fill="#1F1C22"/>
<path d="M22.0543 19.4004H21.6113V19.8399H22.0543V19.4004Z" fill="#1F1C22"/>
<path d="M22.9125 11.652V12.0914H23.3316V11.6519H22.9116V11.652H22.9125Z" fill="#EBEAE6"/>
<path d="M22.9263 11.6519H22.9116V12.0913H22.9263V11.6519Z" fill="#EBEAE6"/>
<path d="M20.7716 11.6522V12.0919H21.6114V11.2306H22.4742V11.6518H22.9116V10.811H22.4739H21.197V11.0821V11.2306H20.333V11.6522H20.7716Z" fill="#EBEAE6"/>
<path d="M22.4741 11.6517H22.4744V11.2305L22.4741 11.6517Z" fill="#EBEAE6"/>
<path d="M22.4883 18.9565H22.4736V19.4002H22.4883V18.9565Z" fill="#1F1C22"/>
<path d="M22.4735 18.9565H22.0542V19.4002H22.4735V18.9565Z" fill="#1F1C22"/>
<path d="M23.3317 15.106V14.6611H22.9121H22.4742V16.3873H22.0537V17.2526H21.6112V17.2531V18.1137H21.1914V19.4006H21.6114V18.9562H22.0544V18.5351H22.4737V18.9569H22.4742H22.6081H22.9128V18.5351H23.3317V17.6931H23.7517V15.106H23.3317Z" fill="#EBEAE6"/>
<path d="M19.4706 21.5478V21.103H19.0697H19.032H19.0317V21.1032V21.5478V21.9872H19.4703H19.9133V21.5478H19.4706Z" fill="#C1C1C3"/>
<path d="M19.0321 19.3999H18.6123V21.1031H19.0321V21.1029V19.3999Z" fill="#C1C1C3"/>
<path d="M19.0319 13.7993H18.6123V17.2517H19.0319V13.7993Z" fill="#C1C1C3"/>
<path d="M19.0464 13.7993H19.0317V17.2517H19.0464V13.7993Z" fill="#C1C1C3"/>
<path d="M18.6122 12.96H18.1924V13.7995H18.6122V12.96Z" fill="#C1C1C3"/>
<path d="M19.0321 11.6521V11.6519H18.6123V12.0884H19.0319V11.6521H19.0321Z" fill="#C1C1C3"/>
<path d="M19.0464 11.6519H19.0317V12.0882H19.0464V11.6519Z" fill="#C1C1C3"/>
<path d="M19.4706 11.2305H19.0322V11.6518H19.4706V11.2305Z" fill="#C1C1C3"/>
<path d="M19.9137 21.9873H19.4707V22.8484H19.9137V21.9873Z" fill="#C1C1C3"/>
<path d="M19.4703 22.8481H19.0317V23.2739H19.4703V22.8481Z" fill="#C1C1C3"/>
<path d="M19.0319 23.2739H18.6128V23.7135H19.0319V23.2739Z" fill="#C1C1C3"/>
<path d="M19.032 21.9872V21.5479H17.9641H16.8961V21.9872H16.4575V22.8483H16.8961V23.274H17.3152V23.7136H17.9641H18.6129V23.274H19.032V22.8483H19.4706V21.9872H19.032Z" fill="#1F1C22"/>
<path d="M20.1652 17.689H19.9121V18.114H20.1652H20.3335V17.689H20.1652Z" fill="white"/>
</g>
<path d="M27.8251 16.8098C27.5767 16.7567 27.318 16.7056 27.0495 16.6564C26.9728 16.0387 26.8387 15.4396 26.6529 14.8652C30.1432 15.4269 32.4001 16.3201 32.4001 17.3259C32.4001 17.3371 32.3998 17.3483 32.3992 17.3595C32.3161 19.0442 25.9012 20.4045 18.0001 20.4045C10.0472 20.4045 3.6001 19.0263 3.6001 17.3263C3.6001 17.3158 3.60034 17.3054 3.60083 17.295C3.64706 16.2901 5.946 15.4004 9.46994 14.8457C9.28296 15.4193 9.14759 16.0177 9.06966 16.6349C8.75841 16.6906 8.45991 16.7489 8.17514 16.8098C7.80194 16.8896 7.46051 16.972 7.15074 17.0556V17.056C6.82029 17.1452 6.52593 17.2358 6.26767 17.3261C6.76802 17.5011 7.4039 17.677 8.17514 17.8419C8.43636 17.8978 8.70914 17.9515 8.99271 18.0029V18.0034C11.3758 18.4357 14.5207 18.7062 18.0001 18.7062C21.5365 18.7062 24.7274 18.4268 27.124 17.982V17.9816C27.3659 17.9367 27.5998 17.8901 27.8251 17.8419C28.5967 17.677 29.2327 17.5009 29.7331 17.3259C29.2327 17.1508 28.5967 16.9747 27.8251 16.8098Z" fill="white"/>
<path d="M28.8488 12.0166C28.8491 12.0086 28.8494 12.0005 28.8494 11.9925C28.8494 11.0849 26.4388 10.2987 22.9232 9.91553C23.7598 10.4701 24.5032 11.1635 25.1232 11.9645C25.1688 11.9737 25.214 11.9831 25.2587 11.9925C25.2262 11.9994 25.1935 12.0062 25.1606 12.013L25.1609 12.0134C23.3696 12.3816 20.8701 12.6204 18.0658 12.6204C15.2546 12.6204 12.7497 12.3805 10.9576 12.0107L10.9579 12.0102C10.9294 12.0044 10.9011 11.9984 10.873 11.9925C10.9117 11.9843 10.9508 11.9762 10.9902 11.9681C11.6102 11.1665 12.3534 10.4726 13.1902 9.91755C9.68445 10.3015 7.28225 11.0865 7.28225 11.9925V11.9928L7.28223 11.993C7.28223 13.1267 12.503 14.0278 16.0218 14.2769C16.8092 14.3327 18.0422 14.3366 18.0422 14.3366C18.4773 14.3555 19.2699 14.3333 20.054 14.2792C23.5921 14.0352 28.7968 13.144 28.8488 12.0166Z" fill="white"/>
<path d="M7.28223 23.7582C7.28223 23.1652 8.31126 22.624 10.0051 22.2133C10.2754 22.7552 10.5947 23.2665 10.957 23.7406C10.9288 23.7464 10.9008 23.7523 10.873 23.7582C10.9114 23.7663 10.9501 23.7743 10.9891 23.7823C10.9916 23.7856 10.9942 23.7889 10.9967 23.7922H11.0354C12.8218 24.153 15.295 24.386 18.0658 24.386C20.8365 24.386 23.3097 24.153 25.0961 23.7922H25.1195C25.1212 23.7901 25.1227 23.7881 25.1243 23.786C25.1695 23.7769 25.2143 23.7676 25.2586 23.7582C25.2265 23.7514 25.194 23.7446 25.1613 23.7379C25.5235 23.2636 25.8427 22.7521 26.1128 22.21C27.8148 22.6211 28.8493 23.1636 28.8493 23.7582C28.8493 23.7695 28.849 23.7808 28.8482 23.7922C28.765 25.0612 23.9694 26.0843 18.0658 26.0843C12.1621 26.0843 7.36654 25.0612 7.28331 23.7922C7.28256 23.7808 7.28223 23.7695 7.28223 23.7582Z" fill="white"/>
<defs>
<linearGradient id="paint0_linear_202_203" x1="29.988" y1="4.32" x2="4.536" y2="31.716" gradientUnits="userSpaceOnUse">
<stop stop-color="#6D14CF"/>
<stop offset="1" stop-color="#A23EDD"/>
</linearGradient>
<clipPath id="clip0_202_203">
<rect width="11.592" height="12.9244" fill="white" transform="translate(12.168 10.7998)"/>
</clipPath>
</defs>
</svg>
