<svg width="8" height="12" viewBox="0 0 8 12" fill="none" xmlns="http://www.w3.org/2000/svg">
    <path opacity="0.8" d="M0.285879 11.6434C0.372157 11.692 0.469027 11.7142 0.566092 11.7077C0.663157 11.7012 0.756752 11.6662 0.83683 11.6064L7.77039 6.4066C7.84124 6.35343 7.89913 6.28245 7.93912 6.19974C7.97911 6.11703 8 6.02506 8 5.93169C8 5.83832 7.97911 5.74635 7.93912 5.66364C7.89913 5.58093 7.84124 5.50995 7.77039 5.45677L0.83683 0.256977C0.756902 0.196575 0.6632 0.161103 0.565939 0.154428C0.468679 0.147753 0.371593 0.170132 0.285267 0.219123C0.198941 0.268115 0.126688 0.34184 0.0763856 0.432259C0.0260833 0.522679 -0.000337698 0.626323 3.25867e-06 0.731892V11.1315C-1.2785e-05 11.2369 0.0266191 11.3404 0.0770123 11.4306C0.127405 11.5209 0.199637 11.5944 0.285879 11.6434Z" fill="white" fill-opacity="0.87"/>
</svg>
