<svg width="12" height="12" fill="none" xmlns="http://www.w3.org/2000/svg"><path d="M12 6.21c0-.581-1.326-.947-1.49-1.465-.177-.544.682-1.617.353-2.06-.328-.454-1.617.026-2.071-.303C8.337 2.054 8.4.677 7.857.5 7.339.336 6.58 1.473 6 1.473S4.674.336 4.143.5c-.543.177-.48 1.554-.922 1.882-.455.329-1.743-.151-2.072.304-.328.454.518 1.515.354 2.059C1.326 5.263 0 5.629 0 6.21c0 .581 1.326.948 1.49 1.465.177.544-.682 1.618-.353 2.06.328.455 1.617-.026 2.071.303.455.328.392 1.705.935 1.87.518.164 1.276-.973 1.857-.973s1.326 1.137 1.857.973c.543-.177.48-1.542.935-1.87.454-.329 1.743.152 2.071-.303.329-.455-.518-1.516-.354-2.06C10.674 7.158 12 6.791 12 6.21Z" fill="#fff" fill-opacity=".87"/></svg>