<svg width="30" height="41" viewBox="0 0 30 41" fill="none" xmlns="http://www.w3.org/2000/svg">
    <path d="M24.375 26.7075V39.5925C24.375 39.7584 24.3311 39.9213 24.2476 40.0646C24.1641 40.2079 24.044 40.3265 23.8997 40.4083C23.7554 40.4901 23.592 40.5321 23.4261 40.5301C23.2603 40.5281 23.0979 40.4821 22.9556 40.3969L15 35.6231L7.04438 40.3969C6.90195 40.4822 6.73942 40.5282 6.5734 40.5301C6.40738 40.5321 6.24382 40.4899 6.09946 40.4079C5.95509 40.3259 5.83509 40.207 5.75173 40.0634C5.66837 39.9198 5.62463 39.7566 5.625 39.5906V26.7094C3.19903 24.767 1.43624 22.1191 0.580236 19.1316C-0.275764 16.1441 -0.182708 12.9645 0.846546 10.0321C1.8758 7.09979 3.79043 4.55952 6.32584 2.76239C8.86126 0.965263 11.8923 0 15 0C18.1077 0 21.1387 0.965263 23.6742 2.76239C26.2096 4.55952 28.1242 7.09979 29.1535 10.0321C30.1827 12.9645 30.2758 16.1441 29.4198 19.1316C28.5638 22.1191 26.801 24.767 24.375 26.7094V26.7075ZM15 26.2481C17.9837 26.2481 20.8452 25.0629 22.955 22.9531C25.0647 20.8433 26.25 17.9818 26.25 14.9981C26.25 12.0144 25.0647 9.15295 22.955 7.04317C20.8452 4.93339 17.9837 3.74812 15 3.74812C12.0163 3.74812 9.15483 4.93339 7.04505 7.04317C4.93527 9.15295 3.75 12.0144 3.75 14.9981C3.75 17.9818 4.93527 20.8433 7.04505 22.9531C9.15483 25.0629 12.0163 26.2481 15 26.2481ZM15 22.4981C13.0109 22.4981 11.1032 21.7079 9.6967 20.3014C8.29018 18.8949 7.5 16.9872 7.5 14.9981C7.5 13.009 8.29018 11.1013 9.6967 9.69482C11.1032 8.2883 13.0109 7.49812 15 7.49812C16.9891 7.49812 18.8968 8.2883 20.3033 9.69482C21.7098 11.1013 22.5 13.009 22.5 14.9981C22.5 16.9872 21.7098 18.8949 20.3033 20.3014C18.8968 21.7079 16.9891 22.4981 15 22.4981Z" fill="#3C4858"/>
</svg>
