<svg width="20" height="20" viewBox="0 0 20 20" fill="none" xmlns="http://www.w3.org/2000/svg">
<path d="M9.99998 0.833008C4.93998 0.833008 0.833313 4.93967 0.833313 9.99967C0.833313 15.0597 4.93998 19.1663 9.99998 19.1663C15.06 19.1663 19.1666 15.0597 19.1666 9.99967C19.1666 4.93967 15.06 0.833008 9.99998 0.833008ZM9.99998 17.333C5.95748 17.333 2.66665 14.0422 2.66665 9.99967C2.66665 5.95717 5.95748 2.66634 9.99998 2.66634C14.0425 2.66634 17.3333 5.95717 17.3333 9.99967C17.3333 14.0422 14.0425 17.333 9.99998 17.333ZM14.2075 5.94801L8.16665 11.9888L5.79248 9.62384L4.49998 10.9163L8.16665 14.583L15.5 7.24967L14.2075 5.94801Z" fill="black" fill-opacity="0.6"/>
</svg>
