<svg width="20" height="20" viewBox="0 0 20 20" fill="none" xmlns="http://www.w3.org/2000/svg">
<path d="M9.08331 12.7497H10.9166V14.583H9.08331V12.7497ZM9.08331 5.41634H10.9166V10.9163H9.08331V5.41634ZM9.99081 0.833008C4.93081 0.833008 0.833313 4.93967 0.833313 9.99967C0.833313 15.0597 4.93081 19.1663 9.99081 19.1663C15.06 19.1663 19.1666 15.0597 19.1666 9.99967C19.1666 4.93967 15.06 0.833008 9.99081 0.833008ZM9.99998 17.333C5.94831 17.333 2.66665 14.0513 2.66665 9.99967C2.66665 5.94801 5.94831 2.66634 9.99998 2.66634C14.0516 2.66634 17.3333 5.94801 17.3333 9.99967C17.3333 14.0513 14.0516 17.333 9.99998 17.333Z" fill="black" fill-opacity="0.6"/>
</svg>
