<svg width="14" height="16" viewBox="0 0 14 16" fill="none" xmlns="http://www.w3.org/2000/svg">
    <path d="M12.3714 9.03937L9.53627 5.39173C9.99784 5.19186 10.3217 4.73192 10.3217 4.19744C10.3217 3.65047 9.98249 3.1817 9.50361 2.98974L10.8201 1.1236C10.9134 0.991274 10.9253 0.817893 10.8509 0.674097C10.7764 0.530301 10.628 0.439941 10.4662 0.439941H8.15546C7.70065 0.439941 7.28995 0.632128 7.00004 0.939672C6.71024 0.632128 6.29943 0.439941 5.84474 0.439941H3.53402C3.37211 0.439941 3.22383 0.530187 3.14934 0.673982C3.07486 0.817778 3.08666 0.991159 3.18005 1.12349L4.49647 2.98974C4.01759 3.1817 3.67841 3.65047 3.67841 4.19744C3.67841 4.73192 4.00235 5.19186 4.46392 5.39173L1.62873 9.03937C1.08797 9.73519 0.790039 10.6039 0.790039 11.4856C0.790039 13.6826 2.57616 15.4699 4.77171 15.4699H9.22848C11.4239 15.4699 13.21 13.6826 13.21 11.4855C13.21 10.6039 12.9122 9.73519 12.3714 9.03937ZM9.02199 4.63101H4.97821C4.73928 4.63101 4.54494 4.43653 4.54494 4.19744C4.54494 3.95836 4.73928 3.76388 4.97821 3.76388H9.02199C9.26079 3.76388 9.45514 3.95836 9.45514 4.19744C9.45514 4.43653 9.26079 4.63101 9.02199 4.63101Z" fill="#3DDB39"/>
</svg>
