<svg width="15" height="13" viewBox="0 0 15 13" fill="none" xmlns="http://www.w3.org/2000/svg">
<path d="M2.66666 6.5C2.66666 3.18667 5.35333 0.5 8.66667 0.5C11.98 0.5 14.6667 3.18667 14.6667 6.5C14.6667 9.81333 11.98 12.5 8.66667 12.5C8.6214 12.5 8.57626 12.4995 8.53125 12.4985V11.1647C8.57624 11.166 8.62138 11.1667 8.66667 11.1667C11.2467 11.1667 13.3333 9.08 13.3333 6.5C13.3333 3.92 11.2467 1.83333 8.66667 1.83333C6.08667 1.83333 4 3.92 4 6.5H6L3.30667 9.18667L3.26 9.09333L0.666664 6.5H2.66666Z" fill="#F2A52B"/>
</svg>
