<svg width="12" height="16" viewBox="0 0 12 16" fill="none" xmlns="http://www.w3.org/2000/svg">
    <path d="M6.65779 6.2455C6.76779 5.9155 7.23379 5.9155 7.34379 6.2455L7.98879 8.1825C8.13076 8.6083 8.36996 8.99518 8.68743 9.31248C9.0049 9.62978 9.39191 9.86876 9.81779 10.0105L11.7538 10.6555C12.0838 10.7655 12.0838 11.2315 11.7538 11.3415L9.81679 11.9865C9.39099 12.1285 9.0041 12.3677 8.68681 12.6851C8.36951 13.0026 8.13053 13.3896 7.98879 13.8155L7.34379 15.7515C7.32007 15.8238 7.27414 15.8867 7.21255 15.9313C7.15095 15.9759 7.07684 15.9999 7.00079 15.9999C6.92473 15.9999 6.85062 15.9759 6.78903 15.9313C6.72743 15.8867 6.6815 15.8238 6.65779 15.7515L6.01279 13.8145C5.87092 13.3888 5.63187 13.002 5.31458 12.6847C4.99729 12.3674 4.61048 12.1284 4.18479 11.9865L2.24779 11.3415C2.17553 11.3178 2.1126 11.2719 2.06799 11.2103C2.02338 11.1487 1.99936 11.0746 1.99936 10.9985C1.99936 10.9224 2.02338 10.8483 2.06799 10.7867C2.1126 10.7252 2.17553 10.6792 2.24779 10.6555L4.18479 10.0105C4.61048 9.86863 4.99729 9.62958 5.31458 9.3123C5.63187 8.99501 5.87092 8.6082 6.01279 8.1825L6.65779 6.2455ZM2.79479 1.1465C2.80913 1.1032 2.83675 1.06551 2.87373 1.0388C2.91071 1.01209 2.95517 0.997716 3.00079 0.997716C3.04641 0.997716 3.09086 1.01209 3.12784 1.0388C3.16482 1.06551 3.19245 1.1032 3.20679 1.1465L3.59379 2.3085C3.76679 2.8265 4.17279 3.2325 4.69079 3.4055L5.85279 3.7925C5.89609 3.80684 5.93378 3.83447 5.96049 3.87145C5.9872 3.90843 6.00157 3.95288 6.00157 3.9985C6.00157 4.04412 5.9872 4.08858 5.96049 4.12556C5.93378 4.16254 5.89609 4.19016 5.85279 4.2045L4.69079 4.5915C4.43531 4.67662 4.20317 4.82007 4.01276 5.01048C3.82235 5.20089 3.6789 5.43303 3.59379 5.6885L3.20679 6.8505C3.19245 6.89381 3.16482 6.93149 3.12784 6.9582C3.09086 6.98491 3.04641 6.99929 3.00079 6.99929C2.95517 6.99929 2.91071 6.98491 2.87373 6.9582C2.83675 6.93149 2.80913 6.89381 2.79479 6.8505L2.40779 5.6885C2.32267 5.43303 2.17922 5.20089 1.98881 5.01048C1.7984 4.82007 1.56626 4.67662 1.31079 4.5915L0.148787 4.2045C0.105481 4.19016 0.0677964 4.16254 0.0410864 4.12556C0.0143764 4.08858 0 4.04412 0 3.9985C0 3.95288 0.0143764 3.90843 0.0410864 3.87145C0.0677964 3.83447 0.105481 3.80684 0.148787 3.7925L1.31079 3.4055C1.56626 3.32039 1.7984 3.17694 1.98881 2.98653C2.17922 2.79612 2.32267 2.56398 2.40779 2.3085L2.79479 1.1465ZM9.86379 0.0975026C9.87366 0.0690289 9.89216 0.0443386 9.91671 0.0268642C9.94126 0.00938991 9.97065 0 10.0008 0C10.0309 0 10.0603 0.00938991 10.0849 0.0268642C10.1094 0.0443386 10.1279 0.0690289 10.1378 0.0975026L10.3958 0.871503C10.5108 1.2175 10.7818 1.4885 11.1278 1.6035L11.9018 1.8615C11.9303 1.87137 11.955 1.88987 11.9724 1.91443C11.9899 1.93898 11.9993 1.96837 11.9993 1.9985C11.9993 2.02864 11.9899 2.05803 11.9724 2.08258C11.955 2.10713 11.9303 2.12563 11.9018 2.1355L11.1278 2.3935C10.9573 2.45023 10.8023 2.54592 10.6753 2.67299C10.5482 2.80005 10.4525 2.95499 10.3958 3.1255L10.1378 3.8995C10.1279 3.92798 10.1094 3.95267 10.0849 3.97014C10.0603 3.98762 10.0309 3.99701 10.0008 3.99701C9.97065 3.99701 9.94126 3.98762 9.91671 3.97014C9.89216 3.95267 9.87366 3.92798 9.86379 3.8995L9.60579 3.1255C9.54906 2.95499 9.45337 2.80005 9.3263 2.67299C9.19924 2.54592 9.0443 2.45023 8.87379 2.3935L8.10079 2.1355C8.07231 2.12563 8.04762 2.10713 8.03015 2.08258C8.01267 2.05803 8.00328 2.02864 8.00328 1.9985C8.00328 1.96837 8.01267 1.93898 8.03015 1.91443C8.04762 1.88987 8.07231 1.87137 8.10079 1.8615L8.87479 1.6035C9.22079 1.4885 9.49179 1.2175 9.60679 0.871503L9.86379 0.0985026V0.0975026Z" fill="#F2BC1B"/>
</svg>
