<svg id="svg" version="1.1" xmlns="http://www.w3.org/2000/svg" xmlns:xlink="http://www.w3.org/1999/xlink" width="32" height="32" viewBox="0, 0, 400,400"><g id="svgg"><path id="path0" d="M397.230 158.564 C 396.658 159.253,397.216 159.688,398.019 159.180 C 398.453 158.905,398.468 158.811,398.076 158.806 C 397.788 158.803,397.664 158.620,397.800 158.400 C 398.170 157.802,397.766 157.918,397.230 158.564 M288.307 232.613 C 286.166 232.905,284.220 233.264,283.982 233.411 C 283.745 233.558,281.915 234.020,279.917 234.438 C 277.918 234.857,276.084 235.355,275.842 235.547 C 275.599 235.738,274.431 236.210,273.247 236.597 C 271.396 237.201,267.622 239.018,263.683 241.200 C 260.532 242.946,256.391 246.008,254.352 248.100 C 253.762 248.705,253.081 249.200,252.840 249.200 C 252.598 249.200,252.400 249.384,252.400 249.609 C 252.400 249.833,251.384 251.048,250.143 252.309 C 248.902 253.569,247.478 255.246,246.978 256.036 C 246.479 256.826,245.798 257.745,245.465 258.078 C 245.132 258.411,244.584 259.342,244.248 260.147 C 243.911 260.952,243.358 261.718,243.018 261.848 C 242.678 261.979,242.400 262.404,242.400 262.794 C 242.400 263.827,241.212 266.503,240.533 266.999 C 239.195 267.978,240.007 271.257,241.734 271.853 C 243.636 272.509,249.078 277.916,249.426 279.496 C 249.824 281.296,249.933 281.444,250.207 280.549 C 250.350 280.081,250.908 279.497,251.447 279.251 C 252.018 278.991,252.750 278.051,253.203 276.994 C 253.630 275.998,254.243 275.082,254.565 274.958 C 254.887 274.834,255.260 274.235,255.394 273.627 C 255.528 273.019,256.259 271.919,257.018 271.182 C 257.778 270.446,258.400 269.660,258.400 269.437 C 258.400 269.213,258.847 268.573,259.393 268.015 C 259.939 267.457,261.733 265.605,263.379 263.900 C 265.024 262.195,266.528 260.800,266.719 260.800 C 266.911 260.800,267.549 260.260,268.137 259.600 C 268.725 258.940,269.386 258.400,269.607 258.400 C 269.827 258.400,270.754 257.859,271.667 257.197 C 273.389 255.950,278.819 253.200,279.560 253.200 C 279.792 253.200,280.931 252.763,282.091 252.229 C 284.376 251.177,291.929 249.786,294.744 249.899 C 297.446 250.007,297.573 250.370,297.587 258.051 C 297.602 265.936,297.897 265.453,292.480 266.433 C 287.871 267.267,283.813 268.691,281.906 270.146 C 281.146 270.726,280.343 271.200,280.122 271.200 C 279.900 271.200,279.166 271.695,278.490 272.300 C 277.815 272.905,277.023 273.607,276.731 273.860 C 276.439 274.112,275.526 275.102,274.703 276.060 C 273.879 277.017,272.869 278.160,272.457 278.600 C 272.046 279.040,271.571 279.850,271.402 280.400 C 271.233 280.950,270.740 281.904,270.306 282.520 C 268.535 285.034,267.263 294.748,268.606 295.500 C 269.086 295.768,269.649 295.715,270.426 295.327 C 271.345 294.868,272.298 294.842,275.618 295.183 C 277.855 295.412,280.815 295.600,282.196 295.600 C 285.093 295.600,287.158 297.275,287.967 300.279 C 288.636 302.760,291.050 305.053,294.400 306.389 C 297.212 307.510,297.387 307.714,297.671 310.214 C 298.227 315.111,298.231 324.239,297.677 324.906 C 296.974 325.754,300.888 326.302,303.107 325.666 C 303.928 325.431,306.040 324.845,307.800 324.365 C 309.560 323.884,311.360 323.177,311.800 322.792 C 312.240 322.408,313.165 321.808,313.856 321.459 C 316.737 320.004,322.279 313.766,324.037 310.000 C 324.499 309.010,325.219 307.469,325.637 306.577 C 326.055 305.684,326.516 303.546,326.662 301.826 C 326.866 299.407,327.130 298.460,327.828 297.649 L 328.731 296.600 335.323 296.600 C 344.462 296.600,344.624 296.795,342.600 305.361 C 342.050 307.689,341.600 309.911,341.600 310.300 C 341.600 310.688,341.176 311.815,340.657 312.803 C 340.139 313.791,339.587 315.126,339.432 315.768 C 339.277 316.411,338.796 317.387,338.363 317.937 C 337.931 318.488,337.232 319.717,336.811 320.669 C 336.390 321.621,335.872 322.400,335.662 322.400 C 335.451 322.400,335.102 322.906,334.886 323.524 C 334.671 324.143,334.247 324.908,333.945 325.224 C 333.642 325.541,332.881 326.430,332.253 327.200 C 329.687 330.347,326.552 333.387,324.600 334.622 C 323.940 335.039,323.256 335.610,323.080 335.890 C 322.904 336.171,322.184 336.697,321.480 337.060 C 320.776 337.422,319.959 338.060,319.665 338.477 C 319.371 338.893,318.426 339.516,317.565 339.861 C 316.505 340.285,316.000 340.735,316.000 341.256 C 316.000 341.679,315.726 342.130,315.392 342.258 C 314.963 342.423,315.284 342.759,316.484 343.401 C 318.170 344.303,320.800 346.667,320.800 347.281 C 320.800 347.456,321.016 347.600,321.281 347.600 C 322.404 347.600,324.364 350.082,324.137 351.217 C 323.773 353.034,327.520 352.929,328.333 351.100 C 328.407 350.935,328.992 350.800,329.633 350.800 C 330.284 350.800,331.170 350.430,331.637 349.963 C 332.097 349.503,333.267 348.856,334.237 348.526 C 335.207 348.195,336.000 347.766,336.000 347.573 C 336.000 347.379,336.585 346.921,337.300 346.554 C 338.623 345.876,339.415 345.215,341.677 342.900 C 342.376 342.185,343.181 341.600,343.466 341.600 C 343.751 341.600,344.096 341.156,344.232 340.614 C 344.368 340.072,344.824 339.519,345.244 339.386 C 345.665 339.253,346.279 338.621,346.609 337.984 C 346.938 337.346,347.566 336.632,348.004 336.398 C 348.442 336.164,348.800 335.733,348.800 335.441 C 348.800 335.149,349.340 334.231,350.000 333.400 C 350.660 332.569,351.200 331.610,351.200 331.267 C 351.200 330.924,351.626 330.184,352.148 329.622 C 352.669 329.060,353.413 327.745,353.802 326.700 C 354.191 325.655,354.651 324.800,354.826 324.800 C 355.000 324.800,355.442 323.765,355.807 322.500 C 356.173 321.235,356.727 319.914,357.039 319.565 C 357.351 319.216,357.953 317.416,358.377 315.565 C 358.802 313.714,359.430 311.434,359.773 310.498 C 361.364 306.162,361.273 286.835,359.641 282.337 C 359.214 281.162,358.664 279.210,358.417 278.000 C 358.171 276.790,357.629 275.080,357.212 274.200 C 356.796 273.320,356.152 271.655,355.782 270.500 C 355.411 269.345,354.971 268.400,354.803 268.400 C 354.636 268.400,354.101 267.476,353.615 266.347 C 353.129 265.217,352.387 263.924,351.966 263.471 C 351.545 263.019,351.200 262.453,351.200 262.214 C 351.200 261.823,349.494 259.371,347.074 256.285 C 343.291 251.459,331.970 241.600,330.211 241.600 C 329.943 241.600,329.404 241.247,329.014 240.815 C 328.623 240.383,327.650 239.818,326.852 239.560 C 326.053 239.301,324.911 238.746,324.314 238.327 C 323.716 237.908,322.291 237.287,321.146 236.947 C 320.001 236.607,318.422 235.985,317.638 235.564 C 316.854 235.144,315.849 234.797,315.406 234.793 C 314.963 234.789,313.250 234.425,311.600 233.982 C 304.574 232.100,295.839 231.586,288.307 232.613 M307.203 272.198 C 315.329 275.861,320.949 282.427,322.664 290.262 C 324.138 296.991,323.554 297.600,315.637 297.600 C 308.531 297.600,307.822 297.358,307.027 294.667 C 305.986 291.140,304.413 289.241,301.120 287.536 C 296.392 285.087,296.800 285.946,296.800 278.443 C 296.800 270.275,296.827 270.223,301.003 270.489 C 303.135 270.625,304.618 271.033,307.203 272.198 " stroke="none" fill="#e6549e" fill-rule="evenodd"></path><path id="path1" d="M174.924 8.973 C 174.662 9.271,174.572 9.663,174.724 9.844 C 174.876 10.025,174.685 9.933,174.300 9.638 C 173.701 9.179,173.600 9.196,173.600 9.751 C 173.600 10.108,173.409 10.400,173.176 10.400 C 172.943 10.400,172.845 10.250,172.959 10.067 C 173.072 9.883,172.900 9.733,172.577 9.733 C 172.213 9.733,172.068 9.984,172.197 10.391 C 172.382 10.974,171.935 11.047,168.303 11.026 C 162.640 10.993,159.473 11.890,160.276 13.300 C 160.370 13.465,159.132 13.615,157.524 13.633 C 152.908 13.686,151.404 14.031,151.402 15.038 C 151.400 15.691,151.058 15.814,149.000 15.899 C 145.387 16.048,143.932 16.361,144.258 16.920 C 144.412 17.184,144.105 17.040,143.576 16.600 C 142.850 15.996,142.747 15.972,143.156 16.500 C 143.514 16.962,143.545 17.200,143.249 17.200 C 143.002 17.200,142.800 17.391,142.800 17.624 C 142.800 17.857,143.025 17.920,143.300 17.765 C 143.664 17.559,143.683 17.610,143.370 17.951 C 143.112 18.232,141.630 18.428,139.666 18.441 C 137.865 18.453,136.482 18.610,136.593 18.789 C 136.705 18.969,136.529 19.218,136.204 19.343 C 135.869 19.472,135.715 19.835,135.850 20.185 C 136.039 20.680,135.725 20.810,134.243 20.850 C 131.176 20.933,131.011 20.958,130.706 21.387 C 130.517 21.653,130.410 21.622,130.406 21.300 C 130.403 21.025,130.085 20.803,129.700 20.806 C 129.164 20.811,129.125 20.891,129.534 21.150 C 129.963 21.422,129.942 21.537,129.430 21.733 C 129.079 21.868,128.839 22.118,128.896 22.289 C 128.953 22.460,128.893 22.600,128.761 22.600 C 128.630 22.600,128.225 22.847,127.861 23.149 C 127.498 23.451,127.200 23.580,127.200 23.435 C 127.200 23.290,126.868 23.350,126.461 23.567 C 125.969 23.831,125.585 23.825,125.311 23.551 C 125.029 23.269,124.915 23.431,124.950 24.067 C 124.977 24.578,124.820 25.003,124.600 25.012 C 124.380 25.021,123.835 25.232,123.390 25.480 C 122.944 25.729,121.741 25.894,120.717 25.847 C 119.692 25.800,118.871 25.861,118.893 25.981 C 119.103 27.174,118.257 28.240,117.221 28.088 C 116.600 27.997,115.726 28.119,115.278 28.358 C 114.668 28.685,114.414 28.669,114.264 28.297 C 114.153 28.024,114.049 28.301,114.032 28.913 C 113.994 30.226,112.894 30.787,110.842 30.541 C 109.606 30.393,109.534 30.439,110.042 31.054 C 110.554 31.675,110.521 31.689,109.652 31.226 C 109.049 30.904,108.803 30.882,108.977 31.163 C 109.335 31.743,108.229 32.832,107.204 32.910 C 106.762 32.943,106.298 33.292,106.173 33.685 C 106.048 34.078,105.768 34.400,105.549 34.400 C 105.331 34.400,105.264 34.220,105.400 34.000 C 105.810 33.337,105.251 33.549,104.433 34.367 C 104.012 34.788,103.781 35.248,103.921 35.388 C 104.061 35.528,103.866 35.524,103.488 35.378 C 103.068 35.217,102.800 35.305,102.800 35.604 C 102.800 35.894,102.479 36.009,102.014 35.888 C 101.581 35.775,101.243 35.799,101.261 35.941 C 101.477 37.598,101.165 38.000,99.662 38.000 C 98.141 38.000,96.800 38.905,96.800 39.931 C 96.800 40.189,96.530 40.423,96.200 40.450 C 95.870 40.477,95.420 40.545,95.200 40.600 C 94.980 40.655,94.609 40.722,94.375 40.750 C 94.141 40.778,94.006 41.196,94.075 41.680 C 94.194 42.518,91.995 43.492,91.155 42.972 C 91.010 42.883,90.768 43.212,90.619 43.704 C 90.453 44.248,90.265 44.404,90.140 44.100 C 90.026 43.825,89.758 43.600,89.543 43.600 C 89.328 43.600,89.263 43.779,89.398 43.997 C 89.805 44.655,89.064 45.400,88.000 45.403 C 87.208 45.405,86.974 45.634,86.873 46.503 C 86.750 47.577,86.321 47.805,84.689 47.666 C 84.266 47.630,83.825 48.009,83.599 48.603 C 83.222 49.594,82.400 49.987,82.400 49.176 C 82.400 48.943,82.550 48.845,82.733 48.959 C 82.917 49.072,83.067 48.906,83.067 48.589 C 83.067 48.154,82.936 48.121,82.533 48.455 C 82.240 48.699,82.000 49.146,82.000 49.449 C 82.000 49.979,81.537 50.162,80.520 50.035 C 80.237 49.999,80.108 50.321,80.205 50.824 C 80.319 51.418,80.204 51.610,79.821 51.463 C 79.473 51.330,79.177 51.637,79.009 52.306 C 78.864 52.885,78.622 53.182,78.473 52.966 C 78.032 52.331,77.085 52.542,76.974 53.300 C 76.917 53.685,77.029 54.000,77.223 54.000 C 77.416 54.000,77.485 54.235,77.375 54.522 C 77.262 54.815,76.664 55.009,76.014 54.964 C 75.329 54.916,74.766 55.112,74.639 55.442 C 74.522 55.749,74.583 56.000,74.775 56.000 C 74.968 56.000,75.038 56.333,74.932 56.740 C 74.800 57.242,74.394 57.467,73.669 57.440 C 72.821 57.408,72.517 57.648,72.200 58.600 C 71.933 59.399,71.533 59.799,71.000 59.800 C 70.443 59.800,70.084 60.194,69.817 61.100 C 69.528 62.083,69.208 62.400,68.507 62.400 C 67.803 62.400,67.524 62.680,67.346 63.568 C 67.188 64.359,66.807 64.812,66.163 64.974 C 65.607 65.113,65.113 65.607,64.974 66.163 C 64.812 66.807,64.359 67.188,63.568 67.346 C 62.680 67.524,62.400 67.803,62.400 68.507 C 62.400 69.208,62.083 69.528,61.100 69.817 C 60.133 70.102,59.788 70.442,59.753 71.144 C 59.698 72.231,59.012 72.781,58.031 72.524 C 57.491 72.383,57.367 72.592,57.433 73.537 C 57.493 74.412,57.314 74.781,56.758 74.927 C 56.341 75.036,56.000 74.968,56.000 74.775 C 56.000 73.901,54.963 74.939,54.884 75.892 C 54.797 76.949,54.000 78.231,54.000 77.315 C 54.000 76.608,52.677 76.995,52.569 77.733 C 52.515 78.100,52.631 78.400,52.827 78.400 C 53.023 78.400,52.978 78.850,52.727 79.400 C 52.477 79.950,52.120 80.400,51.936 80.400 C 51.415 80.400,51.540 79.691,52.100 79.465 C 52.431 79.332,52.389 79.252,51.976 79.232 C 51.146 79.190,49.722 80.255,50.101 80.634 C 50.265 80.799,50.400 80.713,50.400 80.443 C 50.400 80.173,50.563 80.054,50.762 80.177 C 51.403 80.573,50.779 81.831,49.909 81.897 C 48.867 81.975,47.612 83.067,48.563 83.067 C 48.894 83.067,49.072 82.917,48.959 82.733 C 48.845 82.550,48.943 82.400,49.176 82.400 C 49.992 82.400,49.591 83.223,48.590 83.604 C 47.725 83.933,47.602 84.189,47.735 85.394 C 47.868 86.606,47.773 86.801,47.045 86.806 C 46.139 86.813,45.110 87.327,45.166 87.745 C 45.293 88.695,45.152 89.623,44.900 89.498 C 44.735 89.416,44.201 89.765,43.714 90.274 C 43.227 90.783,43.024 91.200,43.263 91.200 C 43.563 91.200,43.571 91.355,43.287 91.700 C 43.061 91.975,42.814 92.650,42.738 93.200 C 42.631 93.977,42.399 94.172,41.700 94.075 C 41.205 94.006,40.778 94.141,40.750 94.375 C 40.723 94.609,40.655 94.980,40.600 95.200 C 40.545 95.420,40.477 95.881,40.450 96.224 C 40.423 96.567,40.220 96.736,40.000 96.600 C 39.780 96.464,39.600 96.565,39.600 96.825 C 39.600 97.178,39.447 97.171,39.000 96.800 C 38.517 96.399,38.391 96.409,38.354 96.851 C 38.184 98.903,37.963 99.703,37.325 100.581 C 36.926 101.130,36.366 101.495,36.079 101.394 C 35.793 101.292,35.669 101.388,35.805 101.607 C 35.940 101.826,35.685 102.520,35.237 103.148 C 34.790 103.776,34.533 104.399,34.666 104.533 C 34.990 104.857,33.648 106.877,33.265 106.640 C 33.002 106.478,32.860 106.996,32.709 108.662 C 32.686 108.916,32.424 109.031,32.128 108.917 C 31.832 108.803,31.322 108.933,30.995 109.204 C 30.337 109.750,30.163 110.993,30.800 110.600 C 31.254 110.320,31.348 110.918,30.918 111.348 C 30.763 111.503,30.572 112.118,30.494 112.715 C 30.415 113.312,30.155 113.980,29.917 114.200 C 29.618 114.475,29.571 114.444,29.765 114.100 C 29.920 113.825,29.857 113.600,29.624 113.600 C 29.391 113.600,29.200 113.774,29.200 113.987 C 29.200 114.201,28.930 114.271,28.600 114.145 C 27.924 113.885,27.772 114.612,28.419 115.012 C 28.710 115.192,28.706 115.431,28.405 115.794 C 28.167 116.081,28.000 116.470,28.033 116.658 C 28.180 117.475,27.959 118.301,27.399 119.024 C 26.898 119.671,26.839 119.684,27.042 119.100 C 27.321 118.299,26.234 118.097,25.762 118.862 C 25.572 119.169,25.654 119.214,26.006 118.996 C 26.386 118.761,26.467 118.849,26.291 119.306 C 26.157 119.656,25.922 120.631,25.770 121.472 C 25.618 122.312,25.031 123.472,24.465 124.049 C 23.899 124.626,23.399 125.526,23.353 126.049 C 23.139 128.528,23.007 129.128,22.715 128.948 C 22.542 128.840,22.400 128.964,22.400 129.223 C 22.400 129.489,22.068 129.607,21.637 129.494 C 20.938 129.311,20.871 129.546,20.843 132.275 C 20.811 135.363,20.609 136.176,19.972 135.783 C 19.768 135.656,19.600 135.765,19.600 136.025 C 19.600 136.357,19.451 136.375,19.100 136.085 C 18.711 135.763,18.574 136.209,18.482 138.084 C 18.383 140.103,18.182 140.679,17.253 141.609 C 16.205 142.657,16.136 142.944,16.049 146.660 C 15.997 148.827,15.786 150.771,15.578 150.980 C 15.340 151.219,15.200 151.108,15.200 150.680 C 15.200 150.306,15.001 150.000,14.757 150.000 C 14.514 150.000,14.421 150.277,14.550 150.615 C 14.680 150.953,14.542 151.324,14.242 151.439 C 13.840 151.593,13.680 152.692,13.629 155.643 C 13.546 160.447,13.414 160.940,12.383 160.296 C 11.428 159.700,10.894 160.218,11.486 161.167 C 11.830 161.717,11.826 162.014,11.472 162.368 C 11.172 162.668,11.002 164.349,11.001 167.014 C 11.000 170.156,10.866 171.242,10.458 171.399 C 10.146 171.519,10.023 171.883,10.168 172.260 C 10.371 172.790,10.310 172.823,9.845 172.437 C 9.454 172.113,9.189 172.095,9.012 172.381 C 8.869 172.611,8.943 172.800,9.176 172.800 C 9.409 172.800,9.600 172.991,9.600 173.224 C 9.600 173.457,9.433 173.544,9.229 173.418 C 8.495 172.965,8.387 177.856,8.493 206.715 C 8.586 232.258,8.677 236.078,9.200 236.408 C 9.577 236.647,9.619 236.790,9.313 236.794 C 9.021 236.798,8.925 237.082,9.073 237.500 C 9.402 238.426,10.443 239.621,10.753 239.429 C 10.889 239.345,11.012 241.014,11.027 243.138 C 11.057 247.629,11.275 249.627,11.729 249.587 C 12.844 249.489,13.532 251.561,13.664 255.417 C 13.793 259.194,13.845 259.400,14.667 259.400 C 15.916 259.400,15.930 259.442,16.055 263.564 C 16.150 266.707,17.513 271.129,17.587 268.533 C 17.594 268.277,17.375 267.975,17.100 267.864 C 16.724 267.711,16.748 267.556,17.200 267.237 C 18.152 266.563,18.196 266.653,18.326 269.500 C 18.548 274.358,18.500 274.188,19.700 274.327 C 20.800 274.453,20.800 274.455,20.806 277.727 C 20.810 280.016,20.931 280.820,21.206 280.400 C 21.534 279.901,21.643 279.955,21.853 280.723 C 22.007 281.286,22.318 281.563,22.653 281.435 C 23.158 281.241,23.459 282.939,23.230 284.700 C 23.194 284.975,23.353 285.200,23.582 285.200 C 23.812 285.200,24.000 285.391,24.000 285.624 C 24.000 285.857,23.792 285.919,23.538 285.762 C 23.267 285.594,23.184 285.651,23.339 285.901 C 23.483 286.134,23.940 286.236,24.355 286.128 C 25.359 285.865,25.541 286.249,25.681 288.931 C 25.756 290.383,25.979 291.218,26.300 291.250 C 26.575 291.278,27.025 291.322,27.300 291.350 C 27.621 291.382,27.843 292.226,27.920 293.700 C 27.986 294.965,28.211 296.022,28.420 296.050 C 28.629 296.078,28.980 296.145,29.200 296.200 C 29.420 296.255,29.780 296.322,30.000 296.350 C 30.220 296.377,30.400 297.195,30.400 298.167 C 30.400 300.550,30.709 301.200,31.843 301.200 C 32.477 301.200,32.809 301.436,32.828 301.900 C 32.949 304.972,33.397 306.080,34.459 305.926 C 35.160 305.824,35.333 306.012,35.376 306.923 C 35.405 307.541,35.687 308.206,36.003 308.402 C 36.318 308.597,36.448 308.885,36.291 309.043 C 36.133 309.200,36.393 309.525,36.868 309.764 C 37.372 310.018,37.918 310.868,38.177 311.800 C 38.505 312.976,38.858 313.434,39.511 313.528 C 40.010 313.600,40.413 313.951,40.431 314.328 C 40.503 315.924,40.820 316.649,41.776 317.413 C 42.344 317.866,42.834 318.707,42.885 319.313 C 42.934 319.911,43.205 320.423,43.487 320.450 C 43.769 320.478,44.212 320.523,44.471 320.550 C 44.982 320.604,45.660 322.607,45.292 322.975 C 45.168 323.099,45.637 323.200,46.333 323.200 C 47.541 323.200,47.600 323.273,47.600 324.776 C 47.600 325.643,47.783 326.466,48.007 326.604 C 48.230 326.742,48.293 327.049,48.147 327.286 C 47.973 327.568,48.246 327.646,48.941 327.513 C 49.836 327.342,50.008 327.457,50.050 328.255 C 50.144 330.027,50.200 330.200,50.700 330.250 C 50.975 330.278,51.458 330.322,51.773 330.350 C 52.089 330.377,52.404 330.895,52.473 331.500 C 52.573 332.364,52.836 332.627,53.700 332.727 C 54.621 332.833,54.800 333.044,54.800 334.027 C 54.800 335.058,54.942 335.200,55.975 335.200 C 57.007 335.200,57.164 335.357,57.275 336.498 C 57.380 337.590,57.591 337.829,58.600 338.003 C 59.368 338.135,59.802 338.450,59.805 338.877 C 59.808 339.243,59.958 339.691,60.138 339.872 C 60.465 340.199,60.661 340.255,61.800 340.350 C 62.176 340.381,62.400 340.811,62.400 341.502 C 62.400 342.342,62.685 342.731,63.600 343.136 C 64.260 343.428,64.800 343.968,64.800 344.336 C 64.800 344.704,65.340 345.244,66.000 345.536 C 66.731 345.859,67.200 346.367,67.200 346.834 C 67.200 347.415,67.484 347.600,68.373 347.600 C 69.356 347.600,69.567 347.779,69.673 348.700 C 69.773 349.564,70.036 349.827,70.900 349.927 C 71.821 350.033,72.000 350.244,72.000 351.227 C 72.000 352.264,72.139 352.400,73.200 352.400 C 74.372 352.400,74.627 352.795,74.428 354.306 C 74.392 354.585,74.506 354.788,74.681 354.759 C 76.080 354.524,76.756 354.875,76.873 355.900 C 76.971 356.751,77.239 357.028,78.054 357.122 C 78.854 357.215,79.165 357.523,79.339 358.396 C 79.529 359.346,79.798 359.569,80.879 359.674 C 81.974 359.779,82.190 359.964,82.195 360.800 C 82.200 361.723,82.361 361.809,84.294 361.921 C 86.277 362.035,86.405 362.109,86.717 363.321 C 86.971 364.308,87.292 364.629,88.123 364.727 C 88.947 364.823,89.200 365.071,89.200 365.784 C 89.200 366.774,89.868 367.200,91.420 367.200 C 92.074 367.200,92.307 367.376,92.160 367.760 C 92.042 368.067,92.166 368.455,92.435 368.621 C 92.767 368.827,92.830 368.744,92.632 368.362 C 92.472 368.053,92.597 368.112,92.910 368.494 C 93.223 368.875,93.596 369.070,93.740 368.927 C 93.883 368.784,94.000 368.877,94.000 369.133 C 94.000 369.390,94.528 369.600,95.173 369.600 C 96.156 369.600,96.367 369.779,96.473 370.700 C 96.546 371.331,96.856 371.817,97.200 371.839 C 97.530 371.861,98.199 371.906,98.687 371.939 C 99.251 371.978,99.500 372.196,99.369 372.536 C 99.118 373.190,100.203 374.169,100.782 373.811 C 101.012 373.669,101.200 373.743,101.200 373.976 C 101.200 374.209,101.824 374.400,102.587 374.400 C 103.662 374.400,103.922 374.537,103.743 375.005 C 103.328 376.087,104.385 376.800,106.402 376.800 C 108.244 376.800,109.046 377.491,108.843 378.900 C 108.819 379.065,108.935 379.179,109.100 379.153 C 111.741 378.736,113.600 379.251,113.600 380.400 L 113.600 381.600 116.000 381.600 L 118.400 381.600 118.400 382.800 L 118.400 384.000 120.800 384.000 C 123.245 384.000,123.539 384.253,123.247 386.100 C 123.221 386.265,124.257 386.400,125.550 386.400 C 127.810 386.400,127.909 386.443,128.127 387.533 C 128.383 388.814,128.296 388.784,132.500 389.060 C 135.431 389.252,135.600 389.315,135.600 390.205 C 135.600 391.251,136.171 391.508,138.597 391.553 C 139.476 391.570,140.247 391.741,140.312 391.935 C 140.376 392.128,140.706 392.627,141.044 393.043 C 141.382 393.459,141.550 393.583,141.416 393.317 C 141.251 392.987,141.527 393.018,142.287 393.414 C 143.008 393.791,144.618 393.996,146.863 393.998 C 150.184 394.000,150.316 394.034,150.105 394.841 C 149.778 396.093,150.610 396.387,154.500 396.394 C 157.315 396.399,158.000 396.515,158.000 396.990 C 158.000 398.237,160.170 398.800,164.980 398.800 C 168.820 398.800,169.600 398.901,169.600 399.400 C 169.600 399.929,173.778 400.000,204.800 400.000 C 235.822 400.000,240.000 399.929,240.000 399.400 C 240.000 398.899,240.822 398.800,245.000 398.800 C 248.389 398.800,250.000 398.657,250.000 398.357 C 250.000 398.114,250.257 398.013,250.571 398.133 C 251.147 398.355,251.905 397.738,251.964 397.000 C 251.982 396.774,253.574 396.550,255.616 396.485 C 258.600 396.390,259.282 396.249,259.494 395.685 C 259.964 394.430,260.976 394.026,263.800 393.965 C 267.850 393.879,268.975 393.568,269.128 392.497 C 269.241 391.700,269.488 391.599,271.328 391.594 C 273.571 391.587,273.969 391.420,274.641 390.200 C 274.945 389.647,275.563 389.369,276.641 389.300 C 281.078 389.015,281.600 388.833,281.600 387.575 C 281.600 386.405,281.611 386.400,284.000 386.400 C 286.391 386.400,286.400 386.396,286.400 385.219 C 286.400 384.050,286.425 384.037,288.900 383.919 C 291.284 383.806,291.406 383.750,291.525 382.719 C 291.642 381.703,291.785 381.631,293.925 381.519 C 296.075 381.407,296.207 381.340,296.327 380.300 C 296.449 379.238,296.535 379.200,298.827 379.200 C 301.188 379.200,301.200 379.194,301.200 378.020 C 301.200 376.864,301.247 376.837,303.500 376.720 C 305.647 376.608,305.808 376.530,305.921 375.553 C 306.030 374.619,306.256 374.481,308.031 374.271 C 310.426 373.987,310.800 373.785,310.800 372.776 C 310.800 372.179,311.079 372.000,312.010 372.000 C 313.023 372.000,313.257 371.813,313.450 370.850 C 313.655 369.826,313.905 369.661,315.724 369.350 C 317.439 369.056,317.805 368.839,318.006 368.000 C 318.178 367.280,318.473 367.032,319.061 367.115 C 320.030 367.251,320.982 366.251,320.666 365.429 C 320.505 365.008,320.796 364.813,321.722 364.724 C 322.841 364.615,323.016 364.438,323.125 363.300 C 323.247 362.034,323.300 362.000,325.145 362.000 C 327.151 362.000,328.000 361.501,328.000 360.320 C 328.000 359.787,328.311 359.600,329.200 359.600 C 330.267 359.600,330.400 359.467,330.400 358.400 C 330.400 357.333,330.533 357.200,331.600 357.200 C 332.667 357.200,332.800 357.067,332.800 356.000 C 332.800 354.933,332.933 354.800,334.000 354.800 C 335.061 354.800,335.200 354.664,335.200 353.625 C 335.200 352.592,335.357 352.436,336.500 352.325 C 337.635 352.216,337.816 352.039,337.923 350.934 C 338.028 349.845,339.200 348.600,339.200 349.577 C 339.200 350.091,340.410 349.830,340.777 349.238 C 340.949 348.959,341.245 348.702,341.436 348.666 C 342.770 348.412,341.670 347.600,339.992 347.600 C 338.288 347.600,338.040 347.708,337.928 348.500 C 337.829 349.193,337.497 349.429,336.480 349.527 C 335.522 349.619,335.060 349.915,334.797 350.607 C 334.553 351.249,333.928 351.696,332.881 351.978 C 332.026 352.208,331.017 352.740,330.637 353.159 C 330.258 353.578,329.353 354.032,328.625 354.169 C 327.898 354.305,326.900 354.766,326.409 355.193 C 325.917 355.619,324.518 356.258,323.301 356.612 C 322.084 356.965,320.708 357.495,320.244 357.788 C 319.780 358.081,318.452 358.517,317.294 358.757 C 316.136 358.997,314.526 359.471,313.715 359.810 C 307.640 362.348,288.287 362.094,280.092 359.367 C 278.492 358.835,276.854 358.400,276.451 358.400 C 276.049 358.400,274.926 357.979,273.958 357.463 C 272.989 356.948,271.477 356.295,270.598 356.013 C 269.719 355.730,268.730 355.264,268.399 354.977 C 268.069 354.690,267.271 354.255,266.626 354.010 C 265.575 353.610,260.099 350.181,259.600 349.610 C 259.490 349.485,258.860 349.041,258.200 348.625 C 257.540 348.209,256.640 347.549,256.200 347.160 C 255.760 346.770,254.860 345.975,254.200 345.392 C 251.900 343.363,248.990 340.460,247.600 338.808 C 246.830 337.893,245.930 336.833,245.600 336.453 C 245.270 336.072,244.106 334.420,243.014 332.781 C 241.922 331.141,240.729 329.440,240.363 329.000 C 239.998 328.560,239.486 327.536,239.226 326.725 C 238.967 325.914,238.431 324.834,238.036 324.325 C 237.641 323.816,236.998 322.410,236.606 321.200 C 236.214 319.990,235.718 318.778,235.503 318.506 C 235.288 318.234,234.760 316.704,234.331 315.106 C 233.902 313.508,233.183 310.850,232.734 309.200 C 231.038 302.973,231.265 287.829,233.165 280.400 C 234.582 274.857,236.813 268.730,237.756 267.787 C 238.110 267.433,238.400 266.883,238.400 266.566 C 238.400 265.865,239.095 264.587,240.300 263.071 C 240.795 262.448,241.200 261.718,241.200 261.449 C 241.200 260.882,244.352 256.462,245.334 255.651 C 245.700 255.349,246.000 254.917,246.000 254.690 C 246.000 254.341,247.201 253.026,251.247 248.946 C 252.589 247.592,256.286 244.414,258.664 242.569 C 259.360 242.030,260.575 241.319,261.364 240.989 C 262.154 240.659,262.800 240.234,262.800 240.044 C 262.800 239.854,263.745 239.297,264.900 238.807 C 266.055 238.316,267.360 237.593,267.800 237.201 C 268.240 236.808,269.230 236.359,270.000 236.204 C 270.770 236.049,272.120 235.517,273.000 235.022 C 273.880 234.527,275.770 233.891,277.200 233.609 C 278.630 233.327,280.225 232.832,280.744 232.510 C 284.028 230.472,309.365 230.466,312.522 232.503 C 313.005 232.815,314.570 233.293,316.000 233.566 C 317.430 233.839,319.320 234.477,320.200 234.983 C 321.080 235.489,322.430 236.035,323.200 236.195 C 323.970 236.356,325.140 236.889,325.800 237.380 C 326.460 237.871,327.490 238.394,328.089 238.541 C 328.688 238.689,329.498 239.145,329.889 239.556 C 330.280 239.966,331.320 240.665,332.200 241.108 C 333.080 241.552,334.143 242.294,334.562 242.757 C 334.981 243.221,335.553 243.600,335.833 243.600 C 336.113 243.600,336.696 244.050,337.129 244.600 C 337.561 245.150,338.112 245.600,338.353 245.600 C 338.594 245.600,340.676 247.535,342.981 249.900 C 348.144 255.199,348.554 255.660,349.452 257.180 C 349.848 257.851,350.311 258.400,350.480 258.400 C 350.648 258.400,351.226 259.266,351.762 260.325 C 352.299 261.384,353.022 262.486,353.369 262.774 C 353.716 263.062,354.000 263.511,354.000 263.771 C 354.000 264.031,354.515 265.056,355.145 266.049 C 355.775 267.042,356.516 268.562,356.793 269.427 C 357.070 270.292,357.617 271.540,358.008 272.200 C 358.399 272.860,358.937 274.480,359.203 275.800 C 359.469 277.120,359.855 278.408,360.060 278.661 C 363.085 282.397,363.092 309.179,360.069 314.627 C 359.833 315.052,359.367 316.549,359.033 317.954 C 358.699 319.359,358.178 320.799,357.874 321.154 C 357.570 321.509,357.085 322.676,356.796 323.747 C 356.507 324.817,355.875 326.167,355.393 326.747 C 354.910 327.326,354.397 328.446,354.252 329.236 C 354.106 330.026,353.541 331.092,352.994 331.606 C 352.393 332.170,352.000 332.984,352.000 333.662 C 352.000 334.514,351.768 334.843,351.038 335.026 C 349.273 335.469,349.361 338.128,351.134 337.923 C 352.013 337.822,352.222 337.572,352.325 336.500 C 352.436 335.357,352.592 335.200,353.625 335.200 C 354.664 335.200,354.800 335.061,354.800 334.000 C 354.800 332.933,354.933 332.800,356.000 332.800 C 357.061 332.800,357.200 332.664,357.200 331.627 C 357.200 330.644,357.379 330.433,358.298 330.327 C 359.163 330.227,359.442 329.945,359.611 329.000 C 359.764 328.147,360.025 327.834,360.513 327.918 C 360.925 327.988,361.200 327.779,361.200 327.394 C 361.200 327.041,361.380 326.864,361.600 327.000 C 361.846 327.152,362.000 326.479,362.000 325.249 C 362.000 323.287,362.024 323.248,363.300 323.125 C 364.015 323.056,364.623 322.775,364.650 322.500 C 364.678 322.225,364.723 321.730,364.750 321.400 C 364.778 321.070,365.124 320.800,365.520 320.800 C 366.498 320.800,367.200 320.026,367.200 318.948 C 367.200 318.327,367.474 318.017,368.100 317.928 C 368.844 317.822,369.061 317.443,369.350 315.740 C 369.661 313.903,369.824 313.655,370.850 313.450 C 371.813 313.257,372.000 313.023,372.000 312.010 C 372.000 311.060,372.175 310.800,372.813 310.800 C 373.752 310.800,373.952 310.396,374.332 307.740 C 374.579 306.014,374.720 305.800,375.605 305.800 C 376.663 305.800,376.673 305.776,376.750 303.000 C 376.797 301.294,376.860 301.200,377.956 301.200 C 378.623 301.200,379.103 300.989,379.093 300.700 C 378.966 297.305,379.202 296.453,380.300 296.327 C 381.291 296.213,381.413 296.025,381.526 294.446 C 381.654 292.649,382.070 291.956,383.300 291.490 C 383.860 291.278,384.000 290.743,384.000 288.813 C 384.000 286.407,384.004 286.400,385.181 286.400 C 386.350 286.400,386.363 286.375,386.481 283.900 C 386.592 281.561,386.662 281.400,387.560 281.400 C 388.696 281.400,389.132 280.504,389.172 278.087 C 389.191 276.935,389.401 276.298,389.815 276.139 C 390.751 275.780,391.600 273.345,391.600 271.019 C 391.600 269.117,391.678 268.939,392.500 268.968 C 393.140 268.991,393.404 268.768,393.415 268.200 C 393.423 267.759,393.532 267.219,393.657 267.000 C 393.782 266.780,393.920 265.542,393.965 264.248 C 394.030 262.337,394.260 261.626,395.190 260.448 C 396.235 259.126,396.337 258.707,396.372 255.615 C 396.392 253.754,396.587 252.053,396.805 251.835 C 397.022 251.618,397.200 251.588,397.200 251.769 C 397.200 251.950,397.459 251.883,397.776 251.620 C 398.093 251.357,398.254 250.885,398.133 250.571 C 398.013 250.257,398.122 250.000,398.375 250.000 C 398.628 250.000,398.806 249.775,398.770 249.500 C 398.375 246.458,398.870 239.997,399.500 239.972 C 400.099 239.948,400.084 239.894,399.400 239.600 C 398.716 239.306,398.701 239.252,399.300 239.228 C 400.300 239.188,400.400 169.600,399.400 169.600 C 398.905 169.600,398.800 168.867,398.800 165.400 C 398.800 163.090,398.789 161.065,398.776 160.900 C 398.750 160.569,397.175 159.839,396.700 159.938 C 396.535 159.972,396.378 158.605,396.351 156.900 C 396.305 153.925,396.199 151.562,396.064 150.500 C 396.029 150.225,395.752 150.000,395.449 150.000 C 394.425 150.000,394.033 148.969,393.960 146.079 C 393.920 144.495,393.739 143.200,393.556 143.200 C 393.374 143.200,393.317 142.961,393.429 142.668 C 393.541 142.376,393.221 141.921,392.717 141.658 L 391.800 141.179 392.800 141.370 C 393.778 141.556,393.093 140.704,391.951 140.314 C 391.767 140.251,391.568 139.345,391.508 138.300 C 391.449 137.255,391.235 136.400,391.033 136.400 C 390.832 136.400,390.775 136.291,390.908 136.159 C 391.040 136.026,390.691 135.524,390.131 135.042 C 389.333 134.355,389.091 133.738,389.013 132.183 C 388.804 128.050,388.854 128.258,388.200 128.800 C 387.709 129.208,387.600 129.180,387.600 128.649 C 387.600 128.292,387.330 128.000,387.000 128.000 C 386.575 128.000,386.385 127.533,386.350 126.400 C 386.322 125.520,386.255 124.620,386.200 124.400 C 386.145 124.180,386.078 123.843,386.050 123.652 C 386.023 123.461,385.595 123.326,385.100 123.352 C 384.268 123.396,384.191 123.208,384.080 120.868 C 383.972 118.577,383.898 118.386,383.303 118.868 C 382.832 119.250,382.731 119.259,382.947 118.900 C 383.148 118.565,382.976 118.400,382.424 118.400 C 381.626 118.400,381.325 116.994,381.564 114.388 C 381.600 113.995,381.235 113.744,380.542 113.687 C 379.152 113.572,379.216 113.682,379.070 111.165 C 378.988 109.765,378.777 109.035,378.472 109.100 C 378.212 109.155,378.000 109.020,378.000 108.800 C 378.000 108.580,377.730 108.400,377.400 108.400 C 376.844 108.400,376.686 107.755,376.692 105.509 C 376.693 105.129,376.507 104.934,376.279 105.075 C 376.022 105.234,375.964 105.070,376.127 104.645 C 376.284 104.237,376.230 104.058,375.995 104.203 C 375.778 104.337,375.600 104.257,375.600 104.024 C 375.600 103.791,375.341 103.600,375.025 103.600 C 374.669 103.600,374.403 103.105,374.325 102.300 C 374.256 101.585,374.065 101.045,373.900 101.100 C 373.253 101.316,372.162 99.729,372.066 98.434 C 371.932 96.610,371.682 96.291,370.553 96.507 C 369.615 96.686,369.436 96.353,369.487 94.532 C 369.495 94.274,369.253 94.158,368.950 94.274 C 368.263 94.538,368.215 93.748,368.900 93.445 C 369.175 93.323,369.059 93.263,368.641 93.312 C 368.224 93.360,367.795 93.146,367.687 92.836 C 367.550 92.442,367.694 92.350,368.166 92.532 C 368.575 92.688,368.742 92.630,368.591 92.385 C 368.453 92.161,368.038 92.029,367.670 92.089 C 367.188 92.169,367.027 91.947,367.095 91.300 C 367.148 90.805,366.993 90.400,366.752 90.400 C 366.512 90.400,366.418 90.130,366.545 89.800 C 366.716 89.354,366.485 89.200,365.643 89.200 C 364.651 89.200,364.535 89.076,364.702 88.200 C 364.811 87.630,364.701 87.179,364.447 87.150 C 362.715 86.956,362.022 86.295,361.907 84.727 C 361.848 83.930,361.657 83.366,361.482 83.473 C 361.308 83.581,360.907 83.454,360.591 83.192 C 359.816 82.549,358.769 80.400,359.231 80.400 C 359.434 80.400,359.600 80.226,359.600 80.013 C 359.600 79.799,359.300 79.740,358.934 79.881 C 358.470 80.059,358.361 79.986,358.575 79.641 C 358.782 79.306,358.646 79.187,358.153 79.273 C 357.618 79.366,357.369 79.083,357.209 78.200 C 357.037 77.246,356.788 77.000,355.996 77.000 C 355.165 77.000,354.979 76.785,354.875 75.700 C 354.764 74.557,354.608 74.400,353.575 74.400 C 352.532 74.400,352.400 74.263,352.400 73.182 C 352.400 72.440,352.205 71.990,351.900 72.030 C 350.468 72.216,350.000 71.959,350.000 70.990 C 350.000 70.188,349.753 69.931,348.800 69.740 C 347.801 69.540,347.600 69.308,347.600 68.350 C 347.600 67.519,347.405 67.200,346.896 67.200 C 346.213 67.200,344.944 65.704,345.115 65.100 C 345.162 64.935,344.930 64.800,344.600 64.800 C 343.807 64.800,342.508 63.477,342.708 62.875 C 342.807 62.579,342.417 62.400,341.676 62.400 C 340.578 62.400,339.740 61.554,340.157 60.864 C 340.361 60.525,339.550 59.812,338.900 59.760 C 337.683 59.663,337.527 59.568,337.726 59.049 C 337.842 58.746,337.727 58.269,337.469 57.990 C 337.103 57.594,337.124 57.553,337.562 57.803 C 337.946 58.022,338.030 57.972,337.828 57.646 C 337.666 57.383,337.233 57.261,336.866 57.375 C 335.884 57.680,335.216 57.100,335.113 55.854 C 335.046 55.046,334.845 54.800,334.355 54.928 C 333.379 55.183,332.622 54.573,332.610 53.521 C 332.604 52.961,332.388 52.645,332.059 52.714 C 331.071 52.921,330.032 52.381,330.263 51.780 C 330.386 51.461,330.286 51.200,330.043 51.200 C 329.799 51.200,329.600 51.009,329.600 50.776 C 329.600 50.543,329.808 50.481,330.062 50.638 C 330.355 50.819,330.415 50.747,330.226 50.442 C 329.998 50.074,329.797 50.071,329.364 50.430 C 328.959 50.766,328.800 50.772,328.800 50.449 C 328.800 50.202,328.665 50.021,328.500 50.047 C 327.638 50.183,327.182 49.949,327.435 49.500 C 327.654 49.112,327.602 49.106,327.204 49.474 C 326.807 49.841,326.568 49.825,326.146 49.403 C 325.465 48.722,325.447 48.127,326.100 47.869 C 326.375 47.761,325.953 47.684,325.163 47.698 C 323.329 47.732,322.846 47.420,322.971 46.280 C 323.051 45.555,322.858 45.346,322.047 45.279 C 321.484 45.232,320.748 44.900,320.411 44.541 C 320.075 44.181,320.008 44.003,320.263 44.144 C 320.568 44.313,320.655 44.133,320.520 43.615 C 320.407 43.182,320.198 42.843,320.057 42.862 C 318.636 43.044,317.193 42.733,317.453 42.300 C 317.689 41.908,317.626 41.903,317.163 42.277 C 316.545 42.777,315.177 42.289,315.708 41.759 C 316.186 41.280,315.162 40.400,314.127 40.400 C 313.591 40.400,313.255 40.235,313.379 40.034 C 313.503 39.833,313.379 39.577,313.102 39.466 C 312.755 39.326,312.786 39.253,313.200 39.229 C 313.927 39.188,311.745 38.000,310.942 38.000 C 310.630 38.000,310.273 37.734,310.148 37.408 C 309.777 36.443,307.305 35.113,306.409 35.397 C 305.790 35.594,305.660 35.508,305.845 35.026 C 306.002 34.618,305.862 34.400,305.443 34.400 C 305.089 34.400,304.797 34.085,304.794 33.700 C 304.789 33.102,304.731 33.087,304.400 33.600 C 304.047 34.146,303.824 33.883,303.959 33.081 C 303.988 32.906,303.785 32.792,303.506 32.828 C 302.201 33.000,300.777 32.761,300.995 32.408 C 301.323 31.877,300.490 30.392,299.886 30.432 C 299.520 30.455,299.523 30.513,299.900 30.665 C 300.175 30.776,300.400 31.036,300.400 31.244 C 300.400 31.451,299.869 31.346,299.220 31.010 C 298.571 30.675,297.591 30.400,297.043 30.400 C 296.291 30.400,296.081 30.219,296.187 29.666 C 296.406 28.531,295.710 27.633,295.206 28.400 C 294.902 28.863,294.811 28.876,294.806 28.458 C 294.802 28.070,294.357 27.958,293.238 28.065 C 292.039 28.179,291.567 28.040,291.209 27.465 C 290.951 27.053,290.917 26.825,291.133 26.959 C 291.353 27.095,291.445 26.894,291.342 26.501 C 291.193 25.928,290.705 25.800,288.680 25.800 C 286.261 25.800,286.200 25.774,286.200 24.736 C 286.200 24.150,286.055 23.526,285.879 23.348 C 285.702 23.170,285.670 23.316,285.806 23.672 C 285.943 24.028,285.858 24.441,285.617 24.589 C 285.377 24.738,285.206 24.711,285.237 24.530 C 285.391 23.644,285.077 23.392,283.698 23.298 C 281.561 23.153,280.866 23.004,280.512 22.614 C 280.340 22.426,280.413 22.394,280.672 22.542 C 281.325 22.917,281.794 22.034,281.237 21.477 C 280.988 21.228,279.407 20.982,277.723 20.929 C 274.541 20.829,272.699 20.004,273.943 19.236 C 274.723 18.753,274.121 18.566,271.418 18.448 C 269.566 18.368,268.913 18.168,268.477 17.546 C 268.169 17.106,267.671 16.840,267.371 16.956 C 267.071 17.071,266.702 16.965,266.551 16.721 C 266.370 16.428,266.469 16.388,266.838 16.602 C 267.147 16.782,267.267 16.782,267.105 16.602 C 266.820 16.287,265.722 16.184,261.313 16.059 C 259.543 16.009,259.264 15.899,259.481 15.334 C 259.652 14.887,259.583 14.764,259.268 14.958 C 259.011 15.117,258.800 15.072,258.800 14.857 C 258.800 14.642,258.935 14.391,259.100 14.299 C 259.265 14.207,259.181 14.184,258.913 14.248 C 258.645 14.312,258.344 14.233,258.244 14.072 C 258.145 13.910,256.294 13.731,254.132 13.673 C 251.969 13.614,250.143 13.404,250.074 13.206 C 250.005 13.007,249.645 12.949,249.274 13.076 C 248.752 13.255,248.781 13.153,249.400 12.624 C 249.840 12.248,249.944 12.074,249.632 12.236 C 249.203 12.459,249.130 12.345,249.333 11.766 C 249.594 11.023,249.584 11.024,249.001 11.776 C 248.570 12.333,248.400 12.390,248.400 11.976 C 248.400 11.289,247.664 11.191,241.668 11.082 C 237.875 11.013,237.053 10.886,236.624 10.300 C 236.342 9.915,235.984 9.600,235.827 9.600 C 235.671 9.600,235.273 9.330,234.943 9.000 C 234.256 8.313,232.525 8.220,231.026 8.790 C 230.462 9.005,230.000 9.030,230.000 8.846 C 230.000 8.413,180.637 8.388,179.130 8.820 C 178.434 9.020,178.075 9.002,178.216 8.774 C 178.583 8.181,175.454 8.369,174.924 8.973 M360.436 82.644 C 360.668 82.923,361.123 83.051,361.446 82.927 C 362.176 82.647,361.844 82.270,360.799 82.193 C 360.206 82.149,360.117 82.260,360.436 82.644 M18.397 141.900 C 18.395 142.285,17.949 142.806,17.405 143.059 C 16.360 143.543,16.657 142.243,17.760 141.506 C 18.374 141.096,18.400 141.113,18.397 141.900 M348.100 339.088 C 347.342 339.359,347.447 341.952,348.211 341.840 C 348.547 341.790,348.844 341.581,348.871 341.375 C 348.898 341.169,349.208 340.772,349.560 340.494 C 350.069 340.092,350.080 340.010,349.618 340.094 C 349.298 340.152,349.028 339.990,349.018 339.733 C 348.993 339.090,348.691 338.877,348.100 339.088 M345.055 342.679 C 344.945 342.788,344.953 343.133,345.072 343.444 C 345.385 344.259,344.420 345.249,343.443 345.115 C 342.646 345.005,342.554 345.229,342.750 346.800 C 342.778 347.020,343.018 347.155,343.284 347.100 C 343.954 346.962,344.748 346.252,344.567 345.953 C 344.486 345.818,344.775 345.385,345.209 344.991 C 345.644 344.598,346.000 344.401,346.000 344.554 C 346.000 344.707,346.240 344.607,346.533 344.333 C 347.072 343.830,347.264 342.826,346.833 342.769 C 346.705 342.753,346.297 342.680,345.927 342.609 C 345.557 342.537,345.165 342.569,345.055 342.679 " stroke="none" fill="#08d9d8" fill-rule="evenodd"></path><path id="path2" d="M315.628 40.651 C 315.714 41.717,316.372 42.545,317.228 42.666 C 317.887 42.758,318.028 42.691,317.666 42.456 C 317.372 42.266,317.192 41.973,317.266 41.804 C 317.340 41.635,316.995 41.229,316.500 40.900 C 316.005 40.571,315.613 40.459,315.628 40.651 M16.826 141.369 C 16.205 142.117,16.599 142.800,17.651 142.800 C 18.249 142.800,18.423 142.577,18.328 141.931 C 18.168 140.846,17.475 140.587,16.826 141.369 M245.600 257.400 C 245.083 257.950,244.827 258.394,245.030 258.387 C 245.372 258.376,247.021 256.400,246.688 256.400 C 246.606 256.400,246.117 256.850,245.600 257.400 M243.173 260.905 C 242.639 261.617,241.915 262.830,241.565 263.600 C 241.214 264.370,240.628 265.247,240.263 265.549 C 239.899 265.851,239.600 266.315,239.600 266.581 C 239.600 266.847,239.138 267.950,238.574 269.032 C 238.010 270.114,237.274 271.886,236.939 272.968 C 236.603 274.051,235.985 275.578,235.564 276.362 C 235.144 277.146,234.797 278.241,234.793 278.794 C 234.789 279.347,234.427 281.150,233.987 282.800 C 232.214 289.450,231.862 303.344,233.343 308.200 C 233.679 309.300,234.259 311.730,234.633 313.600 C 235.007 315.470,235.542 317.360,235.822 317.800 C 236.103 318.240,236.609 319.551,236.948 320.714 C 237.288 321.876,237.905 323.316,238.321 323.914 C 238.737 324.511,239.279 325.593,239.525 326.319 C 239.770 327.044,240.338 328.103,240.786 328.673 C 241.234 329.242,241.602 329.909,241.604 330.154 C 241.606 330.399,242.229 331.382,242.989 332.337 C 243.748 333.293,244.473 334.401,244.600 334.801 C 244.727 335.201,245.274 335.819,245.816 336.173 C 246.357 336.528,246.800 337.037,246.800 337.305 C 246.800 337.792,247.041 338.065,250.765 341.800 C 254.833 345.881,261.553 351.200,262.640 351.200 C 262.894 351.200,263.347 351.495,263.645 351.855 C 263.944 352.215,265.001 352.858,265.994 353.283 C 266.987 353.709,268.070 354.287,268.400 354.569 C 268.730 354.850,269.990 355.394,271.200 355.776 C 272.410 356.159,273.670 356.698,274.000 356.973 C 274.330 357.248,276.040 357.795,277.800 358.187 C 279.560 358.580,282.080 359.277,283.400 359.737 C 287.107 361.030,306.205 361.003,309.800 359.701 C 311.120 359.223,313.550 358.535,315.200 358.172 C 316.850 357.809,318.740 357.186,319.400 356.786 C 320.060 356.387,321.455 355.845,322.500 355.583 C 323.545 355.320,324.400 354.980,324.400 354.827 C 324.400 354.480,327.038 353.200,327.752 353.200 C 328.040 353.200,328.615 352.825,329.030 352.367 C 329.445 351.909,330.415 351.270,331.186 350.948 C 331.958 350.626,332.952 350.031,333.395 349.627 C 333.838 349.223,334.605 348.769,335.100 348.619 C 335.596 348.469,336.191 347.953,336.422 347.473 C 336.804 346.682,336.791 346.666,336.280 347.297 C 335.970 347.681,334.982 348.254,334.085 348.570 C 333.189 348.886,332.082 349.518,331.627 349.973 C 331.169 350.431,330.280 350.800,329.633 350.800 C 328.992 350.800,328.407 350.935,328.333 351.100 C 327.520 352.929,323.773 353.034,324.137 351.217 C 324.364 350.082,322.404 347.600,321.281 347.600 C 321.016 347.600,320.800 347.456,320.800 347.281 C 320.800 346.667,318.170 344.303,316.484 343.401 C 315.284 342.759,314.963 342.423,315.392 342.258 C 315.726 342.130,316.000 341.679,316.000 341.256 C 316.000 340.741,316.496 340.287,317.500 339.883 C 318.325 339.551,319.404 338.811,319.897 338.240 C 321.066 336.886,320.770 336.927,318.737 338.400 C 317.825 339.060,316.808 339.600,316.475 339.600 C 316.142 339.600,315.134 340.022,314.235 340.537 C 313.336 341.052,311.070 341.794,309.200 342.184 C 307.330 342.575,305.550 343.096,305.244 343.343 C 304.925 343.600,303.125 343.793,301.017 343.796 C 295.806 343.802,295.836 343.843,295.669 336.456 C 295.466 327.437,295.655 327.099,301.240 326.483 C 303.297 326.256,305.218 325.780,306.194 325.256 C 308.190 324.184,307.644 324.164,304.696 325.200 C 302.295 326.044,301.147 326.148,298.695 325.742 C 297.664 325.572,297.301 325.353,297.543 325.047 C 298.194 324.222,298.331 321.835,298.029 316.600 L 297.729 311.400 297.664 316.638 C 297.594 322.329,297.416 322.804,295.144 323.343 C 293.693 323.687,286.876 322.207,285.614 321.274 C 285.048 320.855,284.138 320.376,283.592 320.210 C 281.862 319.682,278.030 316.357,274.535 312.351 C 271.031 308.335,268.830 299.154,270.783 296.700 C 271.602 295.671,271.869 295.597,274.929 295.547 L 278.200 295.494 274.848 295.143 C 272.250 294.872,271.250 294.916,270.399 295.341 C 268.298 296.389,267.868 295.645,268.150 291.453 L 268.396 287.800 267.620 289.600 C 267.194 290.590,266.835 292.081,266.822 292.913 C 266.758 297.237,266.012 297.688,258.669 297.840 C 250.723 298.006,248.210 296.657,249.609 292.977 C 249.806 292.458,250.265 290.001,250.629 287.517 C 251.031 284.769,251.645 282.295,252.196 281.200 C 252.694 280.210,253.226 278.823,253.378 278.119 C 253.531 277.414,254.037 276.353,254.503 275.760 C 255.067 275.043,255.158 274.743,254.775 274.862 C 254.459 274.960,253.788 275.893,253.285 276.935 C 252.782 277.978,251.942 279.026,251.419 279.264 C 250.896 279.502,250.350 280.081,250.207 280.549 C 249.933 281.444,249.824 281.296,249.426 279.496 C 249.078 277.916,243.636 272.509,241.734 271.853 C 240.007 271.257,239.195 267.978,240.533 266.999 C 241.225 266.494,242.400 263.820,242.400 262.751 C 242.400 262.338,242.576 262.000,242.791 262.000 C 243.247 262.000,244.595 260.062,244.326 259.792 C 244.225 259.692,243.706 260.193,243.173 260.905 " stroke="none" fill="#5069da" fill-rule="evenodd"></path><path id="path3" d="M291.600 251.050 C 287.539 251.469,283.998 252.242,282.342 253.071 C 281.320 253.582,280.196 254.000,279.843 254.000 C 279.168 254.000,274.472 256.403,271.787 258.122 C 267.263 261.020,261.020 267.263,258.122 271.787 C 256.460 274.382,254.000 279.158,254.000 279.789 C 254.000 280.112,253.573 281.327,253.050 282.488 C 251.260 286.469,250.477 293.658,251.628 295.550 L 252.388 296.800 257.094 296.777 C 265.222 296.737,265.892 296.338,265.970 291.487 C 265.986 290.435,266.288 288.905,266.639 288.087 C 266.991 287.269,267.595 285.700,267.983 284.600 C 269.037 281.611,272.236 276.906,275.000 274.280 C 277.641 271.770,278.128 271.370,279.866 270.279 C 280.783 269.703,281.640 269.059,281.771 268.847 C 281.902 268.635,282.592 268.336,283.305 268.181 C 284.017 268.027,285.410 267.495,286.400 266.997 C 287.435 266.478,289.756 265.882,291.859 265.595 C 296.928 264.906,296.579 265.429,296.727 258.287 C 296.879 250.952,296.583 250.535,291.600 251.050 M297.900 271.422 C 297.358 271.984,297.543 284.321,298.100 284.784 C 298.375 285.012,299.887 285.874,301.459 286.700 C 304.617 288.357,306.843 290.822,307.578 293.474 C 308.349 296.261,308.156 296.187,314.956 296.335 L 321.143 296.471 321.785 295.228 C 322.960 292.957,320.244 283.662,317.862 281.800 C 317.580 281.580,317.016 280.830,316.609 280.134 C 316.201 279.438,315.448 278.677,314.934 278.443 C 314.420 278.209,314.000 277.849,314.000 277.644 C 314.000 277.141,309.005 273.600,308.296 273.600 C 307.988 273.600,306.850 273.141,305.768 272.580 C 303.769 271.545,298.526 270.773,297.900 271.422 M271.429 297.968 C 270.518 298.975,270.894 302.564,272.209 305.400 C 272.719 306.500,273.266 307.850,273.425 308.400 C 273.584 308.950,274.319 310.139,275.057 311.041 C 275.796 311.944,276.400 312.813,276.400 312.973 C 276.400 313.309,280.082 316.800,280.437 316.800 C 280.568 316.800,281.199 317.257,281.838 317.815 C 285.160 320.718,292.976 322.944,295.269 321.640 L 296.395 321.000 296.374 316.200 C 296.343 308.879,296.195 308.372,293.830 307.494 C 291.029 306.454,288.407 304.078,287.030 301.333 C 284.895 297.077,285.158 297.200,278.192 297.200 C 272.717 297.200,272.056 297.275,271.429 297.968 M328.800 298.115 C 328.118 298.459,327.770 298.997,327.705 299.809 C 327.126 307.026,324.098 313.464,318.781 318.781 C 316.981 320.581,311.886 324.399,311.281 324.401 C 311.126 324.401,310.010 324.923,308.800 325.560 C 307.411 326.290,305.420 326.891,303.400 327.188 C 297.148 328.108,297.214 328.017,297.206 335.656 C 297.198 342.882,297.395 343.185,301.654 342.496 C 308.833 341.334,310.760 340.918,311.650 340.339 C 312.173 339.999,313.320 339.493,314.200 339.215 C 315.080 338.936,316.610 338.231,317.600 337.647 C 318.590 337.063,319.873 336.319,320.451 335.993 C 324.465 333.730,331.692 327.023,333.805 323.600 C 334.416 322.610,335.140 321.667,335.414 321.505 C 335.687 321.343,336.035 320.713,336.186 320.105 C 336.338 319.497,336.881 318.450,337.393 317.777 C 337.905 317.104,338.596 315.635,338.930 314.511 C 339.263 313.388,339.832 312.018,340.193 311.467 C 340.554 310.916,341.107 308.785,341.422 306.733 C 341.736 304.680,342.149 302.047,342.340 300.883 C 342.845 297.790,342.441 297.599,335.411 297.606 C 331.710 297.610,329.460 297.783,328.800 298.115 " stroke="none" fill="#f8f0f6" fill-rule="evenodd"></path><path id="path4" d="M193.705 8.687 C 194.314 8.779,195.214 8.777,195.705 8.682 C 196.197 8.587,195.700 8.511,194.600 8.514 C 193.500 8.517,193.097 8.595,193.705 8.687 M214.307 8.690 C 215.026 8.779,216.106 8.777,216.707 8.686 C 217.308 8.595,216.720 8.522,215.400 8.524 C 214.080 8.526,213.588 8.601,214.307 8.690 M172.800 9.200 C 172.364 9.482,172.343 9.589,172.724 9.594 C 173.012 9.597,173.136 9.780,173.000 10.000 C 172.864 10.220,172.943 10.400,173.176 10.400 C 173.409 10.400,173.600 10.040,173.600 9.600 C 173.600 8.682,173.601 8.683,172.800 9.200 M235.200 9.200 C 235.200 9.420,235.396 9.600,235.636 9.600 C 235.876 9.600,236.421 10.005,236.848 10.500 L 237.624 11.400 237.512 10.400 C 237.450 9.850,237.190 9.400,236.933 9.400 C 236.677 9.400,236.332 9.265,236.167 9.100 C 235.740 8.673,235.200 8.729,235.200 9.200 M150.400 15.246 C 150.400 15.702,150.611 15.996,150.875 15.908 C 151.616 15.661,151.700 14.924,151.017 14.662 C 150.585 14.496,150.400 14.671,150.400 15.246 M143.067 16.267 C 142.565 16.768,142.799 17.150,143.572 17.092 C 143.997 17.060,144.265 16.905,144.167 16.747 C 144.070 16.590,144.307 16.378,144.695 16.277 C 145.163 16.155,145.053 16.077,144.367 16.046 C 143.798 16.021,143.213 16.120,143.067 16.267 M264.400 16.155 C 264.400 16.240,264.930 16.387,265.579 16.482 C 266.227 16.577,266.667 16.508,266.555 16.328 C 266.357 16.007,264.400 15.850,264.400 16.155 M124.705 23.629 C 124.323 23.852,123.798 24.432,123.539 24.917 C 123.142 25.664,123.156 25.728,123.635 25.334 C 123.946 25.078,124.380 24.853,124.600 24.834 C 124.820 24.815,125.000 24.592,125.000 24.338 C 125.000 24.084,125.331 23.828,125.737 23.768 C 126.142 23.709,126.577 23.557,126.703 23.430 C 127.097 23.037,125.438 23.202,124.705 23.629 M96.650 38.613 C 96.266 39.615,96.361 40.281,96.792 39.600 C 97.000 39.270,97.357 39.000,97.585 39.000 C 98.218 39.000,98.121 38.216,97.471 38.080 C 97.158 38.015,96.788 38.254,96.650 38.613 M325.798 48.403 C 325.538 48.825,326.314 49.744,327.043 49.878 C 327.276 49.921,327.467 49.706,327.467 49.400 C 327.467 49.094,327.272 48.879,327.033 48.922 C 326.795 48.965,326.645 48.775,326.700 48.500 C 326.819 47.903,326.152 47.831,325.798 48.403 M52.289 79.205 C 51.524 80.098,51.435 80.400,51.936 80.400 C 52.120 80.400,52.477 79.950,52.727 79.400 C 53.279 78.190,53.191 78.151,52.289 79.205 M50.400 80.976 C 50.400 82.202,50.628 82.301,50.916 81.200 C 51.031 80.761,50.962 80.300,50.762 80.177 C 50.563 80.054,50.400 80.413,50.400 80.976 M360.669 83.216 C 361.291 83.812,361.861 84.246,361.937 84.180 C 362.178 83.968,361.268 82.598,360.928 82.660 C 360.748 82.693,360.635 82.588,360.678 82.427 C 360.721 82.265,360.482 82.133,360.147 82.133 C 359.731 82.133,359.896 82.476,360.669 83.216 M44.000 89.557 C 44.000 89.827,43.839 89.948,43.642 89.826 C 43.445 89.704,43.181 89.874,43.054 90.202 C 42.928 90.531,42.977 90.800,43.164 90.800 C 43.675 90.800,44.551 89.617,44.257 89.324 C 44.116 89.182,44.000 89.287,44.000 89.557 M367.622 92.600 C 367.627 93.129,368.742 94.591,368.969 94.365 C 369.066 94.268,368.802 93.741,368.382 93.194 C 367.961 92.647,367.620 92.380,367.622 92.600 M34.000 104.709 C 34.000 105.005,33.820 105.136,33.600 105.000 C 33.380 104.864,33.200 104.943,33.200 105.176 C 33.200 105.409,33.425 105.603,33.700 105.606 C 34.039 105.610,34.010 105.732,33.612 105.984 C 33.288 106.189,33.143 106.477,33.290 106.623 C 33.437 106.770,33.897 106.331,34.313 105.647 C 34.729 104.963,35.189 104.522,35.335 104.668 C 35.481 104.814,35.600 104.735,35.600 104.492 C 35.600 104.249,35.240 104.077,34.800 104.110 C 34.360 104.143,34.000 104.413,34.000 104.709 M21.776 128.987 C 21.074 129.519,21.067 129.576,21.700 129.587 C 22.085 129.594,22.400 129.409,22.400 129.176 C 22.400 128.943,22.608 128.881,22.862 129.038 C 23.148 129.215,23.215 129.148,23.038 128.862 C 22.681 128.285,22.709 128.282,21.776 128.987 M396.432 159.124 C 396.414 159.632,396.568 159.944,396.772 159.817 C 396.977 159.691,397.258 159.770,397.396 159.993 C 397.534 160.217,397.862 160.394,398.124 160.387 C 398.389 160.380,398.292 160.141,397.906 159.848 C 397.525 159.558,397.345 159.175,397.506 158.996 C 397.668 158.818,397.590 158.792,397.334 158.938 C 397.078 159.085,396.777 158.979,396.666 158.702 C 396.554 158.426,396.449 158.616,396.432 159.124 M11.829 160.629 C 11.138 161.320,10.956 162.598,11.607 162.196 C 11.830 162.058,11.922 161.798,11.811 161.618 C 11.550 161.196,12.589 160.322,12.937 160.670 C 13.082 160.815,13.200 160.723,13.200 160.467 C 13.200 159.812,12.571 159.886,11.829 160.629 M286.562 231.399 C 283.806 231.684,281.310 232.158,280.762 232.498 C 280.233 232.827,278.630 233.327,277.200 233.609 C 275.770 233.891,273.880 234.527,273.000 235.022 C 272.120 235.517,270.770 236.049,270.000 236.204 C 269.230 236.359,268.240 236.808,267.800 237.201 C 267.360 237.593,266.055 238.316,264.900 238.807 C 263.745 239.297,262.800 239.854,262.800 240.044 C 262.800 240.234,262.154 240.659,261.364 240.989 C 260.575 241.319,259.360 242.030,258.664 242.569 C 256.286 244.414,252.589 247.592,251.247 248.946 C 247.201 253.026,246.000 254.341,246.000 254.690 C 246.000 254.917,245.700 255.349,245.334 255.651 C 244.352 256.462,241.200 260.882,241.200 261.449 C 241.200 261.718,240.795 262.448,240.300 263.071 C 239.095 264.587,238.400 265.865,238.400 266.566 C 238.400 266.883,238.110 267.433,237.756 267.787 C 236.813 268.730,234.582 274.857,233.165 280.400 C 231.265 287.829,231.038 302.973,232.734 309.200 C 233.183 310.850,233.902 313.508,234.331 315.106 C 234.760 316.704,235.288 318.234,235.503 318.506 C 235.718 318.778,236.214 319.990,236.606 321.200 C 236.998 322.410,237.641 323.816,238.036 324.325 C 238.431 324.834,238.971 325.914,239.235 326.725 C 239.500 327.536,240.140 328.709,240.658 329.331 C 241.809 330.712,241.924 330.120,240.786 328.673 C 240.338 328.103,239.770 327.044,239.525 326.319 C 239.279 325.593,238.737 324.511,238.321 323.914 C 237.905 323.316,237.288 321.876,236.948 320.714 C 236.609 319.551,236.103 318.240,235.822 317.800 C 235.542 317.360,235.007 315.470,234.633 313.600 C 234.259 311.730,233.679 309.300,233.343 308.200 C 231.862 303.344,232.214 289.450,233.987 282.800 C 234.427 281.150,234.789 279.347,234.793 278.794 C 234.797 278.241,235.144 277.146,235.564 276.362 C 235.985 275.578,236.603 274.051,236.939 272.968 C 237.274 271.886,238.010 270.114,238.574 269.032 C 239.138 267.950,239.600 266.853,239.600 266.594 C 239.600 266.336,239.944 265.813,240.363 265.433 C 240.783 265.053,241.362 264.170,241.649 263.471 C 242.141 262.273,243.015 260.973,246.096 256.859 C 246.813 255.901,248.525 253.973,249.900 252.575 C 251.275 251.176,252.400 249.845,252.400 249.616 C 252.400 249.387,252.598 249.200,252.840 249.200 C 253.081 249.200,253.762 248.705,254.352 248.100 C 256.391 246.008,260.532 242.946,263.683 241.200 C 267.622 239.018,271.396 237.201,273.247 236.597 C 274.431 236.210,275.599 235.738,275.842 235.547 C 276.084 235.355,277.918 234.857,279.917 234.438 C 281.915 234.020,283.738 233.562,283.967 233.420 C 287.126 231.468,303.457 231.800,311.600 233.982 C 313.250 234.425,314.963 234.789,315.406 234.793 C 315.849 234.797,316.854 235.144,317.638 235.564 C 318.422 235.985,320.001 236.607,321.146 236.947 C 322.291 237.287,323.716 237.908,324.314 238.327 C 324.911 238.746,326.053 239.301,326.852 239.560 C 327.650 239.818,328.623 240.383,329.014 240.815 C 329.404 241.247,329.943 241.600,330.211 241.600 C 331.970 241.600,343.291 251.459,347.074 256.285 C 349.494 259.371,351.200 261.823,351.200 262.214 C 351.200 262.453,351.545 263.019,351.966 263.471 C 352.387 263.924,353.129 265.217,353.615 266.347 C 354.101 267.476,354.636 268.400,354.803 268.400 C 354.971 268.400,355.411 269.345,355.782 270.500 C 356.152 271.655,356.796 273.320,357.212 274.200 C 357.629 275.080,358.171 276.790,358.417 278.000 C 358.664 279.210,359.214 281.162,359.641 282.337 C 361.273 286.835,361.364 306.162,359.773 310.498 C 359.430 311.434,358.802 313.714,358.377 315.565 C 357.953 317.416,357.351 319.216,357.039 319.565 C 356.727 319.914,356.173 321.235,355.807 322.500 C 355.442 323.765,355.000 324.800,354.826 324.800 C 354.651 324.800,354.191 325.655,353.802 326.700 C 353.413 327.745,352.669 329.060,352.148 329.622 C 351.626 330.184,351.200 330.924,351.200 331.267 C 351.200 331.610,350.660 332.569,350.000 333.400 C 349.340 334.231,348.800 335.149,348.800 335.441 C 348.800 335.733,348.442 336.164,348.004 336.398 C 347.566 336.632,346.938 337.346,346.609 337.984 C 346.279 338.621,345.665 339.253,345.244 339.386 C 344.824 339.519,344.368 340.072,344.232 340.614 C 344.096 341.156,343.751 341.600,343.466 341.600 C 343.181 341.600,342.385 342.185,341.699 342.900 C 341.012 343.615,339.854 344.701,339.125 345.314 C 338.396 345.927,337.209 346.962,336.486 347.614 C 335.764 348.266,334.931 348.800,334.635 348.800 C 334.340 348.800,333.851 349.099,333.549 349.465 C 333.247 349.831,332.269 350.454,331.375 350.850 C 330.481 351.247,329.419 351.937,329.013 352.385 C 328.608 352.833,328.040 353.200,327.752 353.200 C 327.038 353.200,324.400 354.480,324.400 354.827 C 324.400 354.980,323.545 355.320,322.500 355.583 C 321.455 355.845,320.060 356.387,319.400 356.786 C 318.740 357.186,316.850 357.809,315.200 358.172 C 313.550 358.535,311.120 359.223,309.800 359.701 C 306.205 361.003,287.107 361.030,283.400 359.737 C 282.080 359.277,279.560 358.580,277.800 358.187 C 276.040 357.795,274.330 357.248,274.000 356.973 C 273.670 356.698,272.411 356.151,271.203 355.759 C 269.995 355.366,268.395 354.630,267.647 354.122 C 266.900 353.615,266.057 353.200,265.775 353.200 C 265.492 353.200,264.700 352.728,264.014 352.150 C 263.328 351.573,262.676 351.191,262.566 351.301 C 262.310 351.556,265.976 354.000,266.615 354.000 C 266.877 354.000,267.521 354.334,268.046 354.742 C 268.571 355.150,269.719 355.718,270.598 356.005 C 271.477 356.292,272.989 356.948,273.958 357.463 C 274.926 357.979,276.049 358.400,276.451 358.400 C 276.854 358.400,278.492 358.835,280.092 359.367 C 288.287 362.094,307.640 362.348,313.715 359.810 C 314.526 359.471,316.136 358.997,317.294 358.757 C 318.452 358.517,319.780 358.081,320.244 357.788 C 320.708 357.495,322.084 356.965,323.301 356.612 C 324.518 356.258,325.917 355.619,326.409 355.193 C 326.900 354.766,327.898 354.305,328.625 354.169 C 329.353 354.032,330.258 353.578,330.637 353.159 C 331.017 352.740,332.026 352.208,332.881 351.978 C 333.928 351.696,334.553 351.249,334.797 350.607 C 335.060 349.915,335.522 349.619,336.480 349.527 C 337.497 349.429,337.829 349.193,337.928 348.500 C 338.041 347.704,338.286 347.600,340.051 347.600 C 341.280 347.600,341.952 347.754,341.800 348.000 C 341.664 348.220,341.743 348.400,341.976 348.400 C 342.431 348.400,342.519 348.072,342.568 346.200 C 342.594 345.219,342.753 345.021,343.439 345.115 C 344.440 345.252,345.297 344.345,345.124 343.332 C 345.028 342.768,345.270 342.596,346.200 342.570 C 348.076 342.518,348.400 342.430,348.400 341.976 C 348.400 341.743,348.220 341.664,348.000 341.800 C 347.762 341.947,347.600 341.471,347.600 340.624 C 347.600 339.841,347.780 339.200,348.000 339.200 C 348.220 339.200,348.535 339.200,348.700 339.200 C 348.865 339.200,349.000 339.380,349.000 339.600 C 349.000 341.102,349.815 339.795,349.872 338.200 C 349.912 337.100,349.957 335.995,349.972 335.743 C 349.988 335.492,350.450 335.174,351.000 335.036 C 351.770 334.843,352.000 334.526,352.000 333.662 C 352.000 332.984,352.393 332.170,352.994 331.606 C 353.541 331.092,354.106 330.026,354.252 329.236 C 354.397 328.446,354.910 327.326,355.393 326.747 C 355.875 326.167,356.507 324.817,356.796 323.747 C 357.085 322.676,357.570 321.509,357.874 321.154 C 358.178 320.799,358.699 319.359,359.033 317.954 C 359.367 316.549,359.833 315.052,360.069 314.627 C 363.092 309.179,363.085 282.397,360.060 278.661 C 359.855 278.408,359.469 277.120,359.203 275.800 C 358.937 274.480,358.399 272.860,358.008 272.200 C 357.617 271.540,357.070 270.292,356.793 269.427 C 356.516 268.562,355.775 267.042,355.145 266.049 C 354.515 265.056,354.000 264.031,354.000 263.771 C 354.000 263.511,353.716 263.062,353.369 262.774 C 353.022 262.486,352.299 261.384,351.762 260.325 C 351.226 259.266,350.648 258.400,350.480 258.400 C 350.311 258.400,349.848 257.851,349.452 257.180 C 348.554 255.660,348.144 255.199,342.981 249.900 C 340.676 247.535,338.594 245.600,338.353 245.600 C 338.112 245.600,337.561 245.150,337.129 244.600 C 336.696 244.050,336.113 243.600,335.833 243.600 C 335.553 243.600,334.981 243.221,334.562 242.757 C 334.143 242.294,333.080 241.552,332.200 241.108 C 331.320 240.665,330.280 239.966,329.889 239.556 C 329.498 239.145,328.688 238.689,328.089 238.541 C 327.490 238.394,326.460 237.871,325.800 237.380 C 325.140 236.889,323.970 236.356,323.200 236.195 C 322.430 236.035,321.080 235.489,320.200 234.983 C 319.320 234.477,317.430 233.839,316.000 233.566 C 314.570 233.293,313.005 232.815,312.522 232.503 C 310.315 231.080,295.651 230.456,286.562 231.399 M291.000 250.201 C 289.680 250.496,287.520 250.863,286.200 251.016 C 284.880 251.170,282.951 251.724,281.913 252.248 C 280.876 252.772,279.827 253.200,279.582 253.200 C 278.823 253.200,273.415 255.932,271.667 257.197 C 270.754 257.859,269.827 258.400,269.607 258.400 C 269.386 258.400,268.725 258.940,268.137 259.600 C 267.549 260.260,266.911 260.800,266.719 260.800 C 266.528 260.800,265.024 262.195,263.379 263.900 C 261.733 265.605,259.939 267.457,259.393 268.015 C 258.847 268.573,258.400 269.220,258.400 269.453 C 258.400 269.686,258.014 270.219,257.542 270.638 C 257.070 271.057,256.270 272.328,255.764 273.463 C 255.257 274.598,254.658 275.641,254.432 275.780 C 254.206 275.920,253.764 276.898,253.451 277.954 C 253.137 279.010,252.523 280.577,252.085 281.437 C 251.647 282.297,250.992 285.033,250.628 287.517 C 250.265 290.001,249.806 292.458,249.609 292.977 C 248.210 296.657,250.723 298.006,258.669 297.840 C 265.973 297.689,266.800 297.199,266.800 293.028 C 266.800 292.259,267.132 290.768,267.537 289.715 C 267.942 288.662,268.514 286.900,268.807 285.800 C 269.100 284.700,269.738 283.260,270.224 282.600 C 270.710 281.940,271.243 280.950,271.408 280.400 C 271.574 279.850,272.046 279.040,272.457 278.600 C 272.869 278.160,273.879 277.017,274.703 276.060 C 275.526 275.102,276.439 274.112,276.731 273.860 C 277.023 273.607,277.815 272.905,278.490 272.300 C 279.166 271.695,279.900 271.200,280.122 271.200 C 280.343 271.200,281.146 270.726,281.906 270.146 C 283.813 268.691,287.871 267.267,292.480 266.433 C 297.897 265.453,297.602 265.936,297.587 258.051 C 297.571 249.535,297.004 248.860,291.000 250.201 M296.327 251.707 C 297.086 252.335,296.841 264.282,296.059 264.764 C 295.762 264.947,293.872 265.322,291.859 265.595 C 289.756 265.882,287.435 266.478,286.400 266.997 C 285.410 267.495,284.017 268.027,283.305 268.181 C 282.592 268.336,281.902 268.635,281.771 268.847 C 281.640 269.059,280.783 269.703,279.866 270.279 C 278.128 271.370,277.641 271.770,275.000 274.280 C 272.236 276.906,269.037 281.611,267.983 284.600 C 267.595 285.700,266.991 287.269,266.639 288.087 C 266.288 288.905,265.986 290.435,265.970 291.487 C 265.892 296.338,265.222 296.737,257.094 296.777 L 252.388 296.800 251.628 295.550 C 250.477 293.658,251.260 286.469,253.050 282.488 C 253.573 281.327,254.000 280.112,254.000 279.789 C 254.000 279.158,256.460 274.382,258.122 271.787 C 261.020 267.263,267.263 261.020,271.787 258.122 C 274.472 256.403,279.168 254.000,279.843 254.000 C 280.196 254.000,281.320 253.582,282.342 253.071 C 283.998 252.242,287.539 251.469,291.600 251.050 C 293.455 250.858,295.673 251.167,296.327 251.707 M17.283 267.070 C 16.887 267.230,16.875 267.408,17.232 267.839 C 17.878 268.617,18.219 268.540,18.290 267.600 C 18.351 266.785,18.198 266.704,17.283 267.070 M297.500 271.087 C 296.893 271.760,296.800 272.739,296.800 278.443 C 296.800 285.946,296.392 285.087,301.120 287.536 C 304.413 289.241,305.986 291.140,307.027 294.667 C 307.822 297.358,308.531 297.600,315.637 297.600 C 323.554 297.600,324.138 296.991,322.664 290.262 C 321.406 284.513,317.812 279.146,312.600 275.232 C 307.525 271.420,299.248 269.148,297.500 271.087 M305.768 272.580 C 306.850 273.141,307.988 273.600,308.296 273.600 C 309.005 273.600,314.000 277.141,314.000 277.644 C 314.000 277.849,314.420 278.209,314.934 278.443 C 315.448 278.677,316.201 279.438,316.609 280.134 C 317.016 280.830,317.580 281.580,317.862 281.800 C 320.244 283.662,322.960 292.957,321.785 295.228 L 321.143 296.471 314.956 296.335 C 308.156 296.187,308.349 296.261,307.578 293.474 C 306.843 290.822,304.617 288.357,301.459 286.700 C 299.887 285.874,298.375 285.012,298.100 284.784 C 297.543 284.321,297.358 271.984,297.900 271.422 C 298.526 270.773,303.769 271.545,305.768 272.580 M270.783 296.700 C 268.830 299.154,271.031 308.335,274.535 312.351 C 278.030 316.357,281.862 319.682,283.592 320.210 C 284.138 320.376,285.048 320.855,285.614 321.274 C 286.885 322.213,293.588 323.662,295.186 323.343 C 297.507 322.879,297.631 322.422,297.510 314.773 L 297.400 307.830 296.400 307.309 C 295.850 307.022,294.950 306.608,294.400 306.389 C 291.050 305.053,288.636 302.760,287.967 300.279 C 287.742 299.441,286.916 298.045,286.132 297.177 L 284.707 295.600 278.182 295.600 L 271.658 295.600 270.783 296.700 M329.308 296.664 C 327.711 297.003,326.942 298.511,326.659 301.853 C 326.515 303.558,326.055 305.684,325.637 306.577 C 325.219 307.469,324.499 309.010,324.037 310.000 C 322.279 313.766,316.737 320.004,313.856 321.459 C 313.165 321.808,312.240 322.410,311.800 322.798 C 311.360 323.185,310.280 323.726,309.400 324.001 C 308.520 324.276,306.900 324.908,305.800 325.406 C 304.642 325.929,302.565 326.416,300.868 326.561 C 295.744 326.999,295.468 327.524,295.669 336.456 C 295.836 343.843,295.806 343.802,301.017 343.796 C 303.125 343.793,304.925 343.600,305.244 343.343 C 305.550 343.096,307.330 342.575,309.200 342.184 C 311.070 341.794,313.336 341.052,314.235 340.537 C 315.134 340.022,316.142 339.600,316.475 339.600 C 316.808 339.600,317.794 339.082,318.668 338.450 C 319.541 337.817,320.603 337.188,321.028 337.052 C 321.452 336.916,322.323 336.354,322.962 335.802 C 323.601 335.251,324.244 334.800,324.390 334.800 C 324.536 334.800,325.273 334.243,326.028 333.563 C 326.783 332.882,327.670 332.117,328.000 331.863 C 328.599 331.401,330.599 329.195,333.146 326.189 C 333.886 325.315,334.668 324.105,334.885 323.500 C 335.101 322.895,335.451 322.400,335.662 322.400 C 335.872 322.400,336.390 321.621,336.811 320.669 C 337.232 319.717,337.931 318.488,338.363 317.937 C 338.796 317.387,339.277 316.411,339.432 315.768 C 339.587 315.126,340.139 313.791,340.657 312.803 C 341.176 311.815,341.600 310.688,341.600 310.300 C 341.600 309.911,342.050 307.689,342.600 305.361 C 344.590 296.940,344.357 296.626,336.059 296.537 C 332.836 296.502,329.799 296.559,329.308 296.664 M285.060 298.100 C 285.500 298.595,286.386 300.050,287.030 301.333 C 288.407 304.078,291.029 306.454,293.830 307.494 C 296.195 308.372,296.343 308.879,296.374 316.200 L 296.395 321.000 295.269 321.640 C 292.976 322.944,285.160 320.718,281.838 317.815 C 281.199 317.257,280.568 316.800,280.437 316.800 C 280.082 316.800,276.400 313.309,276.400 312.973 C 276.400 312.813,275.796 311.944,275.057 311.041 C 274.319 310.139,273.584 308.950,273.425 308.400 C 273.266 307.850,272.719 306.500,272.209 305.400 C 270.894 302.564,270.518 298.975,271.429 297.968 C 272.576 296.701,283.915 296.811,285.060 298.100 M341.854 298.183 C 342.603 298.708,342.652 298.976,342.340 300.883 C 342.149 302.047,341.736 304.680,341.422 306.733 C 341.107 308.785,340.554 310.916,340.193 311.467 C 339.832 312.018,339.263 313.388,338.930 314.511 C 338.596 315.635,337.905 317.104,337.393 317.777 C 336.881 318.450,336.338 319.497,336.186 320.105 C 336.035 320.713,335.687 321.343,335.414 321.505 C 335.140 321.667,334.416 322.610,333.805 323.600 C 331.692 327.023,324.465 333.730,320.451 335.993 C 319.873 336.319,318.590 337.063,317.600 337.647 C 316.610 338.231,315.080 338.936,314.200 339.215 C 313.320 339.493,312.173 339.999,311.650 340.339 C 310.760 340.918,308.833 341.334,301.654 342.496 C 297.395 343.185,297.198 342.882,297.206 335.656 C 297.214 328.017,297.148 328.108,303.400 327.188 C 305.420 326.891,307.411 326.290,308.800 325.560 C 310.010 324.923,311.126 324.401,311.281 324.401 C 311.886 324.399,316.981 320.581,318.781 318.781 C 324.098 313.464,327.126 307.026,327.705 299.809 C 327.854 297.943,329.009 297.613,335.411 297.606 C 339.685 297.601,341.220 297.739,341.854 298.183 M36.216 310.027 C 36.361 310.261,36.581 310.353,36.703 310.230 C 36.826 310.107,37.213 310.230,37.563 310.503 C 38.127 310.943,38.137 310.919,37.651 310.300 C 37.066 309.554,35.772 309.307,36.216 310.027 M243.199 333.100 C 243.722 333.815,244.213 334.400,244.289 334.400 C 244.593 334.400,243.601 332.900,242.945 332.367 C 242.513 332.016,242.610 332.296,243.199 333.100 " stroke="none" fill="#68acc2" fill-rule="evenodd"></path></g></svg>