<svg width="13" height="11" viewBox="0 0 13 11" fill="none" xmlns="http://www.w3.org/2000/svg">
<path d="M12.3534 7.85351L9.8535 10.3531C9.75974 10.4468 9.63257 10.4995 9.49997 10.4995C9.36737 10.4995 9.24021 10.4468 9.14644 10.3531L6.64644 7.85307C6.57651 7.78315 6.52888 7.69406 6.50959 7.59706C6.4903 7.50007 6.5002 7.39953 6.53804 7.30817C6.57589 7.2168 6.63998 7.13871 6.72221 7.08377C6.80443 7.02883 6.90111 6.99951 7 6.99951H7.00006L9 6.99964V3.99951C9 3.8669 9.05268 3.73973 9.14645 3.64596C9.24022 3.55219 9.36739 3.49951 9.5 3.49951C9.63261 3.49951 9.75979 3.55219 9.85355 3.64596C9.94732 3.73973 10 3.8669 10 3.99951V6.9997L12 6.99989C12.0989 6.9999 12.1956 7.02923 12.2778 7.08418C12.36 7.13914 12.4241 7.21724 12.4619 7.30861C12.4998 7.39998 12.5096 7.50053 12.4903 7.59752C12.471 7.69451 12.4234 7.7836 12.3534 7.85351ZM5.5 4.49951H1C0.867392 4.49951 0.740215 4.55219 0.646447 4.64596C0.552679 4.73973 0.5 4.8669 0.5 4.99951C0.5 5.13212 0.552679 5.2593 0.646447 5.35306C0.740215 5.44683 0.867392 5.49951 1 5.49951L5.49994 5.49951C5.63255 5.49951 5.75972 5.44683 5.85349 5.35306C5.94726 5.2593 5.99994 5.13212 5.99994 4.99951C5.99994 4.8669 5.94726 4.73973 5.85349 4.64596C5.75972 4.55219 5.63255 4.49951 5.49994 4.49951H5.5ZM1 1.49951L9.49994 1.49951C9.63255 1.49951 9.75972 1.44683 9.85349 1.35307C9.94726 1.2593 9.99994 1.13212 9.99994 0.999512C9.99994 0.866903 9.94726 0.739727 9.85349 0.645958C9.75972 0.55219 9.63255 0.499512 9.49994 0.499512L1 0.499512C0.867392 0.499512 0.740215 0.55219 0.646447 0.645958C0.552679 0.739727 0.5 0.866903 0.5 0.999512C0.5 1.13212 0.552679 1.2593 0.646447 1.35307C0.740215 1.44683 0.867392 1.49951 1 1.49951ZM4.5 8.49951H1C0.867392 8.49951 0.740215 8.55219 0.646447 8.64596C0.552679 8.73973 0.5 8.8669 0.5 8.99951C0.5 9.13212 0.552679 9.2593 0.646447 9.35306C0.740215 9.44683 0.867392 9.49951 1 9.49951H4.5C4.63261 9.49951 4.75979 9.44683 4.85355 9.35306C4.94732 9.2593 5 9.13212 5 8.99951C5 8.8669 4.94732 8.73973 4.85355 8.64596C4.75979 8.55219 4.63261 8.49951 4.5 8.49951Z" fill="#F2BC1B"/>
</svg>
