<svg width="13" height="11" viewBox="0 0 13 11" fill="none" xmlns="http://www.w3.org/2000/svg">
<path d="M0.646562 3.14649L3.1465 0.646925C3.24027 0.55317 3.36743 0.500501 3.50003 0.500501C3.63263 0.500501 3.7598 0.55317 3.85356 0.646925L6.35356 3.14693C6.42349 3.21685 6.47112 3.30594 6.49041 3.40294C6.5097 3.49993 6.4998 3.60047 6.46196 3.69183C6.42411 3.7832 6.36002 3.86129 6.27779 3.91623C6.19557 3.97117 6.09889 4.00049 6 4.00049L5.99994 4.00049L4 4.00036L4 7.00049C4 7.1331 3.94732 7.26027 3.85355 7.35404C3.75978 7.44781 3.63261 7.50049 3.5 7.50049C3.36739 7.50049 3.24021 7.44781 3.14645 7.35404C3.05268 7.26027 3 7.1331 3 7.00049L3 4.0003L1 4.00011C0.901104 4.0001 0.804432 3.97077 0.722211 3.91581C0.639988 3.86086 0.575908 3.78276 0.538076 3.69139C0.500243 3.60001 0.490357 3.49947 0.509668 3.40248C0.528978 3.30549 0.576618 3.2164 0.646562 3.14649ZM7.5 6.50049L12 6.50049C12.1326 6.50049 12.2598 6.44781 12.3536 6.35404C12.4473 6.26027 12.5 6.1331 12.5 6.00049C12.5 5.86788 12.4473 5.7407 12.3536 5.64694C12.2598 5.55317 12.1326 5.50049 12 5.50049L7.50006 5.50049C7.36745 5.50049 7.24028 5.55317 7.14651 5.64693C7.05274 5.7407 7.00006 5.86788 7.00006 6.00049C7.00006 6.1331 7.05274 6.26027 7.14651 6.35404C7.24028 6.44781 7.36745 6.50049 7.50006 6.50049L7.5 6.50049ZM12 9.50049L3.50006 9.50049C3.36745 9.50049 3.24028 9.55317 3.14651 9.64693C3.05274 9.7407 3.00006 9.86788 3.00006 10.0005C3.00006 10.1331 3.05274 10.2603 3.14651 10.354C3.24028 10.4478 3.36745 10.5005 3.50006 10.5005L12 10.5005C12.1326 10.5005 12.2598 10.4478 12.3536 10.354C12.4473 10.2603 12.5 10.1331 12.5 10.0005C12.5 9.86788 12.4473 9.7407 12.3536 9.64693C12.2598 9.55317 12.1326 9.50049 12 9.50049ZM8.5 2.50049L12 2.50049C12.1326 2.50049 12.2598 2.44781 12.3536 2.35404C12.4473 2.26027 12.5 2.1331 12.5 2.00049C12.5 1.86788 12.4473 1.7407 12.3536 1.64694C12.2598 1.55317 12.1326 1.50049 12 1.50049L8.5 1.50049C8.36739 1.50049 8.24022 1.55317 8.14645 1.64694C8.05268 1.7407 8 1.86788 8 2.00049C8 2.1331 8.05268 2.26027 8.14645 2.35404C8.24022 2.44781 8.36739 2.50049 8.5 2.50049Z" fill="#F2BC1B"/>
</svg>
