<svg width="32" height="32" viewBox="0 0 32 32" fill="none" xmlns="http://www.w3.org/2000/svg">
<g clip-path="url(#clip0_315_6767)">
<path d="M16 32C24.8366 32 32 24.8366 32 16C32 7.16344 24.8366 0 16 0C7.16344 0 0 7.16344 0 16C0 24.8366 7.16344 32 16 32Z" fill="white"/>
<path d="M9.43675 14.8633L9.25762 15.1381C7.23725 18.2374 7.6885 22.2964 10.3425 24.8968C11.9038 26.4266 13.9501 27.1916 15.9965 27.1918C15.9965 27.1918 15.9965 27.1918 9.43675 14.8633Z" fill="#00A3FF"/>
<path opacity="0.6" d="M15.9946 18.6103L9.43488 14.8633C15.9946 27.1918 15.9946 27.1918 15.9946 27.1918C15.9946 24.5068 15.9946 21.43 15.9946 18.6103Z" fill="#00A3FF"/>
<path opacity="0.6" d="M22.5632 14.8633L22.7424 15.1381C24.7627 18.2374 24.3115 22.2964 21.6575 24.8968C20.0962 26.4266 18.0499 27.1916 16.0035 27.1918C16.0035 27.1918 16.0035 27.1918 22.5632 14.8633Z" fill="#00A3FF"/>
<path opacity="0.2" d="M16.0028 18.6103L22.5625 14.8633C16.0028 27.1918 16.0028 27.1918 16.0028 27.1918C16.0028 24.5068 16.0028 21.43 16.0028 18.6103Z" fill="#00A3FF"/>
<path opacity="0.2" d="M16.0052 10.2396V16.7021L21.6557 13.4729L16.0052 10.2396Z" fill="#00A3FF"/>
<path opacity="0.6" d="M16.0035 10.2396L10.3489 13.4728L16.0035 16.7021V10.2396Z" fill="#00A3FF"/>
<path d="M16.0035 4.80469L10.3489 13.4749L16.0035 10.2326V4.80469Z" fill="#00A3FF"/>
<path opacity="0.6" d="M16.0052 10.2316L21.66 13.4741L16.0052 4.79948V10.2316Z" fill="#00A3FF"/>
</g>
<defs>
<clipPath id="clip0_315_6767">
<rect width="32" height="32" fill="white"/>
</clipPath>
</defs>
</svg>
