<svg width="17" height="15" viewBox="0 0 17 15" fill="none" xmlns="http://www.w3.org/2000/svg">
<path d="M15.7415 0.00153584C15.5315 0.0165403 15.3254 0.0649236 15.1313 0.144798H15.1287C14.9423 0.217393 14.0561 0.583579 12.7089 1.13864L7.88107 3.13596C4.41685 4.56858 1.01149 5.97936 1.01149 5.97936L1.05204 5.96395C1.05204 5.96395 0.817254 6.03975 0.572005 6.20486C0.420492 6.29957 0.290115 6.42348 0.188763 6.56912C0.0684279 6.74257 -0.0283635 7.0079 0.00760626 7.28222C0.0664659 7.74605 0.372536 8.02423 0.592279 8.17777C0.814638 8.33323 1.02653 8.40583 1.02653 8.40583H1.03176L4.22523 9.46263C4.36845 9.91426 5.19838 12.5945 5.39784 13.2119C5.51556 13.5806 5.63001 13.8113 5.77324 13.9873C5.84256 14.0772 5.92366 14.1524 6.0211 14.2128C6.07176 14.2417 6.12578 14.2646 6.18199 14.2809L6.14929 14.2732C6.1591 14.2757 6.16694 14.2834 6.17414 14.286C6.2003 14.2931 6.21796 14.2956 6.25131 14.3008C6.75685 14.4511 7.16298 14.1427 7.16298 14.1427L7.18587 14.1248L9.07134 12.4384L12.2315 14.8199L12.3034 14.8501C12.962 15.134 13.629 14.976 13.9815 14.6972C14.3367 14.4164 14.4747 14.0573 14.4747 14.0573L14.4976 13.9995L16.9396 1.7104C17.0089 1.40718 17.0266 1.12322 16.95 0.847619C16.8711 0.568691 16.6889 0.328795 16.4393 0.174992C16.2296 0.049792 15.9865 -0.0106392 15.7415 0.00153584ZM15.6754 1.31852C15.6728 1.35899 15.6806 1.3545 15.6623 1.43223V1.4393L13.2432 13.6005C13.2327 13.6179 13.2151 13.6558 13.1667 13.6937C13.1157 13.7335 13.0751 13.7586 12.8626 13.6757L8.99744 10.7648L6.66267 12.8553L7.15317 9.77806L13.4682 3.99618C13.7285 3.75848 13.6415 3.70837 13.6415 3.70837C13.6598 3.4167 13.2484 3.62292 13.2484 3.62292L5.28536 8.46879L5.28274 8.45594L1.46602 7.19356V7.19099L1.45621 7.18906C1.4629 7.18688 1.46945 7.18431 1.47583 7.18135L1.49676 7.17108L1.51703 7.16401C1.51703 7.16401 4.925 5.75323 8.38922 4.32061C10.1236 3.60301 11.8711 2.88027 13.2151 2.32264C14.559 1.76822 15.5524 1.36156 15.6087 1.33972C15.6623 1.31916 15.6368 1.31916 15.6754 1.31916V1.31852Z" fill="#A6A4A2"/>
</svg>
