<svg width="17" height="14" viewBox="0 0 17 14" fill="none" xmlns="http://www.w3.org/2000/svg">
<path d="M16.0859 1.56181C15.5229 1.82573 14.9182 2.00406 14.2824 2.08466C14.9384 1.66937 15.4292 1.01574 15.6631 0.245749C15.0468 0.633069 14.3723 0.9057 13.6689 1.05179C13.1959 0.517424 12.5694 0.163237 11.8866 0.0442198C11.2038 -0.0747976 10.503 0.0480129 9.89296 0.393584C9.28292 0.739156 8.79777 1.28815 8.51285 1.95534C8.22792 2.62253 8.15916 3.37058 8.31723 4.08336C7.06843 4.01702 5.84677 3.6736 4.73153 3.07538C3.6163 2.47717 2.63241 1.63753 1.84372 0.610964C1.57404 1.10315 1.41898 1.6738 1.41898 2.28154C1.41868 2.82864 1.54602 3.36737 1.7897 3.84992C2.03338 4.33246 2.38587 4.74391 2.81589 5.04776C2.31718 5.03097 1.82947 4.88839 1.39336 4.6319V4.67469C1.39331 5.44203 1.64418 6.18576 2.1034 6.77967C2.56262 7.37359 3.20191 7.78111 3.91279 7.9331C3.45015 8.06557 2.96511 8.08508 2.4943 7.99016C2.69487 8.65041 3.08556 9.22777 3.61168 9.64142C4.13779 10.0551 4.77299 10.2843 5.42835 10.297C4.31584 11.221 2.94189 11.7223 1.52752 11.7201C1.27699 11.7201 1.02666 11.7047 0.777832 11.6737C2.21349 12.6503 3.8847 13.1687 5.59151 13.1667C11.3693 13.1667 14.5278 8.10358 14.5278 3.71244C14.5278 3.56978 14.5244 3.42569 14.5184 3.28302C15.1328 2.81293 15.6631 2.23082 16.0845 1.56395L16.0859 1.56181Z" fill="#A6A4A2"/>
</svg>
