<svg width="24" height="24" viewBox="0 0 24 24" fill="none" xmlns="http://www.w3.org/2000/svg">
<path fill-rule="evenodd" clip-rule="evenodd" d="M12 24C18.6274 24 24 18.6274 24 12C24 5.37258 18.6274 0 12 0C5.37258 0 0 5.37258 0 12C0 18.6274 5.37258 24 12 24ZM16.9974 5.75117C15.5803 4.61418 13.8168 3.99625 12 4.00009L11.9999 4C10.5952 3.99902 9.2153 4.36806 7.99869 5.07005C6.78221 5.77203 5.77203 6.78221 5.07005 7.99869C4.36806 9.21534 3.99901 10.5953 4 11.9999H6.12498C6.12374 10.5437 6.66367 9.13896 7.63984 8.05837C8.61617 6.97779 9.95913 6.29849 11.408 6.15241C12.8571 6.00622 14.3086 6.40377 15.481 7.26759L14.0747 8.67382C14.011 8.73756 13.992 8.83329 14.0265 8.9165C14.061 8.99971 14.1421 9.0539 14.2321 9.0539H18.4546C18.5776 9.0539 18.6773 8.9542 18.6773 8.83131V4.60884C18.6773 4.51881 18.623 4.43759 18.5399 4.40312C18.4567 4.36864 18.3609 4.38774 18.2972 4.45136L16.9974 5.75117ZM15.1249 16.9758C16.1233 16.3492 16.9102 15.4368 17.3834 14.357L17.3835 14.3571C17.7096 13.6142 17.877 12.8114 17.875 12H20C20.0012 14.0203 19.238 15.966 17.8636 17.4466C16.489 18.9271 14.6054 19.8327 12.5907 19.9816C10.5761 20.1304 8.57985 19.5114 7.00287 18.2488L5.70305 19.5486C5.63931 19.6122 5.54358 19.6313 5.46037 19.5968C5.37729 19.5624 5.32297 19.4811 5.32297 19.3911V15.1687C5.32297 15.0458 5.42267 14.9461 5.54569 14.9461H9.76815C9.85818 14.9461 9.93928 15.0003 9.97375 15.0835C10.0082 15.1667 9.98925 15.2624 9.92552 15.3261L8.51929 16.7324C9.46883 17.4308 10.6066 17.8275 11.7846 17.8709C12.9625 17.9143 14.1264 17.6024 15.1249 16.9758Z" fill="#FFB84D"/>
</svg>
