<svg width="24" height="24" fill="none" xmlns="http://www.w3.org/2000/svg"><g clip-path="url(#a)"><path fill-rule="evenodd" clip-rule="evenodd" d="M12 24c6.627 0 12-5.373 12-12S18.627 0 12 0 0 5.373 0 12s5.373 12 12 12Zm4.997-18.249A7.959 7.959 0 0 0 12 4.001V4a7.994 7.994 0 0 0-8 8h2.125a5.872 5.872 0 0 1 9.356-4.732l-1.406 1.406a.223.223 0 0 0 .157.38h4.223c.123 0 .222-.1.222-.223V4.61a.223.223 0 0 0-.38-.158l-1.3 1.3Zm-1.872 11.225a5.876 5.876 0 0 0 2.258-2.619A5.828 5.828 0 0 0 17.876 12H20a7.999 7.999 0 0 1-12.997 6.249l-1.3 1.3a.223.223 0 0 1-.38-.158V15.17c0-.123.1-.223.223-.223h4.222a.222.222 0 0 1 .158.38l-1.407 1.406a5.876 5.876 0 0 0 6.606.244Z" fill="#fff" fill-opacity=".87"/></g><defs><clipPath id="a"><path fill="#fff" d="M0 0h24v24H0z"/></clipPath></defs></svg>