<svg width="20" height="20" viewBox="0 0 20 20" fill="none" xmlns="http://www.w3.org/2000/svg">
    <circle cx="10" cy="10" r="9.75" fill="#181818" stroke="#C3C3C3" stroke-width="0.5"/>
    <path d="M9 5.96429C9 6.22003 9.10536 6.4653 9.29289 6.64614C9.48043 6.82698 9.73478 6.92857 10 6.92857C10.2652 6.92857 10.5196 6.82698 10.7071 6.64614C10.8946 6.4653 11 6.22003 11 5.96429C11 5.70854 10.8946 5.46327 10.7071 5.28243C10.5196 5.10159 10.2652 5 10 5C9.73478 5 9.48043 5.10159 9.29289 5.28243C9.10536 5.46327 9 5.70854 9 5.96429ZM10.5 8.21429H9.5C9.40833 8.21429 9.33333 8.28661 9.33333 8.375V13.8393C9.33333 13.9277 9.40833 14 9.5 14H10.5C10.5917 14 10.6667 13.9277 10.6667 13.8393V8.375C10.6667 8.28661 10.5917 8.21429 10.5 8.21429Z" fill="white"/>
</svg>
