<svg width="32" height="32" viewBox="0 0 32 32" fill="none" xmlns="http://www.w3.org/2000/svg">
<g clip-path="url(#clip0_315_6766)">
<path d="M16 32C24.8366 32 32 24.8366 32 16C32 7.16344 24.8366 0 16 0C7.16344 0 0 7.16344 0 16C0 24.8366 7.16344 32 16 32Z" fill="#00A3FF"/>
<path d="M9.43675 14.8646L9.25762 15.1394C7.23725 18.2387 7.6885 22.2977 10.3425 24.8981C11.9038 26.4279 13.9501 27.1929 15.9965 27.1932C15.9965 27.1932 15.9965 27.1932 9.43675 14.8646Z" fill="white"/>
<path opacity="0.6" d="M15.9959 18.6116L9.43619 14.8646C15.9959 27.1932 15.9959 27.1932 15.9959 27.1932C15.9959 24.5081 15.9959 21.4314 15.9959 18.6116Z" fill="white"/>
<path opacity="0.6" d="M22.5632 14.8646L22.7424 15.1394C24.7627 18.2387 24.3115 22.2977 21.6575 24.8981C20.0962 26.4279 18.0499 27.1929 16.0035 27.1932C16.0035 27.1932 16.0035 27.1932 22.5632 14.8646Z" fill="white"/>
<path opacity="0.2" d="M16.0028 18.6116L22.5625 14.8646C16.0028 27.1932 16.0028 27.1932 16.0028 27.1932C16.0028 24.5081 16.0028 21.4314 16.0028 18.6116Z" fill="white"/>
<path opacity="0.2" d="M16.0039 10.2396V16.7021L21.6544 13.4729L16.0039 10.2396Z" fill="white"/>
<path opacity="0.6" d="M16.0048 10.2396L10.3503 13.4729L16.0048 16.7021V10.2396Z" fill="white"/>
<path d="M16.0048 4.80469L10.3503 13.4749L16.0048 10.2326V4.80469Z" fill="white"/>
<path opacity="0.6" d="M16.0039 10.2317L21.6587 13.4741L16.0039 4.79956V10.2317Z" fill="white"/>
</g>
<defs>
<clipPath id="clip0_315_6766">
<rect width="32" height="32" fill="white"/>
</clipPath>
</defs>
</svg>
