<?xml version="1.0" standalone="no"?>
<!DOCTYPE svg PUBLIC "-//W3C//DTD SVG 20010904//EN"
 "http://www.w3.org/TR/2001/REC-SVG-20010904/DTD/svg10.dtd">
<svg version="1.0" xmlns="http://www.w3.org/2000/svg"
 width="552.000000pt" height="552.000000pt" viewBox="0 0 552.000000 552.000000"
 preserveAspectRatio="xMidYMid meet">
<metadata>
Created by potrace 1.11, written by Peter Selinger 2001-2013
</metadata>
<g transform="translate(0.000000,552.000000) scale(0.100000,-0.100000)"
fill="#000000" stroke="none">
<path d="M4977 4694 c-1 -1 -29 -5 -62 -8 -33 -4 -71 -9 -85 -11 -14 -2 -50
-7 -80 -10 -30 -4 -64 -9 -75 -11 -11 -2 -38 -6 -60 -9 -31 -4 -324 -43 -450
-60 -11 -1 -45 -5 -75 -9 -30 -4 -66 -9 -80 -11 -14 -2 -50 -7 -80 -10 -30 -4
-62 -9 -71 -10 -15 -3 -56 -8 -159 -20 -25 -3 -52 -7 -60 -10 -8 -2 -42 -7
-75 -10 -33 -3 -87 -10 -120 -15 -33 -5 -82 -12 -110 -15 -27 -3 -61 -8 -75
-10 -14 -2 -49 -7 -79 -10 -30 -4 -62 -8 -71 -10 -9 -2 -41 -6 -71 -10 -30 -3
-65 -8 -79 -10 -42 -6 -102 -14 -150 -20 -45 -5 -223 -29 -485 -65 -77 -11
-160 -22 -185 -25 -57 -7 -79 -10 -220 -29 -63 -8 -131 -18 -150 -20 -153 -20
-429 -57 -445 -60 -11 -2 -45 -7 -76 -10 -31 -4 -65 -8 -75 -10 -11 -2 -44 -7
-74 -10 -107 -14 -135 -17 -160 -21 -14 -2 -45 -6 -70 -10 -25 -3 -61 -8 -80
-10 -19 -3 -52 -8 -72 -10 -47 -6 -98 -13 -152 -20 -22 -3 -57 -7 -76 -10 -19
-2 -68 -9 -107 -15 l-73 -12 0 -74 c0 -41 -3 -75 -7 -75 -5 -1 -17 -3 -28 -4
-52 -7 -110 -17 -113 -20 -2 -2 -4 -35 -3 -74 1 -79 4 -75 -91 -86 -41 -5 -57
-12 -60 -24 -5 -23 -2 -2480 3 -2484 12 -9 125 -104 139 -117 28 -25 81 -72
190 -165 58 -50 108 -93 111 -98 3 -4 25 -5 50 -2 109 13 143 17 158 20 9 1
41 6 71 10 30 3 66 8 80 10 14 2 50 7 80 10 30 4 62 9 70 10 8 1 40 6 70 10
30 3 66 8 80 10 14 3 45 7 70 10 66 8 133 17 150 20 8 1 40 6 70 10 30 3 66 8
80 10 60 9 307 41 385 51 38 4 103 14 135 19 8 1 40 5 70 9 110 13 126 15 160
20 19 3 55 8 80 11 25 4 56 8 70 10 27 4 57 8 190 25 47 6 96 13 110 15 46 7
105 15 150 20 25 4 59 8 75 10 17 3 68 9 115 15 47 6 96 13 110 15 33 6 105
15 153 20 22 2 51 6 65 9 15 3 50 8 77 11 28 3 64 8 80 10 17 2 84 11 150 20
66 9 131 18 145 20 66 10 109 15 155 21 28 3 61 7 75 9 40 6 310 42 555 74 88
12 178 24 200 27 22 3 56 7 75 10 19 3 46 7 60 9 14 3 51 7 83 10 32 4 66 8
76 10 10 2 42 6 72 10 30 4 57 9 60 11 3 2 5 33 4 68 -1 36 1 69 4 74 3 5 32
13 64 16 89 11 87 8 87 92 0 63 2 74 18 75 9 0 29 3 45 5 15 2 39 6 54 7 l28
4 0 1247 0 1248 -54 46 c-29 26 -60 53 -68 61 -9 8 -34 31 -58 50 -23 20 -93
80 -154 134 -109 95 -114 98 -157 96 -25 -2 -45 -4 -47 -5z"/>
</g>
</svg>
